M48
; DRILL file {KiCad (5.1.6)-1} date 06/17/22 09:41:41
; FORMAT={-:-/ absolute / metric / decimal}
; #@! TF.CreationDate,2022-06-17T09:41:41-05:00
; #@! TF.GenerationSoftware,Kicad,Pcbnew,(5.1.6)-1
; #@! TF.FileFunction,Plated,1,4,PTH
FMAT,2
METRIC
T1C0.400
T2C0.600
T3C0.850
T4C1.000
%
G90
G05
T1
X105.943Y-104.343
X106.07Y-98.527
X107.01Y-87.376
X107.579Y-107.605
X107.721Y-110.973
X107.804Y-88.056
X108.306Y-113.69
X108.687Y-90.043
X109.093Y-89.154
X110.642Y-108.814
X110.896Y-93.624
X110.947Y-95.885
X110.947Y-98.501
X111.633Y-111.303
X112.039Y-97.686
X112.268Y-99.568
X112.268Y-100.559
X112.598Y-113.284
X112.878Y-110.058
X113.36Y-73.762
X113.462Y-103.708
X113.97Y-101.689
X114.3Y-104.362
X114.427Y-100.762
X114.58Y-102.997
X114.656Y-93.675
X114.91Y-105.156
X114.935Y-110.769
X115.418Y-102.486
X115.448Y-105.915
X115.545Y-89.941
X115.875Y-106.807
X116.967Y-82.779
X117.272Y-110.439
X117.475Y-111.582
X118.034Y-85.039
X118.466Y-113.284
X118.701Y-101.545
X118.789Y-102.471
X118.802Y-99.974
X118.821Y-80.467
X120.523Y-90.221
X120.726Y-103.48
X121.037Y-113.132
X121.666Y-93.929
X121.691Y-114.757
X121.777Y-103.505
X121.793Y-80.95
X121.844Y-89.304
X121.869Y-98.393
X122.631Y-105.613
X122.687Y-93.833
X122.738Y-103.577
X123.038Y-98.4
X123.063Y-91.592
X123.215Y-89.332
X123.825Y-103.2
X123.869Y-99.645
X123.876Y-100.572
X123.945Y-101.989
X124.333Y-107.34
X124.507Y-95.458
X124.784Y-80.812
X125.194Y-105.027
X125.426Y-95.584
X125.603Y-104.14
X125.806Y-106.477
X125.826Y-108.514
X126.238Y-95.138
X126.619Y-107.086
X126.657Y-114.795
X126.848Y-96.342
X126.848Y-99.264
X126.996Y-98.191
X127.457Y-97.409
X127.48Y-82.876
X127.876Y-96.397
X127.914Y-93.447
X128.134Y-84.817
X128.372Y-108.915
X128.448Y-105.207
X129.184Y-96.495
X129.235Y-93.066
X129.311Y-112.801
X129.311Y-117.78
X129.337Y-109.296
X129.914Y-91.001
X130.683Y-101.625
X131.115Y-104.445
X131.369Y-96.196
X131.394Y-114.808
X131.953Y-105.181
X132.766Y-99.289
X132.893Y-96.215
X133.172Y-113.005
X134.976Y-114.96
X135.057Y-102.692
X135.204Y-110.947
X135.306Y-108.407
X136.093Y-96.85
T3
X127.31Y-73.82
X132.31Y-73.82
X119.42Y-130.65
X124.42Y-130.65
T4
X139.522Y-82.55
X139.522Y-97.79
X100.127Y-90.17
X139.522Y-87.63
X139.522Y-80.01
X100.127Y-95.25
X139.522Y-77.47
X100.127Y-74.955
X100.127Y-85.09
X100.127Y-100.33
X139.522Y-90.17
X139.522Y-95.25
X139.522Y-74.854
X100.127Y-77.47
X139.522Y-92.71
X100.127Y-80.01
X100.127Y-92.71
X139.497Y-85.09
X100.127Y-82.55
X100.127Y-97.79
X100.127Y-87.63
X139.522Y-100.432
T2
G00X126.31Y-71.47
M15
G01X126.31Y-70.77
M16
G05
G00X133.31Y-70.77
M15
G01X133.31Y-71.47
M16
G05
G00X118.42Y-133.7
M15
G01X118.42Y-133.0
M16
G05
G00X125.42Y-133.0
M15
G01X125.42Y-133.7
M16
G05
T0
M30
