%TF.GenerationSoftware,KiCad,Pcbnew,(5.1.6)-1*%
%TF.CreationDate,2022-05-16T14:52:33-05:00*%
%TF.ProjectId,ESP32-S2_Dev,45535033-322d-4533-925f-4465762e6b69,rev?*%
%TF.SameCoordinates,Original*%
%TF.FileFunction,Legend,Bot*%
%TF.FilePolarity,Positive*%
%FSLAX46Y46*%
G04 Gerber Fmt 4.6, Leading zero omitted, Abs format (unit mm)*
G04 Created by KiCad (PCBNEW (5.1.6)-1) date 2022-05-16 14:52:33*
%MOMM*%
%LPD*%
G01*
G04 APERTURE LIST*
%ADD10C,0.150000*%
G04 APERTURE END LIST*
%TO.C,C30*%
D10*
X120930942Y-109031942D02*
X120978561Y-108984323D01*
X121026180Y-108841466D01*
X121026180Y-108746228D01*
X120978561Y-108603371D01*
X120883323Y-108508133D01*
X120788085Y-108460514D01*
X120597609Y-108412895D01*
X120454752Y-108412895D01*
X120264276Y-108460514D01*
X120169038Y-108508133D01*
X120073800Y-108603371D01*
X120026180Y-108746228D01*
X120026180Y-108841466D01*
X120073800Y-108984323D01*
X120121419Y-109031942D01*
X120026180Y-109365276D02*
X120026180Y-109984323D01*
X120407133Y-109650990D01*
X120407133Y-109793847D01*
X120454752Y-109889085D01*
X120502371Y-109936704D01*
X120597609Y-109984323D01*
X120835704Y-109984323D01*
X120930942Y-109936704D01*
X120978561Y-109889085D01*
X121026180Y-109793847D01*
X121026180Y-109508133D01*
X120978561Y-109412895D01*
X120930942Y-109365276D01*
X120026180Y-110603371D02*
X120026180Y-110698609D01*
X120073800Y-110793847D01*
X120121419Y-110841466D01*
X120216657Y-110889085D01*
X120407133Y-110936704D01*
X120645228Y-110936704D01*
X120835704Y-110889085D01*
X120930942Y-110841466D01*
X120978561Y-110793847D01*
X121026180Y-110698609D01*
X121026180Y-110603371D01*
X120978561Y-110508133D01*
X120930942Y-110460514D01*
X120835704Y-110412895D01*
X120645228Y-110365276D01*
X120407133Y-110365276D01*
X120216657Y-110412895D01*
X120121419Y-110460514D01*
X120073800Y-110508133D01*
X120026180Y-110603371D01*
%TO.C,L1*%
X110205780Y-98004333D02*
X110205780Y-97528142D01*
X109205780Y-97528142D01*
X110205780Y-98861476D02*
X110205780Y-98290047D01*
X110205780Y-98575761D02*
X109205780Y-98575761D01*
X109348638Y-98480523D01*
X109443876Y-98385285D01*
X109491495Y-98290047D01*
%TO.C,C32*%
X111304342Y-96865342D02*
X111351961Y-96817723D01*
X111399580Y-96674866D01*
X111399580Y-96579628D01*
X111351961Y-96436771D01*
X111256723Y-96341533D01*
X111161485Y-96293914D01*
X110971009Y-96246295D01*
X110828152Y-96246295D01*
X110637676Y-96293914D01*
X110542438Y-96341533D01*
X110447200Y-96436771D01*
X110399580Y-96579628D01*
X110399580Y-96674866D01*
X110447200Y-96817723D01*
X110494819Y-96865342D01*
X110399580Y-97198676D02*
X110399580Y-97817723D01*
X110780533Y-97484390D01*
X110780533Y-97627247D01*
X110828152Y-97722485D01*
X110875771Y-97770104D01*
X110971009Y-97817723D01*
X111209104Y-97817723D01*
X111304342Y-97770104D01*
X111351961Y-97722485D01*
X111399580Y-97627247D01*
X111399580Y-97341533D01*
X111351961Y-97246295D01*
X111304342Y-97198676D01*
X110494819Y-98198676D02*
X110447200Y-98246295D01*
X110399580Y-98341533D01*
X110399580Y-98579628D01*
X110447200Y-98674866D01*
X110494819Y-98722485D01*
X110590057Y-98770104D01*
X110685295Y-98770104D01*
X110828152Y-98722485D01*
X111399580Y-98151057D01*
X111399580Y-98770104D01*
%TO.C,C28*%
X112021857Y-102465142D02*
X112069476Y-102512761D01*
X112212333Y-102560380D01*
X112307571Y-102560380D01*
X112450428Y-102512761D01*
X112545666Y-102417523D01*
X112593285Y-102322285D01*
X112640904Y-102131809D01*
X112640904Y-101988952D01*
X112593285Y-101798476D01*
X112545666Y-101703238D01*
X112450428Y-101608000D01*
X112307571Y-101560380D01*
X112212333Y-101560380D01*
X112069476Y-101608000D01*
X112021857Y-101655619D01*
X111640904Y-101655619D02*
X111593285Y-101608000D01*
X111498047Y-101560380D01*
X111259952Y-101560380D01*
X111164714Y-101608000D01*
X111117095Y-101655619D01*
X111069476Y-101750857D01*
X111069476Y-101846095D01*
X111117095Y-101988952D01*
X111688523Y-102560380D01*
X111069476Y-102560380D01*
X110498047Y-101988952D02*
X110593285Y-101941333D01*
X110640904Y-101893714D01*
X110688523Y-101798476D01*
X110688523Y-101750857D01*
X110640904Y-101655619D01*
X110593285Y-101608000D01*
X110498047Y-101560380D01*
X110307571Y-101560380D01*
X110212333Y-101608000D01*
X110164714Y-101655619D01*
X110117095Y-101750857D01*
X110117095Y-101798476D01*
X110164714Y-101893714D01*
X110212333Y-101941333D01*
X110307571Y-101988952D01*
X110498047Y-101988952D01*
X110593285Y-102036571D01*
X110640904Y-102084190D01*
X110688523Y-102179428D01*
X110688523Y-102369904D01*
X110640904Y-102465142D01*
X110593285Y-102512761D01*
X110498047Y-102560380D01*
X110307571Y-102560380D01*
X110212333Y-102512761D01*
X110164714Y-102465142D01*
X110117095Y-102369904D01*
X110117095Y-102179428D01*
X110164714Y-102084190D01*
X110212333Y-102036571D01*
X110307571Y-101988952D01*
%TO.C,C27*%
X112021857Y-103658942D02*
X112069476Y-103706561D01*
X112212333Y-103754180D01*
X112307571Y-103754180D01*
X112450428Y-103706561D01*
X112545666Y-103611323D01*
X112593285Y-103516085D01*
X112640904Y-103325609D01*
X112640904Y-103182752D01*
X112593285Y-102992276D01*
X112545666Y-102897038D01*
X112450428Y-102801800D01*
X112307571Y-102754180D01*
X112212333Y-102754180D01*
X112069476Y-102801800D01*
X112021857Y-102849419D01*
X111640904Y-102849419D02*
X111593285Y-102801800D01*
X111498047Y-102754180D01*
X111259952Y-102754180D01*
X111164714Y-102801800D01*
X111117095Y-102849419D01*
X111069476Y-102944657D01*
X111069476Y-103039895D01*
X111117095Y-103182752D01*
X111688523Y-103754180D01*
X111069476Y-103754180D01*
X110736142Y-102754180D02*
X110069476Y-102754180D01*
X110498047Y-103754180D01*
%TO.C,C26*%
X112072657Y-104827342D02*
X112120276Y-104874961D01*
X112263133Y-104922580D01*
X112358371Y-104922580D01*
X112501228Y-104874961D01*
X112596466Y-104779723D01*
X112644085Y-104684485D01*
X112691704Y-104494009D01*
X112691704Y-104351152D01*
X112644085Y-104160676D01*
X112596466Y-104065438D01*
X112501228Y-103970200D01*
X112358371Y-103922580D01*
X112263133Y-103922580D01*
X112120276Y-103970200D01*
X112072657Y-104017819D01*
X111691704Y-104017819D02*
X111644085Y-103970200D01*
X111548847Y-103922580D01*
X111310752Y-103922580D01*
X111215514Y-103970200D01*
X111167895Y-104017819D01*
X111120276Y-104113057D01*
X111120276Y-104208295D01*
X111167895Y-104351152D01*
X111739323Y-104922580D01*
X111120276Y-104922580D01*
X110263133Y-103922580D02*
X110453609Y-103922580D01*
X110548847Y-103970200D01*
X110596466Y-104017819D01*
X110691704Y-104160676D01*
X110739323Y-104351152D01*
X110739323Y-104732104D01*
X110691704Y-104827342D01*
X110644085Y-104874961D01*
X110548847Y-104922580D01*
X110358371Y-104922580D01*
X110263133Y-104874961D01*
X110215514Y-104827342D01*
X110167895Y-104732104D01*
X110167895Y-104494009D01*
X110215514Y-104398771D01*
X110263133Y-104351152D01*
X110358371Y-104303533D01*
X110548847Y-104303533D01*
X110644085Y-104351152D01*
X110691704Y-104398771D01*
X110739323Y-104494009D01*
%TO.C,C24*%
X112021857Y-107265742D02*
X112069476Y-107313361D01*
X112212333Y-107360980D01*
X112307571Y-107360980D01*
X112450428Y-107313361D01*
X112545666Y-107218123D01*
X112593285Y-107122885D01*
X112640904Y-106932409D01*
X112640904Y-106789552D01*
X112593285Y-106599076D01*
X112545666Y-106503838D01*
X112450428Y-106408600D01*
X112307571Y-106360980D01*
X112212333Y-106360980D01*
X112069476Y-106408600D01*
X112021857Y-106456219D01*
X111640904Y-106456219D02*
X111593285Y-106408600D01*
X111498047Y-106360980D01*
X111259952Y-106360980D01*
X111164714Y-106408600D01*
X111117095Y-106456219D01*
X111069476Y-106551457D01*
X111069476Y-106646695D01*
X111117095Y-106789552D01*
X111688523Y-107360980D01*
X111069476Y-107360980D01*
X110212333Y-106694314D02*
X110212333Y-107360980D01*
X110450428Y-106313361D02*
X110688523Y-107027647D01*
X110069476Y-107027647D01*
%TO.C,C22*%
X112098057Y-105970342D02*
X112145676Y-106017961D01*
X112288533Y-106065580D01*
X112383771Y-106065580D01*
X112526628Y-106017961D01*
X112621866Y-105922723D01*
X112669485Y-105827485D01*
X112717104Y-105637009D01*
X112717104Y-105494152D01*
X112669485Y-105303676D01*
X112621866Y-105208438D01*
X112526628Y-105113200D01*
X112383771Y-105065580D01*
X112288533Y-105065580D01*
X112145676Y-105113200D01*
X112098057Y-105160819D01*
X111717104Y-105160819D02*
X111669485Y-105113200D01*
X111574247Y-105065580D01*
X111336152Y-105065580D01*
X111240914Y-105113200D01*
X111193295Y-105160819D01*
X111145676Y-105256057D01*
X111145676Y-105351295D01*
X111193295Y-105494152D01*
X111764723Y-106065580D01*
X111145676Y-106065580D01*
X110764723Y-105160819D02*
X110717104Y-105113200D01*
X110621866Y-105065580D01*
X110383771Y-105065580D01*
X110288533Y-105113200D01*
X110240914Y-105160819D01*
X110193295Y-105256057D01*
X110193295Y-105351295D01*
X110240914Y-105494152D01*
X110812342Y-106065580D01*
X110193295Y-106065580D01*
%TD*%
M02*
