%TF.GenerationSoftware,KiCad,Pcbnew,(5.1.6)-1*%
%TF.CreationDate,2022-05-16T14:52:33-05:00*%
%TF.ProjectId,ESP32-S2_Dev,45535033-322d-4533-925f-4465762e6b69,rev?*%
%TF.SameCoordinates,Original*%
%TF.FileFunction,Copper,L2,Inr*%
%TF.FilePolarity,Positive*%
%FSLAX46Y46*%
G04 Gerber Fmt 4.6, Leading zero omitted, Abs format (unit mm)*
G04 Created by KiCad (PCBNEW (5.1.6)-1) date 2022-05-16 14:52:33*
%MOMM*%
%LPD*%
G01*
G04 APERTURE LIST*
%TA.AperFunction,ViaPad*%
%ADD10R,1.700000X1.700000*%
%TD*%
%TA.AperFunction,ViaPad*%
%ADD11O,1.200000X1.900000*%
%TD*%
%TA.AperFunction,ViaPad*%
%ADD12C,1.450000*%
%TD*%
%TA.AperFunction,ViaPad*%
%ADD13C,0.800000*%
%TD*%
%TA.AperFunction,Conductor*%
%ADD14C,0.254000*%
%TD*%
G04 APERTURE END LIST*
D10*
%TO.N,/GPIO13*%
%TO.C,IO13*%
X100126800Y-95250000D03*
%TD*%
D11*
%TO.N,GND*%
%TO.C,UART1*%
X125949200Y-75735200D03*
X132949200Y-75735200D03*
D12*
X126949200Y-78435200D03*
X131949200Y-78435200D03*
%TD*%
D11*
%TO.N,GND*%
%TO.C,USB1*%
X125420000Y-125697500D03*
X118420000Y-125697500D03*
D12*
X124420000Y-122997500D03*
X119420000Y-122997500D03*
%TD*%
D10*
%TO.N,/DAC1*%
%TO.C,DAC1*%
X100126800Y-100330000D03*
%TD*%
%TO.N,/GPIO46*%
%TO.C,IO46*%
X100126800Y-77470000D03*
%TD*%
%TO.N,/GPIO45*%
%TO.C,IO45*%
X100126800Y-74955400D03*
%TD*%
%TO.N,/GPIO42*%
%TO.C,IO42*%
X139522200Y-74853800D03*
%TD*%
%TO.N,/GPIO41*%
%TO.C,IO41*%
X139522200Y-77470000D03*
%TD*%
%TO.N,/GPIO40*%
%TO.C,IO40*%
X139522200Y-80010000D03*
%TD*%
%TO.N,/GPIO39*%
%TO.C,IO39*%
X139522200Y-82550000D03*
%TD*%
%TO.N,/GPIO38*%
%TO.C,IO38*%
X139496800Y-85090000D03*
%TD*%
%TO.N,/GPIO37*%
%TO.C,IO37*%
X139522200Y-87630000D03*
%TD*%
%TO.N,/GPIO36*%
%TO.C,IO36*%
X139522200Y-90170000D03*
%TD*%
%TO.N,/GPIO35*%
%TO.C,IO35*%
X139522200Y-92710000D03*
%TD*%
%TO.N,/GPIO34*%
%TO.C,IO34*%
X139522200Y-95250000D03*
%TD*%
%TO.N,/GPIO33*%
%TO.C,IO33*%
X139522200Y-97790000D03*
%TD*%
%TO.N,/GPIO21*%
%TO.C,IO21*%
X139522200Y-100431600D03*
%TD*%
%TO.N,/GPIO14*%
%TO.C,IO14*%
X100126800Y-97790000D03*
%TD*%
%TO.N,/GPIO11*%
%TO.C,IO11*%
X100126800Y-92710000D03*
%TD*%
%TO.N,/GPIO10*%
%TO.C,IO10*%
X100126800Y-90170000D03*
%TD*%
%TO.N,/GPIO9*%
%TO.C,IO9*%
X100126800Y-87630000D03*
%TD*%
%TO.N,/GPIO8*%
%TO.C,IO8*%
X100126800Y-85090000D03*
%TD*%
%TO.N,/GPIO7*%
%TO.C,IO7*%
X100126800Y-82550000D03*
%TD*%
%TO.N,/GPIO6*%
%TO.C,IO6*%
X100126800Y-80010000D03*
%TD*%
D13*
%TO.N,/LD0_3P3*%
X110896400Y-93624400D03*
X108686600Y-90043000D03*
%TO.N,/USB_5P0*%
X124815600Y-108864400D03*
X107803751Y-88055649D03*
%TO.N,GND*%
X124783800Y-80811524D03*
X125194449Y-105026849D03*
X128447800Y-105206800D03*
X112598200Y-113284000D03*
X107721400Y-110972600D03*
X128371600Y-108915200D03*
X135204200Y-110947200D03*
X135305800Y-108407200D03*
X130683000Y-101625400D03*
X132892800Y-96215200D03*
X131394200Y-114808000D03*
X134975600Y-114960400D03*
X117271800Y-110439200D03*
X118465600Y-113284000D03*
X110642400Y-108813600D03*
X107579166Y-107604566D03*
X107010200Y-87376000D03*
X109093000Y-89154000D03*
X116636800Y-91821000D03*
X115544600Y-89941400D03*
X123063000Y-91592400D03*
X127914400Y-93446600D03*
X118788560Y-102471370D03*
X114427000Y-100761800D03*
X112039400Y-97685600D03*
X121037400Y-113131600D03*
X125826352Y-108514048D03*
X106070400Y-98526600D03*
X105943400Y-104343200D03*
X126619000Y-107086400D03*
X116967000Y-82778600D03*
X118821200Y-80467200D03*
X132765800Y-99288600D03*
%TO.N,/CP2102_VDD*%
X121793000Y-80949800D03*
X118033800Y-85039200D03*
%TO.N,/MCU_3P3*%
X120726200Y-103479600D03*
X125806200Y-106476800D03*
X110947200Y-95885000D03*
X121843758Y-89304000D03*
X124507183Y-95458455D03*
X129913548Y-91000748D03*
%TO.N,/RST_PROG*%
X112877600Y-110058200D03*
X129311400Y-117779800D03*
X108305600Y-113690400D03*
%TO.N,/USB_DP*%
X122631200Y-105613200D03*
X126657100Y-114795300D03*
%TO.N,/MCU_3P3A*%
X114935000Y-110769400D03*
X110947200Y-98501200D03*
%TO.N,/USB_DM*%
X122738014Y-103576834D03*
X121691400Y-114757200D03*
%TO.N,/MCU_3P3A_FILT*%
X112268000Y-99568000D03*
%TO.N,/GPIO6*%
X113969800Y-101688999D03*
%TO.N,/GPIO7*%
X115417600Y-102485601D03*
%TO.N,/GPIO8*%
X114579590Y-102996999D03*
%TO.N,/GPIO9*%
X113461800Y-103708200D03*
%TO.N,/GPIO10*%
X114300000Y-104362200D03*
%TO.N,/GPIO11*%
X114909600Y-105156000D03*
%TO.N,/GPIO13*%
X115448357Y-105915320D03*
%TO.N,/GPIO14*%
X115874800Y-106807000D03*
%TO.N,/GPIO21*%
X125603000Y-104140000D03*
%TO.N,/GPIO33*%
X123875524Y-100571574D03*
%TO.N,/GPIO34*%
X123869402Y-99644593D03*
%TO.N,/GPIO35*%
X126848110Y-99263711D03*
%TO.N,/GPIO36*%
X126995701Y-98191224D03*
%TO.N,/GPIO37*%
X127457200Y-97409000D03*
%TO.N,/GPIO38*%
X126847600Y-96342200D03*
%TO.N,/GPIO39*%
X126238281Y-95137623D03*
%TO.N,/GPIO40*%
X125425681Y-95583730D03*
%TO.N,/GPIO41*%
X123037600Y-98399600D03*
%TO.N,/GPIO42*%
X121869200Y-98393202D03*
%TO.N,/GPIO45*%
X120523001Y-90220800D03*
%TO.N,/GPIO46*%
X114655600Y-93675200D03*
%TO.N,/DAC1*%
X121777072Y-103504735D03*
%TO.N,/BOOT_PROG*%
X112268000Y-100558600D03*
X111633000Y-111302800D03*
X129235200Y-93065600D03*
X118802198Y-99974400D03*
%TO.N,/SPICS0*%
X124333000Y-107340400D03*
X123944605Y-101988841D03*
%TO.N,/SPICS1*%
X123825000Y-103200200D03*
X123215400Y-89331800D03*
%TO.N,/GPIO4*%
X113360200Y-73761600D03*
X118700642Y-101544898D03*
%TO.N,/UART_TX*%
X122687248Y-93832848D03*
X128134349Y-84817000D03*
%TO.N,/SPID*%
X127876399Y-96397317D03*
X131368800Y-96196100D03*
%TO.N,/SPIQ*%
X136093200Y-96850200D03*
X129184400Y-96494600D03*
%TO.N,/SPIWP*%
X133172200Y-113004600D03*
X131114800Y-104444800D03*
%TO.N,/SPIHD*%
X135057200Y-102692200D03*
X131953000Y-105181400D03*
%TO.N,/UART_RX*%
X127480349Y-82876447D03*
X121666000Y-93929200D03*
%TD*%
D14*
%TO.N,GND*%
G36*
X104843945Y-69253966D02*
G01*
X104490776Y-69400254D01*
X104172933Y-69612630D01*
X103902630Y-69882933D01*
X103690254Y-70200776D01*
X103543966Y-70553945D01*
X103469390Y-70928867D01*
X103469390Y-71311133D01*
X103543966Y-71686055D01*
X103690254Y-72039224D01*
X103902630Y-72357067D01*
X104172933Y-72627370D01*
X104490776Y-72839746D01*
X104843945Y-72986034D01*
X105218867Y-73060610D01*
X105601133Y-73060610D01*
X105976055Y-72986034D01*
X106329224Y-72839746D01*
X106647067Y-72627370D01*
X106917370Y-72357067D01*
X107129746Y-72039224D01*
X107276034Y-71686055D01*
X107350610Y-71311133D01*
X107350610Y-70928867D01*
X107276034Y-70553945D01*
X107129746Y-70200776D01*
X106917370Y-69882933D01*
X106647067Y-69612630D01*
X106329224Y-69400254D01*
X105976055Y-69253966D01*
X105905843Y-69240000D01*
X135394157Y-69240000D01*
X135323945Y-69253966D01*
X134970776Y-69400254D01*
X134652933Y-69612630D01*
X134382630Y-69882933D01*
X134170254Y-70200776D01*
X134023966Y-70553945D01*
X133949390Y-70928867D01*
X133949390Y-71311133D01*
X134023966Y-71686055D01*
X134170254Y-72039224D01*
X134382630Y-72357067D01*
X134652933Y-72627370D01*
X134970776Y-72839746D01*
X135323945Y-72986034D01*
X135698867Y-73060610D01*
X136081133Y-73060610D01*
X136456055Y-72986034D01*
X136809224Y-72839746D01*
X137127067Y-72627370D01*
X137397370Y-72357067D01*
X137609746Y-72039224D01*
X137756034Y-71686055D01*
X137830610Y-71311133D01*
X137830610Y-70928867D01*
X137756034Y-70553945D01*
X137609746Y-70200776D01*
X137397370Y-69882933D01*
X137127067Y-69612630D01*
X136809224Y-69400254D01*
X136456055Y-69253966D01*
X136385843Y-69240000D01*
X137134074Y-69240000D01*
X138049791Y-69312068D01*
X138917678Y-69520430D01*
X139742275Y-69861989D01*
X140503299Y-70328345D01*
X141181994Y-70908006D01*
X141761655Y-71586701D01*
X142228009Y-72347720D01*
X142569570Y-73172322D01*
X142777931Y-74040207D01*
X142850001Y-74955939D01*
X142850000Y-129514074D01*
X142777931Y-130429793D01*
X142569570Y-131297678D01*
X142228009Y-132122280D01*
X141761655Y-132883299D01*
X141181994Y-133561994D01*
X140503299Y-134141655D01*
X139742275Y-134608011D01*
X138917678Y-134949570D01*
X138049791Y-135157932D01*
X137134074Y-135230000D01*
X102895926Y-135230000D01*
X101980207Y-135157931D01*
X101112322Y-134949570D01*
X100287720Y-134608009D01*
X99526701Y-134141655D01*
X98848006Y-133561994D01*
X98268345Y-132883299D01*
X97801989Y-132122275D01*
X97460430Y-131297678D01*
X97297462Y-130618867D01*
X103469390Y-130618867D01*
X103469390Y-131001133D01*
X103543966Y-131376055D01*
X103690254Y-131729224D01*
X103902630Y-132047067D01*
X104172933Y-132317370D01*
X104490776Y-132529746D01*
X104843945Y-132676034D01*
X105218867Y-132750610D01*
X105601133Y-132750610D01*
X105976055Y-132676034D01*
X106329224Y-132529746D01*
X106647067Y-132317370D01*
X106917370Y-132047067D01*
X107129746Y-131729224D01*
X107276034Y-131376055D01*
X107350610Y-131001133D01*
X107350610Y-130618867D01*
X133949390Y-130618867D01*
X133949390Y-131001133D01*
X134023966Y-131376055D01*
X134170254Y-131729224D01*
X134382630Y-132047067D01*
X134652933Y-132317370D01*
X134970776Y-132529746D01*
X135323945Y-132676034D01*
X135698867Y-132750610D01*
X136081133Y-132750610D01*
X136456055Y-132676034D01*
X136809224Y-132529746D01*
X137127067Y-132317370D01*
X137397370Y-132047067D01*
X137609746Y-131729224D01*
X137756034Y-131376055D01*
X137830610Y-131001133D01*
X137830610Y-130618867D01*
X137756034Y-130243945D01*
X137609746Y-129890776D01*
X137397370Y-129572933D01*
X137127067Y-129302630D01*
X136809224Y-129090254D01*
X136456055Y-128943966D01*
X136081133Y-128869390D01*
X135698867Y-128869390D01*
X135323945Y-128943966D01*
X134970776Y-129090254D01*
X134652933Y-129302630D01*
X134382630Y-129572933D01*
X134170254Y-129890776D01*
X134023966Y-130243945D01*
X133949390Y-130618867D01*
X107350610Y-130618867D01*
X107276034Y-130243945D01*
X107129746Y-129890776D01*
X106917370Y-129572933D01*
X106647067Y-129302630D01*
X106329224Y-129090254D01*
X105976055Y-128943966D01*
X105601133Y-128869390D01*
X105218867Y-128869390D01*
X104843945Y-128943966D01*
X104490776Y-129090254D01*
X104172933Y-129302630D01*
X103902630Y-129572933D01*
X103690254Y-129890776D01*
X103543966Y-130243945D01*
X103469390Y-130618867D01*
X97297462Y-130618867D01*
X97252068Y-130429791D01*
X97180000Y-129514074D01*
X97180000Y-125824500D01*
X117185000Y-125824500D01*
X117185000Y-126174500D01*
X117233507Y-126412996D01*
X117327610Y-126637446D01*
X117463693Y-126839225D01*
X117636526Y-127010578D01*
X117839467Y-127144921D01*
X118064718Y-127237091D01*
X118102391Y-127240962D01*
X118293000Y-127116231D01*
X118293000Y-125824500D01*
X118547000Y-125824500D01*
X118547000Y-127116231D01*
X118737609Y-127240962D01*
X118775282Y-127237091D01*
X119000533Y-127144921D01*
X119203474Y-127010578D01*
X119376307Y-126839225D01*
X119512390Y-126637446D01*
X119606493Y-126412996D01*
X119655000Y-126174500D01*
X119655000Y-125824500D01*
X124185000Y-125824500D01*
X124185000Y-126174500D01*
X124233507Y-126412996D01*
X124327610Y-126637446D01*
X124463693Y-126839225D01*
X124636526Y-127010578D01*
X124839467Y-127144921D01*
X125064718Y-127237091D01*
X125102391Y-127240962D01*
X125293000Y-127116231D01*
X125293000Y-125824500D01*
X125547000Y-125824500D01*
X125547000Y-127116231D01*
X125737609Y-127240962D01*
X125775282Y-127237091D01*
X126000533Y-127144921D01*
X126203474Y-127010578D01*
X126376307Y-126839225D01*
X126512390Y-126637446D01*
X126606493Y-126412996D01*
X126655000Y-126174500D01*
X126655000Y-125824500D01*
X125547000Y-125824500D01*
X125293000Y-125824500D01*
X124185000Y-125824500D01*
X119655000Y-125824500D01*
X118547000Y-125824500D01*
X118293000Y-125824500D01*
X117185000Y-125824500D01*
X97180000Y-125824500D01*
X97180000Y-125220500D01*
X117185000Y-125220500D01*
X117185000Y-125570500D01*
X118293000Y-125570500D01*
X118293000Y-124278769D01*
X118547000Y-124278769D01*
X118547000Y-125570500D01*
X119655000Y-125570500D01*
X119655000Y-125220500D01*
X119606493Y-124982004D01*
X119512390Y-124757554D01*
X119376307Y-124555775D01*
X119203474Y-124384422D01*
X119108164Y-124321329D01*
X119225849Y-124350219D01*
X119493482Y-124362104D01*
X119758291Y-124321548D01*
X120010100Y-124230109D01*
X120117035Y-124172950D01*
X120179528Y-123936633D01*
X123660472Y-123936633D01*
X123722965Y-124172950D01*
X123965678Y-124286350D01*
X124225849Y-124350219D01*
X124493482Y-124362104D01*
X124723442Y-124326885D01*
X124636526Y-124384422D01*
X124463693Y-124555775D01*
X124327610Y-124757554D01*
X124233507Y-124982004D01*
X124185000Y-125220500D01*
X124185000Y-125570500D01*
X125293000Y-125570500D01*
X125293000Y-124278769D01*
X125547000Y-124278769D01*
X125547000Y-125570500D01*
X126655000Y-125570500D01*
X126655000Y-125220500D01*
X126606493Y-124982004D01*
X126512390Y-124757554D01*
X126376307Y-124555775D01*
X126203474Y-124384422D01*
X126000533Y-124250079D01*
X125775282Y-124157909D01*
X125737609Y-124154038D01*
X125547000Y-124278769D01*
X125293000Y-124278769D01*
X125119138Y-124164997D01*
X125179528Y-123936633D01*
X124420000Y-123177105D01*
X123660472Y-123936633D01*
X120179528Y-123936633D01*
X119420000Y-123177105D01*
X118660472Y-123936633D01*
X118720862Y-124164997D01*
X118547000Y-124278769D01*
X118293000Y-124278769D01*
X118102391Y-124154038D01*
X118064718Y-124157909D01*
X117839467Y-124250079D01*
X117636526Y-124384422D01*
X117463693Y-124555775D01*
X117327610Y-124757554D01*
X117233507Y-124982004D01*
X117185000Y-125220500D01*
X97180000Y-125220500D01*
X97180000Y-123070982D01*
X118055396Y-123070982D01*
X118095952Y-123335791D01*
X118187391Y-123587600D01*
X118244550Y-123694535D01*
X118480867Y-123757028D01*
X119240395Y-122997500D01*
X119599605Y-122997500D01*
X120359133Y-123757028D01*
X120595450Y-123694535D01*
X120708850Y-123451822D01*
X120772719Y-123191651D01*
X120778077Y-123070982D01*
X123055396Y-123070982D01*
X123095952Y-123335791D01*
X123187391Y-123587600D01*
X123244550Y-123694535D01*
X123480867Y-123757028D01*
X124240395Y-122997500D01*
X124599605Y-122997500D01*
X125359133Y-123757028D01*
X125595450Y-123694535D01*
X125708850Y-123451822D01*
X125772719Y-123191651D01*
X125784604Y-122924018D01*
X125744048Y-122659209D01*
X125652609Y-122407400D01*
X125595450Y-122300465D01*
X125359133Y-122237972D01*
X124599605Y-122997500D01*
X124240395Y-122997500D01*
X123480867Y-122237972D01*
X123244550Y-122300465D01*
X123131150Y-122543178D01*
X123067281Y-122803349D01*
X123055396Y-123070982D01*
X120778077Y-123070982D01*
X120784604Y-122924018D01*
X120744048Y-122659209D01*
X120652609Y-122407400D01*
X120595450Y-122300465D01*
X120359133Y-122237972D01*
X119599605Y-122997500D01*
X119240395Y-122997500D01*
X118480867Y-122237972D01*
X118244550Y-122300465D01*
X118131150Y-122543178D01*
X118067281Y-122803349D01*
X118055396Y-123070982D01*
X97180000Y-123070982D01*
X97180000Y-122058367D01*
X118660472Y-122058367D01*
X119420000Y-122817895D01*
X120179528Y-122058367D01*
X123660472Y-122058367D01*
X124420000Y-122817895D01*
X125179528Y-122058367D01*
X125117035Y-121822050D01*
X124874322Y-121708650D01*
X124614151Y-121644781D01*
X124346518Y-121632896D01*
X124081709Y-121673452D01*
X123829900Y-121764891D01*
X123722965Y-121822050D01*
X123660472Y-122058367D01*
X120179528Y-122058367D01*
X120117035Y-121822050D01*
X119874322Y-121708650D01*
X119614151Y-121644781D01*
X119346518Y-121632896D01*
X119081709Y-121673452D01*
X118829900Y-121764891D01*
X118722965Y-121822050D01*
X118660472Y-122058367D01*
X97180000Y-122058367D01*
X97180000Y-117677861D01*
X128276400Y-117677861D01*
X128276400Y-117881739D01*
X128316174Y-118081698D01*
X128394195Y-118270056D01*
X128507463Y-118439574D01*
X128651626Y-118583737D01*
X128821144Y-118697005D01*
X129009502Y-118775026D01*
X129209461Y-118814800D01*
X129413339Y-118814800D01*
X129613298Y-118775026D01*
X129801656Y-118697005D01*
X129971174Y-118583737D01*
X130115337Y-118439574D01*
X130228605Y-118270056D01*
X130306626Y-118081698D01*
X130346400Y-117881739D01*
X130346400Y-117677861D01*
X130306626Y-117477902D01*
X130228605Y-117289544D01*
X130115337Y-117120026D01*
X129971174Y-116975863D01*
X129801656Y-116862595D01*
X129613298Y-116784574D01*
X129413339Y-116744800D01*
X129209461Y-116744800D01*
X129009502Y-116784574D01*
X128821144Y-116862595D01*
X128651626Y-116975863D01*
X128507463Y-117120026D01*
X128394195Y-117289544D01*
X128316174Y-117477902D01*
X128276400Y-117677861D01*
X97180000Y-117677861D01*
X97180000Y-113588461D01*
X107270600Y-113588461D01*
X107270600Y-113792339D01*
X107310374Y-113992298D01*
X107388395Y-114180656D01*
X107501663Y-114350174D01*
X107645826Y-114494337D01*
X107815344Y-114607605D01*
X108003702Y-114685626D01*
X108203661Y-114725400D01*
X108407539Y-114725400D01*
X108607498Y-114685626D01*
X108680805Y-114655261D01*
X120656400Y-114655261D01*
X120656400Y-114859139D01*
X120696174Y-115059098D01*
X120774195Y-115247456D01*
X120887463Y-115416974D01*
X121031626Y-115561137D01*
X121201144Y-115674405D01*
X121389502Y-115752426D01*
X121589461Y-115792200D01*
X121793339Y-115792200D01*
X121993298Y-115752426D01*
X122181656Y-115674405D01*
X122351174Y-115561137D01*
X122495337Y-115416974D01*
X122608605Y-115247456D01*
X122686626Y-115059098D01*
X122726400Y-114859139D01*
X122726400Y-114693361D01*
X125622100Y-114693361D01*
X125622100Y-114897239D01*
X125661874Y-115097198D01*
X125739895Y-115285556D01*
X125853163Y-115455074D01*
X125997326Y-115599237D01*
X126166844Y-115712505D01*
X126355202Y-115790526D01*
X126555161Y-115830300D01*
X126759039Y-115830300D01*
X126958998Y-115790526D01*
X127147356Y-115712505D01*
X127316874Y-115599237D01*
X127461037Y-115455074D01*
X127574305Y-115285556D01*
X127652326Y-115097198D01*
X127692100Y-114897239D01*
X127692100Y-114693361D01*
X127652326Y-114493402D01*
X127574305Y-114305044D01*
X127461037Y-114135526D01*
X127316874Y-113991363D01*
X127147356Y-113878095D01*
X126958998Y-113800074D01*
X126759039Y-113760300D01*
X126555161Y-113760300D01*
X126355202Y-113800074D01*
X126166844Y-113878095D01*
X125997326Y-113991363D01*
X125853163Y-114135526D01*
X125739895Y-114305044D01*
X125661874Y-114493402D01*
X125622100Y-114693361D01*
X122726400Y-114693361D01*
X122726400Y-114655261D01*
X122686626Y-114455302D01*
X122608605Y-114266944D01*
X122495337Y-114097426D01*
X122351174Y-113953263D01*
X122181656Y-113839995D01*
X121993298Y-113761974D01*
X121793339Y-113722200D01*
X121589461Y-113722200D01*
X121389502Y-113761974D01*
X121201144Y-113839995D01*
X121031626Y-113953263D01*
X120887463Y-114097426D01*
X120774195Y-114266944D01*
X120696174Y-114455302D01*
X120656400Y-114655261D01*
X108680805Y-114655261D01*
X108795856Y-114607605D01*
X108965374Y-114494337D01*
X109109537Y-114350174D01*
X109222805Y-114180656D01*
X109300826Y-113992298D01*
X109340600Y-113792339D01*
X109340600Y-113588461D01*
X109300826Y-113388502D01*
X109222805Y-113200144D01*
X109109537Y-113030626D01*
X108981572Y-112902661D01*
X132137200Y-112902661D01*
X132137200Y-113106539D01*
X132176974Y-113306498D01*
X132254995Y-113494856D01*
X132368263Y-113664374D01*
X132512426Y-113808537D01*
X132681944Y-113921805D01*
X132870302Y-113999826D01*
X133070261Y-114039600D01*
X133274139Y-114039600D01*
X133474098Y-113999826D01*
X133662456Y-113921805D01*
X133831974Y-113808537D01*
X133976137Y-113664374D01*
X134089405Y-113494856D01*
X134167426Y-113306498D01*
X134207200Y-113106539D01*
X134207200Y-112902661D01*
X134167426Y-112702702D01*
X134089405Y-112514344D01*
X133976137Y-112344826D01*
X133831974Y-112200663D01*
X133662456Y-112087395D01*
X133474098Y-112009374D01*
X133274139Y-111969600D01*
X133070261Y-111969600D01*
X132870302Y-112009374D01*
X132681944Y-112087395D01*
X132512426Y-112200663D01*
X132368263Y-112344826D01*
X132254995Y-112514344D01*
X132176974Y-112702702D01*
X132137200Y-112902661D01*
X108981572Y-112902661D01*
X108965374Y-112886463D01*
X108795856Y-112773195D01*
X108607498Y-112695174D01*
X108407539Y-112655400D01*
X108203661Y-112655400D01*
X108003702Y-112695174D01*
X107815344Y-112773195D01*
X107645826Y-112886463D01*
X107501663Y-113030626D01*
X107388395Y-113200144D01*
X107310374Y-113388502D01*
X107270600Y-113588461D01*
X97180000Y-113588461D01*
X97180000Y-111200861D01*
X110598000Y-111200861D01*
X110598000Y-111404739D01*
X110637774Y-111604698D01*
X110715795Y-111793056D01*
X110829063Y-111962574D01*
X110973226Y-112106737D01*
X111142744Y-112220005D01*
X111331102Y-112298026D01*
X111531061Y-112337800D01*
X111734939Y-112337800D01*
X111934898Y-112298026D01*
X112123256Y-112220005D01*
X112292774Y-112106737D01*
X112436937Y-111962574D01*
X112550205Y-111793056D01*
X112628226Y-111604698D01*
X112668000Y-111404739D01*
X112668000Y-111200861D01*
X112641268Y-111066468D01*
X112775661Y-111093200D01*
X112979539Y-111093200D01*
X113179498Y-111053426D01*
X113367856Y-110975405D01*
X113537374Y-110862137D01*
X113681537Y-110717974D01*
X113715288Y-110667461D01*
X113900000Y-110667461D01*
X113900000Y-110871339D01*
X113939774Y-111071298D01*
X114017795Y-111259656D01*
X114131063Y-111429174D01*
X114275226Y-111573337D01*
X114444744Y-111686605D01*
X114633102Y-111764626D01*
X114833061Y-111804400D01*
X115036939Y-111804400D01*
X115236898Y-111764626D01*
X115425256Y-111686605D01*
X115594774Y-111573337D01*
X115738937Y-111429174D01*
X115852205Y-111259656D01*
X115930226Y-111071298D01*
X115970000Y-110871339D01*
X115970000Y-110667461D01*
X115930226Y-110467502D01*
X115852205Y-110279144D01*
X115738937Y-110109626D01*
X115594774Y-109965463D01*
X115425256Y-109852195D01*
X115236898Y-109774174D01*
X115036939Y-109734400D01*
X114833061Y-109734400D01*
X114633102Y-109774174D01*
X114444744Y-109852195D01*
X114275226Y-109965463D01*
X114131063Y-110109626D01*
X114017795Y-110279144D01*
X113939774Y-110467502D01*
X113900000Y-110667461D01*
X113715288Y-110667461D01*
X113794805Y-110548456D01*
X113872826Y-110360098D01*
X113912600Y-110160139D01*
X113912600Y-109956261D01*
X113872826Y-109756302D01*
X113794805Y-109567944D01*
X113681537Y-109398426D01*
X113537374Y-109254263D01*
X113367856Y-109140995D01*
X113179498Y-109062974D01*
X112979539Y-109023200D01*
X112775661Y-109023200D01*
X112575702Y-109062974D01*
X112387344Y-109140995D01*
X112217826Y-109254263D01*
X112073663Y-109398426D01*
X111960395Y-109567944D01*
X111882374Y-109756302D01*
X111842600Y-109956261D01*
X111842600Y-110160139D01*
X111869332Y-110294532D01*
X111734939Y-110267800D01*
X111531061Y-110267800D01*
X111331102Y-110307574D01*
X111142744Y-110385595D01*
X110973226Y-110498863D01*
X110829063Y-110643026D01*
X110715795Y-110812544D01*
X110637774Y-111000902D01*
X110598000Y-111200861D01*
X97180000Y-111200861D01*
X97180000Y-74955926D01*
X97246937Y-74105400D01*
X98638728Y-74105400D01*
X98638728Y-75805400D01*
X98650988Y-75929882D01*
X98687298Y-76049580D01*
X98746263Y-76159894D01*
X98789600Y-76212700D01*
X98746263Y-76265506D01*
X98687298Y-76375820D01*
X98650988Y-76495518D01*
X98638728Y-76620000D01*
X98638728Y-78320000D01*
X98650988Y-78444482D01*
X98687298Y-78564180D01*
X98746263Y-78674494D01*
X98800022Y-78740000D01*
X98746263Y-78805506D01*
X98687298Y-78915820D01*
X98650988Y-79035518D01*
X98638728Y-79160000D01*
X98638728Y-80860000D01*
X98650988Y-80984482D01*
X98687298Y-81104180D01*
X98746263Y-81214494D01*
X98800022Y-81280000D01*
X98746263Y-81345506D01*
X98687298Y-81455820D01*
X98650988Y-81575518D01*
X98638728Y-81700000D01*
X98638728Y-83400000D01*
X98650988Y-83524482D01*
X98687298Y-83644180D01*
X98746263Y-83754494D01*
X98800022Y-83820000D01*
X98746263Y-83885506D01*
X98687298Y-83995820D01*
X98650988Y-84115518D01*
X98638728Y-84240000D01*
X98638728Y-85940000D01*
X98650988Y-86064482D01*
X98687298Y-86184180D01*
X98746263Y-86294494D01*
X98800022Y-86360000D01*
X98746263Y-86425506D01*
X98687298Y-86535820D01*
X98650988Y-86655518D01*
X98638728Y-86780000D01*
X98638728Y-88480000D01*
X98650988Y-88604482D01*
X98687298Y-88724180D01*
X98746263Y-88834494D01*
X98800022Y-88900000D01*
X98746263Y-88965506D01*
X98687298Y-89075820D01*
X98650988Y-89195518D01*
X98638728Y-89320000D01*
X98638728Y-91020000D01*
X98650988Y-91144482D01*
X98687298Y-91264180D01*
X98746263Y-91374494D01*
X98800022Y-91440000D01*
X98746263Y-91505506D01*
X98687298Y-91615820D01*
X98650988Y-91735518D01*
X98638728Y-91860000D01*
X98638728Y-93560000D01*
X98650988Y-93684482D01*
X98687298Y-93804180D01*
X98746263Y-93914494D01*
X98800022Y-93980000D01*
X98746263Y-94045506D01*
X98687298Y-94155820D01*
X98650988Y-94275518D01*
X98638728Y-94400000D01*
X98638728Y-96100000D01*
X98650988Y-96224482D01*
X98687298Y-96344180D01*
X98746263Y-96454494D01*
X98800022Y-96520000D01*
X98746263Y-96585506D01*
X98687298Y-96695820D01*
X98650988Y-96815518D01*
X98638728Y-96940000D01*
X98638728Y-98640000D01*
X98650988Y-98764482D01*
X98687298Y-98884180D01*
X98746263Y-98994494D01*
X98800022Y-99060000D01*
X98746263Y-99125506D01*
X98687298Y-99235820D01*
X98650988Y-99355518D01*
X98638728Y-99480000D01*
X98638728Y-101180000D01*
X98650988Y-101304482D01*
X98687298Y-101424180D01*
X98746263Y-101534494D01*
X98825615Y-101631185D01*
X98922306Y-101710537D01*
X99032620Y-101769502D01*
X99152318Y-101805812D01*
X99276800Y-101818072D01*
X100976800Y-101818072D01*
X101101282Y-101805812D01*
X101220980Y-101769502D01*
X101331294Y-101710537D01*
X101427985Y-101631185D01*
X101507337Y-101534494D01*
X101566302Y-101424180D01*
X101602612Y-101304482D01*
X101614872Y-101180000D01*
X101614872Y-99480000D01*
X101602612Y-99355518D01*
X101566302Y-99235820D01*
X101507337Y-99125506D01*
X101453578Y-99060000D01*
X101507337Y-98994494D01*
X101566302Y-98884180D01*
X101602612Y-98764482D01*
X101614872Y-98640000D01*
X101614872Y-98399261D01*
X109912200Y-98399261D01*
X109912200Y-98603139D01*
X109951974Y-98803098D01*
X110029995Y-98991456D01*
X110143263Y-99160974D01*
X110287426Y-99305137D01*
X110456944Y-99418405D01*
X110645302Y-99496426D01*
X110845261Y-99536200D01*
X111049139Y-99536200D01*
X111233000Y-99499628D01*
X111233000Y-99669939D01*
X111272774Y-99869898D01*
X111350795Y-100058256D01*
X111354165Y-100063300D01*
X111350795Y-100068344D01*
X111272774Y-100256702D01*
X111233000Y-100456661D01*
X111233000Y-100660539D01*
X111272774Y-100860498D01*
X111350795Y-101048856D01*
X111464063Y-101218374D01*
X111608226Y-101362537D01*
X111777744Y-101475805D01*
X111966102Y-101553826D01*
X112166061Y-101593600D01*
X112369939Y-101593600D01*
X112569898Y-101553826D01*
X112758256Y-101475805D01*
X112927774Y-101362537D01*
X113025037Y-101265274D01*
X112974574Y-101387101D01*
X112934800Y-101587060D01*
X112934800Y-101790938D01*
X112974574Y-101990897D01*
X113052595Y-102179255D01*
X113165863Y-102348773D01*
X113310026Y-102492936D01*
X113479544Y-102606204D01*
X113600443Y-102656282D01*
X113591175Y-102678657D01*
X113563739Y-102673200D01*
X113359861Y-102673200D01*
X113159902Y-102712974D01*
X112971544Y-102790995D01*
X112802026Y-102904263D01*
X112657863Y-103048426D01*
X112544595Y-103217944D01*
X112466574Y-103406302D01*
X112426800Y-103606261D01*
X112426800Y-103810139D01*
X112466574Y-104010098D01*
X112544595Y-104198456D01*
X112657863Y-104367974D01*
X112802026Y-104512137D01*
X112971544Y-104625405D01*
X113159902Y-104703426D01*
X113335535Y-104738361D01*
X113382795Y-104852456D01*
X113496063Y-105021974D01*
X113640226Y-105166137D01*
X113809744Y-105279405D01*
X113885077Y-105310609D01*
X113914374Y-105457898D01*
X113992395Y-105646256D01*
X114105663Y-105815774D01*
X114249826Y-105959937D01*
X114419344Y-106073205D01*
X114424947Y-106075526D01*
X114453131Y-106217218D01*
X114531152Y-106405576D01*
X114644420Y-106575094D01*
X114788583Y-106719257D01*
X114839800Y-106753479D01*
X114839800Y-106908939D01*
X114879574Y-107108898D01*
X114957595Y-107297256D01*
X115070863Y-107466774D01*
X115215026Y-107610937D01*
X115384544Y-107724205D01*
X115572902Y-107802226D01*
X115772861Y-107842000D01*
X115976739Y-107842000D01*
X116176698Y-107802226D01*
X116365056Y-107724205D01*
X116534574Y-107610937D01*
X116678737Y-107466774D01*
X116792005Y-107297256D01*
X116816358Y-107238461D01*
X123298000Y-107238461D01*
X123298000Y-107442339D01*
X123337774Y-107642298D01*
X123415795Y-107830656D01*
X123529063Y-108000174D01*
X123673226Y-108144337D01*
X123842744Y-108257605D01*
X123947320Y-108300922D01*
X123898395Y-108374144D01*
X123820374Y-108562502D01*
X123780600Y-108762461D01*
X123780600Y-108966339D01*
X123820374Y-109166298D01*
X123898395Y-109354656D01*
X124011663Y-109524174D01*
X124155826Y-109668337D01*
X124325344Y-109781605D01*
X124513702Y-109859626D01*
X124713661Y-109899400D01*
X124917539Y-109899400D01*
X125117498Y-109859626D01*
X125305856Y-109781605D01*
X125475374Y-109668337D01*
X125619537Y-109524174D01*
X125732805Y-109354656D01*
X125810826Y-109166298D01*
X125850600Y-108966339D01*
X125850600Y-108762461D01*
X125810826Y-108562502D01*
X125732805Y-108374144D01*
X125619537Y-108204626D01*
X125475374Y-108060463D01*
X125305856Y-107947195D01*
X125201280Y-107903878D01*
X125250205Y-107830656D01*
X125328226Y-107642298D01*
X125368000Y-107442339D01*
X125368000Y-107415567D01*
X125504302Y-107472026D01*
X125704261Y-107511800D01*
X125908139Y-107511800D01*
X126108098Y-107472026D01*
X126296456Y-107394005D01*
X126465974Y-107280737D01*
X126610137Y-107136574D01*
X126723405Y-106967056D01*
X126801426Y-106778698D01*
X126841200Y-106578739D01*
X126841200Y-106374861D01*
X126801426Y-106174902D01*
X126723405Y-105986544D01*
X126610137Y-105817026D01*
X126465974Y-105672863D01*
X126296456Y-105559595D01*
X126108098Y-105481574D01*
X125908139Y-105441800D01*
X125704261Y-105441800D01*
X125504302Y-105481574D01*
X125315944Y-105559595D01*
X125146426Y-105672863D01*
X125002263Y-105817026D01*
X124888995Y-105986544D01*
X124810974Y-106174902D01*
X124771200Y-106374861D01*
X124771200Y-106401633D01*
X124634898Y-106345174D01*
X124434939Y-106305400D01*
X124231061Y-106305400D01*
X124031102Y-106345174D01*
X123842744Y-106423195D01*
X123673226Y-106536463D01*
X123529063Y-106680626D01*
X123415795Y-106850144D01*
X123337774Y-107038502D01*
X123298000Y-107238461D01*
X116816358Y-107238461D01*
X116870026Y-107108898D01*
X116909800Y-106908939D01*
X116909800Y-106705061D01*
X116870026Y-106505102D01*
X116792005Y-106316744D01*
X116678737Y-106147226D01*
X116534574Y-106003063D01*
X116483357Y-105968841D01*
X116483357Y-105813381D01*
X116443583Y-105613422D01*
X116365562Y-105425064D01*
X116252294Y-105255546D01*
X116108131Y-105111383D01*
X115938613Y-104998115D01*
X115933010Y-104995794D01*
X115904826Y-104854102D01*
X115826805Y-104665744D01*
X115713537Y-104496226D01*
X115569374Y-104352063D01*
X115399856Y-104238795D01*
X115324523Y-104207591D01*
X115295226Y-104060302D01*
X115217205Y-103871944D01*
X115191243Y-103833089D01*
X115239364Y-103800936D01*
X115383527Y-103656773D01*
X115474514Y-103520601D01*
X115519539Y-103520601D01*
X115719498Y-103480827D01*
X115907856Y-103402806D01*
X115945488Y-103377661D01*
X119691200Y-103377661D01*
X119691200Y-103581539D01*
X119730974Y-103781498D01*
X119808995Y-103969856D01*
X119922263Y-104139374D01*
X120066426Y-104283537D01*
X120235944Y-104396805D01*
X120424302Y-104474826D01*
X120624261Y-104514600D01*
X120828139Y-104514600D01*
X121028098Y-104474826D01*
X121216456Y-104396805D01*
X121232827Y-104385866D01*
X121286816Y-104421940D01*
X121475174Y-104499961D01*
X121675133Y-104539735D01*
X121879011Y-104539735D01*
X122078970Y-104499961D01*
X122188636Y-104454535D01*
X122247758Y-104494039D01*
X122436116Y-104572060D01*
X122498123Y-104584394D01*
X122329302Y-104617974D01*
X122140944Y-104695995D01*
X121971426Y-104809263D01*
X121827263Y-104953426D01*
X121713995Y-105122944D01*
X121635974Y-105311302D01*
X121596200Y-105511261D01*
X121596200Y-105715139D01*
X121635974Y-105915098D01*
X121713995Y-106103456D01*
X121827263Y-106272974D01*
X121971426Y-106417137D01*
X122140944Y-106530405D01*
X122329302Y-106608426D01*
X122529261Y-106648200D01*
X122733139Y-106648200D01*
X122933098Y-106608426D01*
X123121456Y-106530405D01*
X123290974Y-106417137D01*
X123435137Y-106272974D01*
X123548405Y-106103456D01*
X123626426Y-105915098D01*
X123666200Y-105715139D01*
X123666200Y-105511261D01*
X123626426Y-105311302D01*
X123548405Y-105122944D01*
X123435137Y-104953426D01*
X123290974Y-104809263D01*
X123121456Y-104695995D01*
X122933098Y-104617974D01*
X122871091Y-104605640D01*
X123039912Y-104572060D01*
X123228270Y-104494039D01*
X123397788Y-104380771D01*
X123541951Y-104236608D01*
X123564028Y-104203567D01*
X123723061Y-104235200D01*
X123926939Y-104235200D01*
X124126898Y-104195426D01*
X124315256Y-104117405D01*
X124484774Y-104004137D01*
X124597088Y-103891823D01*
X124568000Y-104038061D01*
X124568000Y-104241939D01*
X124607774Y-104441898D01*
X124685795Y-104630256D01*
X124799063Y-104799774D01*
X124943226Y-104943937D01*
X125112744Y-105057205D01*
X125301102Y-105135226D01*
X125501061Y-105175000D01*
X125704939Y-105175000D01*
X125904898Y-105135226D01*
X126093256Y-105057205D01*
X126262774Y-104943937D01*
X126406937Y-104799774D01*
X126520205Y-104630256D01*
X126598226Y-104441898D01*
X126617925Y-104342861D01*
X130079800Y-104342861D01*
X130079800Y-104546739D01*
X130119574Y-104746698D01*
X130197595Y-104935056D01*
X130310863Y-105104574D01*
X130455026Y-105248737D01*
X130624544Y-105362005D01*
X130812902Y-105440026D01*
X130954780Y-105468247D01*
X130957774Y-105483298D01*
X131035795Y-105671656D01*
X131149063Y-105841174D01*
X131293226Y-105985337D01*
X131462744Y-106098605D01*
X131651102Y-106176626D01*
X131851061Y-106216400D01*
X132054939Y-106216400D01*
X132254898Y-106176626D01*
X132443256Y-106098605D01*
X132612774Y-105985337D01*
X132756937Y-105841174D01*
X132870205Y-105671656D01*
X132948226Y-105483298D01*
X132988000Y-105283339D01*
X132988000Y-105079461D01*
X132948226Y-104879502D01*
X132870205Y-104691144D01*
X132756937Y-104521626D01*
X132612774Y-104377463D01*
X132443256Y-104264195D01*
X132254898Y-104186174D01*
X132113020Y-104157953D01*
X132110026Y-104142902D01*
X132032005Y-103954544D01*
X131918737Y-103785026D01*
X131774574Y-103640863D01*
X131605056Y-103527595D01*
X131416698Y-103449574D01*
X131216739Y-103409800D01*
X131012861Y-103409800D01*
X130812902Y-103449574D01*
X130624544Y-103527595D01*
X130455026Y-103640863D01*
X130310863Y-103785026D01*
X130197595Y-103954544D01*
X130119574Y-104142902D01*
X130079800Y-104342861D01*
X126617925Y-104342861D01*
X126638000Y-104241939D01*
X126638000Y-104038061D01*
X126598226Y-103838102D01*
X126520205Y-103649744D01*
X126406937Y-103480226D01*
X126262774Y-103336063D01*
X126093256Y-103222795D01*
X125904898Y-103144774D01*
X125704939Y-103105000D01*
X125501061Y-103105000D01*
X125301102Y-103144774D01*
X125112744Y-103222795D01*
X124943226Y-103336063D01*
X124830912Y-103448377D01*
X124860000Y-103302139D01*
X124860000Y-103098261D01*
X124820226Y-102898302D01*
X124742205Y-102709944D01*
X124720178Y-102676979D01*
X124748542Y-102648615D01*
X124787532Y-102590261D01*
X134022200Y-102590261D01*
X134022200Y-102794139D01*
X134061974Y-102994098D01*
X134139995Y-103182456D01*
X134253263Y-103351974D01*
X134397426Y-103496137D01*
X134566944Y-103609405D01*
X134755302Y-103687426D01*
X134955261Y-103727200D01*
X135159139Y-103727200D01*
X135359098Y-103687426D01*
X135547456Y-103609405D01*
X135716974Y-103496137D01*
X135861137Y-103351974D01*
X135974405Y-103182456D01*
X136052426Y-102994098D01*
X136092200Y-102794139D01*
X136092200Y-102590261D01*
X136052426Y-102390302D01*
X135974405Y-102201944D01*
X135861137Y-102032426D01*
X135716974Y-101888263D01*
X135547456Y-101774995D01*
X135359098Y-101696974D01*
X135159139Y-101657200D01*
X134955261Y-101657200D01*
X134755302Y-101696974D01*
X134566944Y-101774995D01*
X134397426Y-101888263D01*
X134253263Y-102032426D01*
X134139995Y-102201944D01*
X134061974Y-102390302D01*
X134022200Y-102590261D01*
X124787532Y-102590261D01*
X124861810Y-102479097D01*
X124939831Y-102290739D01*
X124979605Y-102090780D01*
X124979605Y-101886902D01*
X124939831Y-101686943D01*
X124861810Y-101498585D01*
X124748542Y-101329067D01*
X124665142Y-101245667D01*
X124679461Y-101231348D01*
X124792729Y-101061830D01*
X124870750Y-100873472D01*
X124910524Y-100673513D01*
X124910524Y-100469635D01*
X124870750Y-100269676D01*
X124800755Y-100100694D01*
X124864628Y-99946491D01*
X124904402Y-99746532D01*
X124904402Y-99542654D01*
X124864628Y-99342695D01*
X124786607Y-99154337D01*
X124673339Y-98984819D01*
X124529176Y-98840656D01*
X124359658Y-98727388D01*
X124171300Y-98649367D01*
X124048071Y-98624855D01*
X124072600Y-98501539D01*
X124072600Y-98297661D01*
X124032826Y-98097702D01*
X123954805Y-97909344D01*
X123841537Y-97739826D01*
X123697374Y-97595663D01*
X123527856Y-97482395D01*
X123339498Y-97404374D01*
X123139539Y-97364600D01*
X122935661Y-97364600D01*
X122735702Y-97404374D01*
X122547344Y-97482395D01*
X122458188Y-97541967D01*
X122359456Y-97475997D01*
X122171098Y-97397976D01*
X121971139Y-97358202D01*
X121767261Y-97358202D01*
X121567302Y-97397976D01*
X121378944Y-97475997D01*
X121209426Y-97589265D01*
X121065263Y-97733428D01*
X120951995Y-97902946D01*
X120873974Y-98091304D01*
X120834200Y-98291263D01*
X120834200Y-98495141D01*
X120873974Y-98695100D01*
X120951995Y-98883458D01*
X121065263Y-99052976D01*
X121209426Y-99197139D01*
X121378944Y-99310407D01*
X121567302Y-99388428D01*
X121767261Y-99428202D01*
X121971139Y-99428202D01*
X122171098Y-99388428D01*
X122359456Y-99310407D01*
X122448612Y-99250835D01*
X122547344Y-99316805D01*
X122735702Y-99394826D01*
X122858931Y-99419338D01*
X122834402Y-99542654D01*
X122834402Y-99746532D01*
X122874176Y-99946491D01*
X122944171Y-100115473D01*
X122880298Y-100269676D01*
X122840524Y-100469635D01*
X122840524Y-100673513D01*
X122880298Y-100873472D01*
X122958319Y-101061830D01*
X123071587Y-101231348D01*
X123154987Y-101314748D01*
X123140668Y-101329067D01*
X123027400Y-101498585D01*
X122949379Y-101686943D01*
X122909605Y-101886902D01*
X122909605Y-102090780D01*
X122949379Y-102290739D01*
X123027400Y-102479097D01*
X123049427Y-102512062D01*
X123021063Y-102540426D01*
X122998986Y-102573467D01*
X122839953Y-102541834D01*
X122636075Y-102541834D01*
X122436116Y-102581608D01*
X122326450Y-102627034D01*
X122267328Y-102587530D01*
X122078970Y-102509509D01*
X121879011Y-102469735D01*
X121675133Y-102469735D01*
X121475174Y-102509509D01*
X121286816Y-102587530D01*
X121270445Y-102598469D01*
X121216456Y-102562395D01*
X121028098Y-102484374D01*
X120828139Y-102444600D01*
X120624261Y-102444600D01*
X120424302Y-102484374D01*
X120235944Y-102562395D01*
X120066426Y-102675663D01*
X119922263Y-102819826D01*
X119808995Y-102989344D01*
X119730974Y-103177702D01*
X119691200Y-103377661D01*
X115945488Y-103377661D01*
X116077374Y-103289538D01*
X116221537Y-103145375D01*
X116334805Y-102975857D01*
X116412826Y-102787499D01*
X116452600Y-102587540D01*
X116452600Y-102383662D01*
X116412826Y-102183703D01*
X116334805Y-101995345D01*
X116221537Y-101825827D01*
X116077374Y-101681664D01*
X115907856Y-101568396D01*
X115719498Y-101490375D01*
X115519539Y-101450601D01*
X115315661Y-101450601D01*
X115115702Y-101490375D01*
X114995474Y-101540175D01*
X114976137Y-101442959D01*
X117665642Y-101442959D01*
X117665642Y-101646837D01*
X117705416Y-101846796D01*
X117783437Y-102035154D01*
X117896705Y-102204672D01*
X118040868Y-102348835D01*
X118210386Y-102462103D01*
X118398744Y-102540124D01*
X118598703Y-102579898D01*
X118802581Y-102579898D01*
X119002540Y-102540124D01*
X119190898Y-102462103D01*
X119360416Y-102348835D01*
X119504579Y-102204672D01*
X119617847Y-102035154D01*
X119695868Y-101846796D01*
X119735642Y-101646837D01*
X119735642Y-101442959D01*
X119695868Y-101243000D01*
X119617847Y-101054642D01*
X119504579Y-100885124D01*
X119423499Y-100804044D01*
X119461972Y-100778337D01*
X119606135Y-100634174D01*
X119719403Y-100464656D01*
X119797424Y-100276298D01*
X119837198Y-100076339D01*
X119837198Y-99872461D01*
X119797424Y-99672502D01*
X119719403Y-99484144D01*
X119606135Y-99314626D01*
X119461972Y-99170463D01*
X119292454Y-99057195D01*
X119104096Y-98979174D01*
X118904137Y-98939400D01*
X118700259Y-98939400D01*
X118500300Y-98979174D01*
X118311942Y-99057195D01*
X118142424Y-99170463D01*
X117998261Y-99314626D01*
X117884993Y-99484144D01*
X117806972Y-99672502D01*
X117767198Y-99872461D01*
X117767198Y-100076339D01*
X117806972Y-100276298D01*
X117884993Y-100464656D01*
X117998261Y-100634174D01*
X118079341Y-100715254D01*
X118040868Y-100740961D01*
X117896705Y-100885124D01*
X117783437Y-101054642D01*
X117705416Y-101243000D01*
X117665642Y-101442959D01*
X114976137Y-101442959D01*
X114965026Y-101387101D01*
X114887005Y-101198743D01*
X114773737Y-101029225D01*
X114629574Y-100885062D01*
X114460056Y-100771794D01*
X114271698Y-100693773D01*
X114071739Y-100653999D01*
X113867861Y-100653999D01*
X113667902Y-100693773D01*
X113479544Y-100771794D01*
X113310026Y-100885062D01*
X113212763Y-100982325D01*
X113263226Y-100860498D01*
X113303000Y-100660539D01*
X113303000Y-100456661D01*
X113263226Y-100256702D01*
X113185205Y-100068344D01*
X113181835Y-100063300D01*
X113185205Y-100058256D01*
X113263226Y-99869898D01*
X113303000Y-99669939D01*
X113303000Y-99466061D01*
X113263226Y-99266102D01*
X113185205Y-99077744D01*
X113071937Y-98908226D01*
X112927774Y-98764063D01*
X112758256Y-98650795D01*
X112569898Y-98572774D01*
X112369939Y-98533000D01*
X112166061Y-98533000D01*
X111982200Y-98569572D01*
X111982200Y-98399261D01*
X111942426Y-98199302D01*
X111864405Y-98010944D01*
X111751137Y-97841426D01*
X111606974Y-97697263D01*
X111437456Y-97583995D01*
X111249098Y-97505974D01*
X111049139Y-97466200D01*
X110845261Y-97466200D01*
X110645302Y-97505974D01*
X110456944Y-97583995D01*
X110287426Y-97697263D01*
X110143263Y-97841426D01*
X110029995Y-98010944D01*
X109951974Y-98199302D01*
X109912200Y-98399261D01*
X101614872Y-98399261D01*
X101614872Y-96940000D01*
X101602612Y-96815518D01*
X101566302Y-96695820D01*
X101507337Y-96585506D01*
X101453578Y-96520000D01*
X101507337Y-96454494D01*
X101566302Y-96344180D01*
X101602612Y-96224482D01*
X101614872Y-96100000D01*
X101614872Y-95783061D01*
X109912200Y-95783061D01*
X109912200Y-95986939D01*
X109951974Y-96186898D01*
X110029995Y-96375256D01*
X110143263Y-96544774D01*
X110287426Y-96688937D01*
X110456944Y-96802205D01*
X110645302Y-96880226D01*
X110845261Y-96920000D01*
X111049139Y-96920000D01*
X111249098Y-96880226D01*
X111437456Y-96802205D01*
X111606974Y-96688937D01*
X111751137Y-96544774D01*
X111864405Y-96375256D01*
X111942426Y-96186898D01*
X111982200Y-95986939D01*
X111982200Y-95783061D01*
X111942426Y-95583102D01*
X111864405Y-95394744D01*
X111838862Y-95356516D01*
X123472183Y-95356516D01*
X123472183Y-95560394D01*
X123511957Y-95760353D01*
X123589978Y-95948711D01*
X123703246Y-96118229D01*
X123847409Y-96262392D01*
X124016927Y-96375660D01*
X124205285Y-96453681D01*
X124405244Y-96493455D01*
X124609122Y-96493455D01*
X124809081Y-96453681D01*
X124843418Y-96439458D01*
X124935425Y-96500935D01*
X125123783Y-96578956D01*
X125323742Y-96618730D01*
X125527620Y-96618730D01*
X125727579Y-96578956D01*
X125830903Y-96536157D01*
X125852374Y-96644098D01*
X125930395Y-96832456D01*
X126043663Y-97001974D01*
X126187826Y-97146137D01*
X126357344Y-97259405D01*
X126426021Y-97287852D01*
X126422200Y-97307061D01*
X126422200Y-97329641D01*
X126335927Y-97387287D01*
X126191764Y-97531450D01*
X126078496Y-97700968D01*
X126000475Y-97889326D01*
X125960701Y-98089285D01*
X125960701Y-98293163D01*
X126000475Y-98493122D01*
X126045731Y-98602379D01*
X126044173Y-98603937D01*
X125930905Y-98773455D01*
X125852884Y-98961813D01*
X125813110Y-99161772D01*
X125813110Y-99365650D01*
X125852884Y-99565609D01*
X125930905Y-99753967D01*
X126044173Y-99923485D01*
X126188336Y-100067648D01*
X126357854Y-100180916D01*
X126546212Y-100258937D01*
X126746171Y-100298711D01*
X126950049Y-100298711D01*
X127150008Y-100258937D01*
X127338366Y-100180916D01*
X127507884Y-100067648D01*
X127652047Y-99923485D01*
X127765315Y-99753967D01*
X127843336Y-99565609D01*
X127883110Y-99365650D01*
X127883110Y-99161772D01*
X127843336Y-98961813D01*
X127798080Y-98852556D01*
X127799638Y-98850998D01*
X127912906Y-98681480D01*
X127990927Y-98493122D01*
X128030701Y-98293163D01*
X128030701Y-98270583D01*
X128116974Y-98212937D01*
X128261137Y-98068774D01*
X128374405Y-97899256D01*
X128452426Y-97710898D01*
X128492200Y-97510939D01*
X128492200Y-97307061D01*
X128482032Y-97255943D01*
X128524626Y-97298537D01*
X128694144Y-97411805D01*
X128882502Y-97489826D01*
X129082461Y-97529600D01*
X129286339Y-97529600D01*
X129486298Y-97489826D01*
X129674656Y-97411805D01*
X129844174Y-97298537D01*
X129988337Y-97154374D01*
X130101605Y-96984856D01*
X130179626Y-96796498D01*
X130219400Y-96596539D01*
X130219400Y-96392661D01*
X130179626Y-96192702D01*
X130138809Y-96094161D01*
X130333800Y-96094161D01*
X130333800Y-96298039D01*
X130373574Y-96497998D01*
X130451595Y-96686356D01*
X130564863Y-96855874D01*
X130709026Y-97000037D01*
X130878544Y-97113305D01*
X131066902Y-97191326D01*
X131266861Y-97231100D01*
X131470739Y-97231100D01*
X131670698Y-97191326D01*
X131859056Y-97113305D01*
X132028574Y-97000037D01*
X132172737Y-96855874D01*
X132244641Y-96748261D01*
X135058200Y-96748261D01*
X135058200Y-96952139D01*
X135097974Y-97152098D01*
X135175995Y-97340456D01*
X135289263Y-97509974D01*
X135433426Y-97654137D01*
X135602944Y-97767405D01*
X135791302Y-97845426D01*
X135991261Y-97885200D01*
X136195139Y-97885200D01*
X136395098Y-97845426D01*
X136583456Y-97767405D01*
X136752974Y-97654137D01*
X136897137Y-97509974D01*
X137010405Y-97340456D01*
X137088426Y-97152098D01*
X137128200Y-96952139D01*
X137128200Y-96748261D01*
X137088426Y-96548302D01*
X137010405Y-96359944D01*
X136897137Y-96190426D01*
X136752974Y-96046263D01*
X136583456Y-95932995D01*
X136395098Y-95854974D01*
X136195139Y-95815200D01*
X135991261Y-95815200D01*
X135791302Y-95854974D01*
X135602944Y-95932995D01*
X135433426Y-96046263D01*
X135289263Y-96190426D01*
X135175995Y-96359944D01*
X135097974Y-96548302D01*
X135058200Y-96748261D01*
X132244641Y-96748261D01*
X132286005Y-96686356D01*
X132364026Y-96497998D01*
X132403800Y-96298039D01*
X132403800Y-96094161D01*
X132364026Y-95894202D01*
X132286005Y-95705844D01*
X132172737Y-95536326D01*
X132028574Y-95392163D01*
X131859056Y-95278895D01*
X131670698Y-95200874D01*
X131470739Y-95161100D01*
X131266861Y-95161100D01*
X131066902Y-95200874D01*
X130878544Y-95278895D01*
X130709026Y-95392163D01*
X130564863Y-95536326D01*
X130451595Y-95705844D01*
X130373574Y-95894202D01*
X130333800Y-96094161D01*
X130138809Y-96094161D01*
X130101605Y-96004344D01*
X129988337Y-95834826D01*
X129844174Y-95690663D01*
X129674656Y-95577395D01*
X129486298Y-95499374D01*
X129286339Y-95459600D01*
X129082461Y-95459600D01*
X128882502Y-95499374D01*
X128694144Y-95577395D01*
X128589865Y-95647072D01*
X128536173Y-95593380D01*
X128366655Y-95480112D01*
X128178297Y-95402091D01*
X127978338Y-95362317D01*
X127774460Y-95362317D01*
X127574501Y-95402091D01*
X127407256Y-95471367D01*
X127337856Y-95424995D01*
X127244120Y-95386168D01*
X127273281Y-95239562D01*
X127273281Y-95035684D01*
X127233507Y-94835725D01*
X127155486Y-94647367D01*
X127042218Y-94477849D01*
X126898055Y-94333686D01*
X126728537Y-94220418D01*
X126540179Y-94142397D01*
X126340220Y-94102623D01*
X126136342Y-94102623D01*
X125936383Y-94142397D01*
X125748025Y-94220418D01*
X125578507Y-94333686D01*
X125434344Y-94477849D01*
X125386983Y-94548730D01*
X125323742Y-94548730D01*
X125123783Y-94588504D01*
X125089446Y-94602727D01*
X124997439Y-94541250D01*
X124809081Y-94463229D01*
X124609122Y-94423455D01*
X124405244Y-94423455D01*
X124205285Y-94463229D01*
X124016927Y-94541250D01*
X123847409Y-94654518D01*
X123703246Y-94798681D01*
X123589978Y-94968199D01*
X123511957Y-95156557D01*
X123472183Y-95356516D01*
X111838862Y-95356516D01*
X111751137Y-95225226D01*
X111606974Y-95081063D01*
X111437456Y-94967795D01*
X111249098Y-94889774D01*
X111049139Y-94850000D01*
X110845261Y-94850000D01*
X110645302Y-94889774D01*
X110456944Y-94967795D01*
X110287426Y-95081063D01*
X110143263Y-95225226D01*
X110029995Y-95394744D01*
X109951974Y-95583102D01*
X109912200Y-95783061D01*
X101614872Y-95783061D01*
X101614872Y-94400000D01*
X101602612Y-94275518D01*
X101566302Y-94155820D01*
X101507337Y-94045506D01*
X101453578Y-93980000D01*
X101507337Y-93914494D01*
X101566302Y-93804180D01*
X101602612Y-93684482D01*
X101614872Y-93560000D01*
X101614872Y-93522461D01*
X109861400Y-93522461D01*
X109861400Y-93726339D01*
X109901174Y-93926298D01*
X109979195Y-94114656D01*
X110092463Y-94284174D01*
X110236626Y-94428337D01*
X110406144Y-94541605D01*
X110594502Y-94619626D01*
X110794461Y-94659400D01*
X110998339Y-94659400D01*
X111198298Y-94619626D01*
X111386656Y-94541605D01*
X111556174Y-94428337D01*
X111700337Y-94284174D01*
X111813605Y-94114656D01*
X111891626Y-93926298D01*
X111931400Y-93726339D01*
X111931400Y-93573261D01*
X113620600Y-93573261D01*
X113620600Y-93777139D01*
X113660374Y-93977098D01*
X113738395Y-94165456D01*
X113851663Y-94334974D01*
X113995826Y-94479137D01*
X114165344Y-94592405D01*
X114353702Y-94670426D01*
X114553661Y-94710200D01*
X114757539Y-94710200D01*
X114957498Y-94670426D01*
X115145856Y-94592405D01*
X115315374Y-94479137D01*
X115459537Y-94334974D01*
X115572805Y-94165456D01*
X115650826Y-93977098D01*
X115680630Y-93827261D01*
X120631000Y-93827261D01*
X120631000Y-94031139D01*
X120670774Y-94231098D01*
X120748795Y-94419456D01*
X120862063Y-94588974D01*
X121006226Y-94733137D01*
X121175744Y-94846405D01*
X121364102Y-94924426D01*
X121564061Y-94964200D01*
X121767939Y-94964200D01*
X121967898Y-94924426D01*
X122156256Y-94846405D01*
X122260863Y-94776509D01*
X122385350Y-94828074D01*
X122585309Y-94867848D01*
X122789187Y-94867848D01*
X122989146Y-94828074D01*
X123177504Y-94750053D01*
X123347022Y-94636785D01*
X123491185Y-94492622D01*
X123604453Y-94323104D01*
X123682474Y-94134746D01*
X123722248Y-93934787D01*
X123722248Y-93730909D01*
X123682474Y-93530950D01*
X123604453Y-93342592D01*
X123491185Y-93173074D01*
X123347022Y-93028911D01*
X123249369Y-92963661D01*
X128200200Y-92963661D01*
X128200200Y-93167539D01*
X128239974Y-93367498D01*
X128317995Y-93555856D01*
X128431263Y-93725374D01*
X128575426Y-93869537D01*
X128744944Y-93982805D01*
X128933302Y-94060826D01*
X129133261Y-94100600D01*
X129337139Y-94100600D01*
X129537098Y-94060826D01*
X129725456Y-93982805D01*
X129894974Y-93869537D01*
X130039137Y-93725374D01*
X130152405Y-93555856D01*
X130230426Y-93367498D01*
X130270200Y-93167539D01*
X130270200Y-92963661D01*
X130230426Y-92763702D01*
X130152405Y-92575344D01*
X130039137Y-92405826D01*
X129894974Y-92261663D01*
X129725456Y-92148395D01*
X129537098Y-92070374D01*
X129337139Y-92030600D01*
X129133261Y-92030600D01*
X128933302Y-92070374D01*
X128744944Y-92148395D01*
X128575426Y-92261663D01*
X128431263Y-92405826D01*
X128317995Y-92575344D01*
X128239974Y-92763702D01*
X128200200Y-92963661D01*
X123249369Y-92963661D01*
X123177504Y-92915643D01*
X122989146Y-92837622D01*
X122789187Y-92797848D01*
X122585309Y-92797848D01*
X122385350Y-92837622D01*
X122196992Y-92915643D01*
X122092385Y-92985539D01*
X121967898Y-92933974D01*
X121767939Y-92894200D01*
X121564061Y-92894200D01*
X121364102Y-92933974D01*
X121175744Y-93011995D01*
X121006226Y-93125263D01*
X120862063Y-93269426D01*
X120748795Y-93438944D01*
X120670774Y-93627302D01*
X120631000Y-93827261D01*
X115680630Y-93827261D01*
X115690600Y-93777139D01*
X115690600Y-93573261D01*
X115650826Y-93373302D01*
X115572805Y-93184944D01*
X115459537Y-93015426D01*
X115315374Y-92871263D01*
X115145856Y-92757995D01*
X114957498Y-92679974D01*
X114757539Y-92640200D01*
X114553661Y-92640200D01*
X114353702Y-92679974D01*
X114165344Y-92757995D01*
X113995826Y-92871263D01*
X113851663Y-93015426D01*
X113738395Y-93184944D01*
X113660374Y-93373302D01*
X113620600Y-93573261D01*
X111931400Y-93573261D01*
X111931400Y-93522461D01*
X111891626Y-93322502D01*
X111813605Y-93134144D01*
X111700337Y-92964626D01*
X111556174Y-92820463D01*
X111386656Y-92707195D01*
X111198298Y-92629174D01*
X110998339Y-92589400D01*
X110794461Y-92589400D01*
X110594502Y-92629174D01*
X110406144Y-92707195D01*
X110236626Y-92820463D01*
X110092463Y-92964626D01*
X109979195Y-93134144D01*
X109901174Y-93322502D01*
X109861400Y-93522461D01*
X101614872Y-93522461D01*
X101614872Y-91860000D01*
X101602612Y-91735518D01*
X101566302Y-91615820D01*
X101507337Y-91505506D01*
X101453578Y-91440000D01*
X101507337Y-91374494D01*
X101566302Y-91264180D01*
X101602612Y-91144482D01*
X101614872Y-91020000D01*
X101614872Y-89941061D01*
X107651600Y-89941061D01*
X107651600Y-90144939D01*
X107691374Y-90344898D01*
X107769395Y-90533256D01*
X107882663Y-90702774D01*
X108026826Y-90846937D01*
X108196344Y-90960205D01*
X108384702Y-91038226D01*
X108584661Y-91078000D01*
X108788539Y-91078000D01*
X108988498Y-91038226D01*
X109176856Y-90960205D01*
X109346374Y-90846937D01*
X109490537Y-90702774D01*
X109603805Y-90533256D01*
X109681826Y-90344898D01*
X109721600Y-90144939D01*
X109721600Y-90118861D01*
X119488001Y-90118861D01*
X119488001Y-90322739D01*
X119527775Y-90522698D01*
X119605796Y-90711056D01*
X119719064Y-90880574D01*
X119863227Y-91024737D01*
X120032745Y-91138005D01*
X120221103Y-91216026D01*
X120421062Y-91255800D01*
X120624940Y-91255800D01*
X120824899Y-91216026D01*
X121013257Y-91138005D01*
X121182775Y-91024737D01*
X121308703Y-90898809D01*
X128878548Y-90898809D01*
X128878548Y-91102687D01*
X128918322Y-91302646D01*
X128996343Y-91491004D01*
X129109611Y-91660522D01*
X129253774Y-91804685D01*
X129423292Y-91917953D01*
X129611650Y-91995974D01*
X129811609Y-92035748D01*
X130015487Y-92035748D01*
X130215446Y-91995974D01*
X130403804Y-91917953D01*
X130573322Y-91804685D01*
X130717485Y-91660522D01*
X130830753Y-91491004D01*
X130908774Y-91302646D01*
X130948548Y-91102687D01*
X130948548Y-90898809D01*
X130908774Y-90698850D01*
X130830753Y-90510492D01*
X130717485Y-90340974D01*
X130573322Y-90196811D01*
X130403804Y-90083543D01*
X130215446Y-90005522D01*
X130015487Y-89965748D01*
X129811609Y-89965748D01*
X129611650Y-90005522D01*
X129423292Y-90083543D01*
X129253774Y-90196811D01*
X129109611Y-90340974D01*
X128996343Y-90510492D01*
X128918322Y-90698850D01*
X128878548Y-90898809D01*
X121308703Y-90898809D01*
X121326938Y-90880574D01*
X121440206Y-90711056D01*
X121518227Y-90522698D01*
X121558001Y-90322739D01*
X121558001Y-90302437D01*
X121741819Y-90339000D01*
X121945697Y-90339000D01*
X122145656Y-90299226D01*
X122334014Y-90221205D01*
X122503532Y-90107937D01*
X122515679Y-90095790D01*
X122555626Y-90135737D01*
X122725144Y-90249005D01*
X122913502Y-90327026D01*
X123113461Y-90366800D01*
X123317339Y-90366800D01*
X123517298Y-90327026D01*
X123705656Y-90249005D01*
X123875174Y-90135737D01*
X124019337Y-89991574D01*
X124132605Y-89822056D01*
X124210626Y-89633698D01*
X124250400Y-89433739D01*
X124250400Y-89229861D01*
X124210626Y-89029902D01*
X124132605Y-88841544D01*
X124019337Y-88672026D01*
X123875174Y-88527863D01*
X123705656Y-88414595D01*
X123517298Y-88336574D01*
X123317339Y-88296800D01*
X123113461Y-88296800D01*
X122913502Y-88336574D01*
X122725144Y-88414595D01*
X122555626Y-88527863D01*
X122543479Y-88540010D01*
X122503532Y-88500063D01*
X122334014Y-88386795D01*
X122145656Y-88308774D01*
X121945697Y-88269000D01*
X121741819Y-88269000D01*
X121541860Y-88308774D01*
X121353502Y-88386795D01*
X121183984Y-88500063D01*
X121039821Y-88644226D01*
X120926553Y-88813744D01*
X120848532Y-89002102D01*
X120808758Y-89202061D01*
X120808758Y-89222363D01*
X120624940Y-89185800D01*
X120421062Y-89185800D01*
X120221103Y-89225574D01*
X120032745Y-89303595D01*
X119863227Y-89416863D01*
X119719064Y-89561026D01*
X119605796Y-89730544D01*
X119527775Y-89918902D01*
X119488001Y-90118861D01*
X109721600Y-90118861D01*
X109721600Y-89941061D01*
X109681826Y-89741102D01*
X109603805Y-89552744D01*
X109490537Y-89383226D01*
X109346374Y-89239063D01*
X109176856Y-89125795D01*
X108988498Y-89047774D01*
X108788539Y-89008000D01*
X108584661Y-89008000D01*
X108384702Y-89047774D01*
X108196344Y-89125795D01*
X108026826Y-89239063D01*
X107882663Y-89383226D01*
X107769395Y-89552744D01*
X107691374Y-89741102D01*
X107651600Y-89941061D01*
X101614872Y-89941061D01*
X101614872Y-89320000D01*
X101602612Y-89195518D01*
X101566302Y-89075820D01*
X101507337Y-88965506D01*
X101453578Y-88900000D01*
X101507337Y-88834494D01*
X101566302Y-88724180D01*
X101602612Y-88604482D01*
X101614872Y-88480000D01*
X101614872Y-87953710D01*
X106768751Y-87953710D01*
X106768751Y-88157588D01*
X106808525Y-88357547D01*
X106886546Y-88545905D01*
X106999814Y-88715423D01*
X107143977Y-88859586D01*
X107313495Y-88972854D01*
X107501853Y-89050875D01*
X107701812Y-89090649D01*
X107905690Y-89090649D01*
X108105649Y-89050875D01*
X108294007Y-88972854D01*
X108463525Y-88859586D01*
X108607688Y-88715423D01*
X108720956Y-88545905D01*
X108798977Y-88357547D01*
X108838751Y-88157588D01*
X108838751Y-87953710D01*
X108798977Y-87753751D01*
X108720956Y-87565393D01*
X108607688Y-87395875D01*
X108463525Y-87251712D01*
X108294007Y-87138444D01*
X108105649Y-87060423D01*
X107905690Y-87020649D01*
X107701812Y-87020649D01*
X107501853Y-87060423D01*
X107313495Y-87138444D01*
X107143977Y-87251712D01*
X106999814Y-87395875D01*
X106886546Y-87565393D01*
X106808525Y-87753751D01*
X106768751Y-87953710D01*
X101614872Y-87953710D01*
X101614872Y-86780000D01*
X101602612Y-86655518D01*
X101566302Y-86535820D01*
X101507337Y-86425506D01*
X101453578Y-86360000D01*
X101507337Y-86294494D01*
X101566302Y-86184180D01*
X101602612Y-86064482D01*
X101614872Y-85940000D01*
X101614872Y-84937261D01*
X116998800Y-84937261D01*
X116998800Y-85141139D01*
X117038574Y-85341098D01*
X117116595Y-85529456D01*
X117229863Y-85698974D01*
X117374026Y-85843137D01*
X117543544Y-85956405D01*
X117731902Y-86034426D01*
X117931861Y-86074200D01*
X118135739Y-86074200D01*
X118335698Y-86034426D01*
X118524056Y-85956405D01*
X118693574Y-85843137D01*
X118837737Y-85698974D01*
X118951005Y-85529456D01*
X119029026Y-85341098D01*
X119068800Y-85141139D01*
X119068800Y-84937261D01*
X119029026Y-84737302D01*
X118951005Y-84548944D01*
X118837737Y-84379426D01*
X118693574Y-84235263D01*
X118524056Y-84121995D01*
X118335698Y-84043974D01*
X118135739Y-84004200D01*
X117931861Y-84004200D01*
X117731902Y-84043974D01*
X117543544Y-84121995D01*
X117374026Y-84235263D01*
X117229863Y-84379426D01*
X117116595Y-84548944D01*
X117038574Y-84737302D01*
X116998800Y-84937261D01*
X101614872Y-84937261D01*
X101614872Y-84240000D01*
X101602612Y-84115518D01*
X101566302Y-83995820D01*
X101507337Y-83885506D01*
X101453578Y-83820000D01*
X101507337Y-83754494D01*
X101566302Y-83644180D01*
X101602612Y-83524482D01*
X101614872Y-83400000D01*
X101614872Y-82774508D01*
X126445349Y-82774508D01*
X126445349Y-82978386D01*
X126485123Y-83178345D01*
X126563144Y-83366703D01*
X126676412Y-83536221D01*
X126820575Y-83680384D01*
X126990093Y-83793652D01*
X127178451Y-83871673D01*
X127378410Y-83911447D01*
X127582288Y-83911447D01*
X127647073Y-83898561D01*
X127644093Y-83899795D01*
X127474575Y-84013063D01*
X127330412Y-84157226D01*
X127217144Y-84326744D01*
X127139123Y-84515102D01*
X127099349Y-84715061D01*
X127099349Y-84918939D01*
X127139123Y-85118898D01*
X127217144Y-85307256D01*
X127330412Y-85476774D01*
X127474575Y-85620937D01*
X127644093Y-85734205D01*
X127832451Y-85812226D01*
X128032410Y-85852000D01*
X128236288Y-85852000D01*
X128436247Y-85812226D01*
X128624605Y-85734205D01*
X128794123Y-85620937D01*
X128938286Y-85476774D01*
X129051554Y-85307256D01*
X129129575Y-85118898D01*
X129169349Y-84918939D01*
X129169349Y-84715061D01*
X129129575Y-84515102D01*
X129051554Y-84326744D01*
X128993594Y-84240000D01*
X138008728Y-84240000D01*
X138008728Y-85940000D01*
X138020988Y-86064482D01*
X138057298Y-86184180D01*
X138116263Y-86294494D01*
X138182722Y-86375475D01*
X138141663Y-86425506D01*
X138082698Y-86535820D01*
X138046388Y-86655518D01*
X138034128Y-86780000D01*
X138034128Y-88480000D01*
X138046388Y-88604482D01*
X138082698Y-88724180D01*
X138141663Y-88834494D01*
X138195422Y-88900000D01*
X138141663Y-88965506D01*
X138082698Y-89075820D01*
X138046388Y-89195518D01*
X138034128Y-89320000D01*
X138034128Y-91020000D01*
X138046388Y-91144482D01*
X138082698Y-91264180D01*
X138141663Y-91374494D01*
X138195422Y-91440000D01*
X138141663Y-91505506D01*
X138082698Y-91615820D01*
X138046388Y-91735518D01*
X138034128Y-91860000D01*
X138034128Y-93560000D01*
X138046388Y-93684482D01*
X138082698Y-93804180D01*
X138141663Y-93914494D01*
X138195422Y-93980000D01*
X138141663Y-94045506D01*
X138082698Y-94155820D01*
X138046388Y-94275518D01*
X138034128Y-94400000D01*
X138034128Y-96100000D01*
X138046388Y-96224482D01*
X138082698Y-96344180D01*
X138141663Y-96454494D01*
X138195422Y-96520000D01*
X138141663Y-96585506D01*
X138082698Y-96695820D01*
X138046388Y-96815518D01*
X138034128Y-96940000D01*
X138034128Y-98640000D01*
X138046388Y-98764482D01*
X138082698Y-98884180D01*
X138141663Y-98994494D01*
X138221015Y-99091185D01*
X138244916Y-99110800D01*
X138221015Y-99130415D01*
X138141663Y-99227106D01*
X138082698Y-99337420D01*
X138046388Y-99457118D01*
X138034128Y-99581600D01*
X138034128Y-101281600D01*
X138046388Y-101406082D01*
X138082698Y-101525780D01*
X138141663Y-101636094D01*
X138221015Y-101732785D01*
X138317706Y-101812137D01*
X138428020Y-101871102D01*
X138547718Y-101907412D01*
X138672200Y-101919672D01*
X140372200Y-101919672D01*
X140496682Y-101907412D01*
X140616380Y-101871102D01*
X140726694Y-101812137D01*
X140823385Y-101732785D01*
X140902737Y-101636094D01*
X140961702Y-101525780D01*
X140998012Y-101406082D01*
X141010272Y-101281600D01*
X141010272Y-99581600D01*
X140998012Y-99457118D01*
X140961702Y-99337420D01*
X140902737Y-99227106D01*
X140823385Y-99130415D01*
X140799484Y-99110800D01*
X140823385Y-99091185D01*
X140902737Y-98994494D01*
X140961702Y-98884180D01*
X140998012Y-98764482D01*
X141010272Y-98640000D01*
X141010272Y-96940000D01*
X140998012Y-96815518D01*
X140961702Y-96695820D01*
X140902737Y-96585506D01*
X140848978Y-96520000D01*
X140902737Y-96454494D01*
X140961702Y-96344180D01*
X140998012Y-96224482D01*
X141010272Y-96100000D01*
X141010272Y-94400000D01*
X140998012Y-94275518D01*
X140961702Y-94155820D01*
X140902737Y-94045506D01*
X140848978Y-93980000D01*
X140902737Y-93914494D01*
X140961702Y-93804180D01*
X140998012Y-93684482D01*
X141010272Y-93560000D01*
X141010272Y-91860000D01*
X140998012Y-91735518D01*
X140961702Y-91615820D01*
X140902737Y-91505506D01*
X140848978Y-91440000D01*
X140902737Y-91374494D01*
X140961702Y-91264180D01*
X140998012Y-91144482D01*
X141010272Y-91020000D01*
X141010272Y-89320000D01*
X140998012Y-89195518D01*
X140961702Y-89075820D01*
X140902737Y-88965506D01*
X140848978Y-88900000D01*
X140902737Y-88834494D01*
X140961702Y-88724180D01*
X140998012Y-88604482D01*
X141010272Y-88480000D01*
X141010272Y-86780000D01*
X140998012Y-86655518D01*
X140961702Y-86535820D01*
X140902737Y-86425506D01*
X140836278Y-86344525D01*
X140877337Y-86294494D01*
X140936302Y-86184180D01*
X140972612Y-86064482D01*
X140984872Y-85940000D01*
X140984872Y-84240000D01*
X140972612Y-84115518D01*
X140936302Y-83995820D01*
X140877337Y-83885506D01*
X140836278Y-83835475D01*
X140902737Y-83754494D01*
X140961702Y-83644180D01*
X140998012Y-83524482D01*
X141010272Y-83400000D01*
X141010272Y-81700000D01*
X140998012Y-81575518D01*
X140961702Y-81455820D01*
X140902737Y-81345506D01*
X140848978Y-81280000D01*
X140902737Y-81214494D01*
X140961702Y-81104180D01*
X140998012Y-80984482D01*
X141010272Y-80860000D01*
X141010272Y-79160000D01*
X140998012Y-79035518D01*
X140961702Y-78915820D01*
X140902737Y-78805506D01*
X140848978Y-78740000D01*
X140902737Y-78674494D01*
X140961702Y-78564180D01*
X140998012Y-78444482D01*
X141010272Y-78320000D01*
X141010272Y-76620000D01*
X140998012Y-76495518D01*
X140961702Y-76375820D01*
X140902737Y-76265506D01*
X140823385Y-76168815D01*
X140814959Y-76161900D01*
X140823385Y-76154985D01*
X140902737Y-76058294D01*
X140961702Y-75947980D01*
X140998012Y-75828282D01*
X141010272Y-75703800D01*
X141010272Y-74003800D01*
X140998012Y-73879318D01*
X140961702Y-73759620D01*
X140902737Y-73649306D01*
X140823385Y-73552615D01*
X140726694Y-73473263D01*
X140616380Y-73414298D01*
X140496682Y-73377988D01*
X140372200Y-73365728D01*
X138672200Y-73365728D01*
X138547718Y-73377988D01*
X138428020Y-73414298D01*
X138317706Y-73473263D01*
X138221015Y-73552615D01*
X138141663Y-73649306D01*
X138082698Y-73759620D01*
X138046388Y-73879318D01*
X138034128Y-74003800D01*
X138034128Y-75703800D01*
X138046388Y-75828282D01*
X138082698Y-75947980D01*
X138141663Y-76058294D01*
X138221015Y-76154985D01*
X138229441Y-76161900D01*
X138221015Y-76168815D01*
X138141663Y-76265506D01*
X138082698Y-76375820D01*
X138046388Y-76495518D01*
X138034128Y-76620000D01*
X138034128Y-78320000D01*
X138046388Y-78444482D01*
X138082698Y-78564180D01*
X138141663Y-78674494D01*
X138195422Y-78740000D01*
X138141663Y-78805506D01*
X138082698Y-78915820D01*
X138046388Y-79035518D01*
X138034128Y-79160000D01*
X138034128Y-80860000D01*
X138046388Y-80984482D01*
X138082698Y-81104180D01*
X138141663Y-81214494D01*
X138195422Y-81280000D01*
X138141663Y-81345506D01*
X138082698Y-81455820D01*
X138046388Y-81575518D01*
X138034128Y-81700000D01*
X138034128Y-83400000D01*
X138046388Y-83524482D01*
X138082698Y-83644180D01*
X138141663Y-83754494D01*
X138182722Y-83804525D01*
X138116263Y-83885506D01*
X138057298Y-83995820D01*
X138020988Y-84115518D01*
X138008728Y-84240000D01*
X128993594Y-84240000D01*
X128938286Y-84157226D01*
X128794123Y-84013063D01*
X128624605Y-83899795D01*
X128436247Y-83821774D01*
X128236288Y-83782000D01*
X128032410Y-83782000D01*
X127967625Y-83794886D01*
X127970605Y-83793652D01*
X128140123Y-83680384D01*
X128284286Y-83536221D01*
X128397554Y-83366703D01*
X128475575Y-83178345D01*
X128515349Y-82978386D01*
X128515349Y-82774508D01*
X128475575Y-82574549D01*
X128397554Y-82386191D01*
X128284286Y-82216673D01*
X128140123Y-82072510D01*
X127970605Y-81959242D01*
X127782247Y-81881221D01*
X127582288Y-81841447D01*
X127378410Y-81841447D01*
X127178451Y-81881221D01*
X126990093Y-81959242D01*
X126820575Y-82072510D01*
X126676412Y-82216673D01*
X126563144Y-82386191D01*
X126485123Y-82574549D01*
X126445349Y-82774508D01*
X101614872Y-82774508D01*
X101614872Y-81700000D01*
X101602612Y-81575518D01*
X101566302Y-81455820D01*
X101507337Y-81345506D01*
X101453578Y-81280000D01*
X101507337Y-81214494D01*
X101566302Y-81104180D01*
X101602612Y-80984482D01*
X101614872Y-80860000D01*
X101614872Y-80847861D01*
X120758000Y-80847861D01*
X120758000Y-81051739D01*
X120797774Y-81251698D01*
X120875795Y-81440056D01*
X120989063Y-81609574D01*
X121133226Y-81753737D01*
X121302744Y-81867005D01*
X121491102Y-81945026D01*
X121691061Y-81984800D01*
X121894939Y-81984800D01*
X122094898Y-81945026D01*
X122283256Y-81867005D01*
X122452774Y-81753737D01*
X122596937Y-81609574D01*
X122710205Y-81440056D01*
X122788226Y-81251698D01*
X122828000Y-81051739D01*
X122828000Y-80847861D01*
X122788226Y-80647902D01*
X122710205Y-80459544D01*
X122596937Y-80290026D01*
X122452774Y-80145863D01*
X122283256Y-80032595D01*
X122094898Y-79954574D01*
X121894939Y-79914800D01*
X121691061Y-79914800D01*
X121491102Y-79954574D01*
X121302744Y-80032595D01*
X121133226Y-80145863D01*
X120989063Y-80290026D01*
X120875795Y-80459544D01*
X120797774Y-80647902D01*
X120758000Y-80847861D01*
X101614872Y-80847861D01*
X101614872Y-79374333D01*
X126189672Y-79374333D01*
X126252165Y-79610650D01*
X126494878Y-79724050D01*
X126755049Y-79787919D01*
X127022682Y-79799804D01*
X127287491Y-79759248D01*
X127539300Y-79667809D01*
X127646235Y-79610650D01*
X127708728Y-79374333D01*
X131189672Y-79374333D01*
X131252165Y-79610650D01*
X131494878Y-79724050D01*
X131755049Y-79787919D01*
X132022682Y-79799804D01*
X132287491Y-79759248D01*
X132539300Y-79667809D01*
X132646235Y-79610650D01*
X132708728Y-79374333D01*
X131949200Y-78614805D01*
X131189672Y-79374333D01*
X127708728Y-79374333D01*
X126949200Y-78614805D01*
X126189672Y-79374333D01*
X101614872Y-79374333D01*
X101614872Y-79160000D01*
X101602612Y-79035518D01*
X101566302Y-78915820D01*
X101507337Y-78805506D01*
X101453578Y-78740000D01*
X101507337Y-78674494D01*
X101566302Y-78564180D01*
X101583137Y-78508682D01*
X125584596Y-78508682D01*
X125625152Y-78773491D01*
X125716591Y-79025300D01*
X125773750Y-79132235D01*
X126010067Y-79194728D01*
X126769595Y-78435200D01*
X127128805Y-78435200D01*
X127888333Y-79194728D01*
X128124650Y-79132235D01*
X128238050Y-78889522D01*
X128301919Y-78629351D01*
X128307277Y-78508682D01*
X130584596Y-78508682D01*
X130625152Y-78773491D01*
X130716591Y-79025300D01*
X130773750Y-79132235D01*
X131010067Y-79194728D01*
X131769595Y-78435200D01*
X132128805Y-78435200D01*
X132888333Y-79194728D01*
X133124650Y-79132235D01*
X133238050Y-78889522D01*
X133301919Y-78629351D01*
X133313804Y-78361718D01*
X133273248Y-78096909D01*
X133181809Y-77845100D01*
X133124650Y-77738165D01*
X132888333Y-77675672D01*
X132128805Y-78435200D01*
X131769595Y-78435200D01*
X131010067Y-77675672D01*
X130773750Y-77738165D01*
X130660350Y-77980878D01*
X130596481Y-78241049D01*
X130584596Y-78508682D01*
X128307277Y-78508682D01*
X128313804Y-78361718D01*
X128273248Y-78096909D01*
X128181809Y-77845100D01*
X128124650Y-77738165D01*
X127888333Y-77675672D01*
X127128805Y-78435200D01*
X126769595Y-78435200D01*
X126010067Y-77675672D01*
X125773750Y-77738165D01*
X125660350Y-77980878D01*
X125596481Y-78241049D01*
X125584596Y-78508682D01*
X101583137Y-78508682D01*
X101602612Y-78444482D01*
X101614872Y-78320000D01*
X101614872Y-76620000D01*
X101602612Y-76495518D01*
X101566302Y-76375820D01*
X101507337Y-76265506D01*
X101464000Y-76212700D01*
X101507337Y-76159894D01*
X101566302Y-76049580D01*
X101602612Y-75929882D01*
X101609277Y-75862200D01*
X124714200Y-75862200D01*
X124714200Y-76212200D01*
X124762707Y-76450696D01*
X124856810Y-76675146D01*
X124992893Y-76876925D01*
X125165726Y-77048278D01*
X125368667Y-77182621D01*
X125593918Y-77274791D01*
X125631591Y-77278662D01*
X125822200Y-77153931D01*
X125822200Y-75862200D01*
X126076200Y-75862200D01*
X126076200Y-77153931D01*
X126250062Y-77267703D01*
X126189672Y-77496067D01*
X126949200Y-78255595D01*
X127708728Y-77496067D01*
X131189672Y-77496067D01*
X131949200Y-78255595D01*
X132708728Y-77496067D01*
X132648338Y-77267703D01*
X132822200Y-77153931D01*
X132822200Y-75862200D01*
X133076200Y-75862200D01*
X133076200Y-77153931D01*
X133266809Y-77278662D01*
X133304482Y-77274791D01*
X133529733Y-77182621D01*
X133732674Y-77048278D01*
X133905507Y-76876925D01*
X134041590Y-76675146D01*
X134135693Y-76450696D01*
X134184200Y-76212200D01*
X134184200Y-75862200D01*
X133076200Y-75862200D01*
X132822200Y-75862200D01*
X131714200Y-75862200D01*
X131714200Y-76212200D01*
X131762707Y-76450696D01*
X131856810Y-76675146D01*
X131992893Y-76876925D01*
X132165726Y-77048278D01*
X132261036Y-77111371D01*
X132143351Y-77082481D01*
X131875718Y-77070596D01*
X131610909Y-77111152D01*
X131359100Y-77202591D01*
X131252165Y-77259750D01*
X131189672Y-77496067D01*
X127708728Y-77496067D01*
X127646235Y-77259750D01*
X127403522Y-77146350D01*
X127143351Y-77082481D01*
X126875718Y-77070596D01*
X126645758Y-77105815D01*
X126732674Y-77048278D01*
X126905507Y-76876925D01*
X127041590Y-76675146D01*
X127135693Y-76450696D01*
X127184200Y-76212200D01*
X127184200Y-75862200D01*
X126076200Y-75862200D01*
X125822200Y-75862200D01*
X124714200Y-75862200D01*
X101609277Y-75862200D01*
X101614872Y-75805400D01*
X101614872Y-75258200D01*
X124714200Y-75258200D01*
X124714200Y-75608200D01*
X125822200Y-75608200D01*
X125822200Y-74316469D01*
X126076200Y-74316469D01*
X126076200Y-75608200D01*
X127184200Y-75608200D01*
X127184200Y-75258200D01*
X131714200Y-75258200D01*
X131714200Y-75608200D01*
X132822200Y-75608200D01*
X132822200Y-74316469D01*
X133076200Y-74316469D01*
X133076200Y-75608200D01*
X134184200Y-75608200D01*
X134184200Y-75258200D01*
X134135693Y-75019704D01*
X134041590Y-74795254D01*
X133905507Y-74593475D01*
X133732674Y-74422122D01*
X133529733Y-74287779D01*
X133304482Y-74195609D01*
X133266809Y-74191738D01*
X133076200Y-74316469D01*
X132822200Y-74316469D01*
X132631591Y-74191738D01*
X132593918Y-74195609D01*
X132368667Y-74287779D01*
X132165726Y-74422122D01*
X131992893Y-74593475D01*
X131856810Y-74795254D01*
X131762707Y-75019704D01*
X131714200Y-75258200D01*
X127184200Y-75258200D01*
X127135693Y-75019704D01*
X127041590Y-74795254D01*
X126905507Y-74593475D01*
X126732674Y-74422122D01*
X126529733Y-74287779D01*
X126304482Y-74195609D01*
X126266809Y-74191738D01*
X126076200Y-74316469D01*
X125822200Y-74316469D01*
X125631591Y-74191738D01*
X125593918Y-74195609D01*
X125368667Y-74287779D01*
X125165726Y-74422122D01*
X124992893Y-74593475D01*
X124856810Y-74795254D01*
X124762707Y-75019704D01*
X124714200Y-75258200D01*
X101614872Y-75258200D01*
X101614872Y-74105400D01*
X101602612Y-73980918D01*
X101566302Y-73861220D01*
X101507337Y-73750906D01*
X101432455Y-73659661D01*
X112325200Y-73659661D01*
X112325200Y-73863539D01*
X112364974Y-74063498D01*
X112442995Y-74251856D01*
X112556263Y-74421374D01*
X112700426Y-74565537D01*
X112869944Y-74678805D01*
X113058302Y-74756826D01*
X113258261Y-74796600D01*
X113462139Y-74796600D01*
X113662098Y-74756826D01*
X113850456Y-74678805D01*
X114019974Y-74565537D01*
X114164137Y-74421374D01*
X114277405Y-74251856D01*
X114355426Y-74063498D01*
X114395200Y-73863539D01*
X114395200Y-73659661D01*
X114355426Y-73459702D01*
X114277405Y-73271344D01*
X114164137Y-73101826D01*
X114019974Y-72957663D01*
X113850456Y-72844395D01*
X113662098Y-72766374D01*
X113462139Y-72726600D01*
X113258261Y-72726600D01*
X113058302Y-72766374D01*
X112869944Y-72844395D01*
X112700426Y-72957663D01*
X112556263Y-73101826D01*
X112442995Y-73271344D01*
X112364974Y-73459702D01*
X112325200Y-73659661D01*
X101432455Y-73659661D01*
X101427985Y-73654215D01*
X101331294Y-73574863D01*
X101220980Y-73515898D01*
X101101282Y-73479588D01*
X100976800Y-73467328D01*
X99276800Y-73467328D01*
X99152318Y-73479588D01*
X99032620Y-73515898D01*
X98922306Y-73574863D01*
X98825615Y-73654215D01*
X98746263Y-73750906D01*
X98687298Y-73861220D01*
X98650988Y-73980918D01*
X98638728Y-74105400D01*
X97246937Y-74105400D01*
X97252068Y-74040209D01*
X97460430Y-73172322D01*
X97801989Y-72347725D01*
X98268345Y-71586701D01*
X98848006Y-70908006D01*
X99526701Y-70328345D01*
X100287720Y-69861991D01*
X101112322Y-69520430D01*
X101980207Y-69312069D01*
X102895926Y-69240000D01*
X104914157Y-69240000D01*
X104843945Y-69253966D01*
G37*
X104843945Y-69253966D02*
X104490776Y-69400254D01*
X104172933Y-69612630D01*
X103902630Y-69882933D01*
X103690254Y-70200776D01*
X103543966Y-70553945D01*
X103469390Y-70928867D01*
X103469390Y-71311133D01*
X103543966Y-71686055D01*
X103690254Y-72039224D01*
X103902630Y-72357067D01*
X104172933Y-72627370D01*
X104490776Y-72839746D01*
X104843945Y-72986034D01*
X105218867Y-73060610D01*
X105601133Y-73060610D01*
X105976055Y-72986034D01*
X106329224Y-72839746D01*
X106647067Y-72627370D01*
X106917370Y-72357067D01*
X107129746Y-72039224D01*
X107276034Y-71686055D01*
X107350610Y-71311133D01*
X107350610Y-70928867D01*
X107276034Y-70553945D01*
X107129746Y-70200776D01*
X106917370Y-69882933D01*
X106647067Y-69612630D01*
X106329224Y-69400254D01*
X105976055Y-69253966D01*
X105905843Y-69240000D01*
X135394157Y-69240000D01*
X135323945Y-69253966D01*
X134970776Y-69400254D01*
X134652933Y-69612630D01*
X134382630Y-69882933D01*
X134170254Y-70200776D01*
X134023966Y-70553945D01*
X133949390Y-70928867D01*
X133949390Y-71311133D01*
X134023966Y-71686055D01*
X134170254Y-72039224D01*
X134382630Y-72357067D01*
X134652933Y-72627370D01*
X134970776Y-72839746D01*
X135323945Y-72986034D01*
X135698867Y-73060610D01*
X136081133Y-73060610D01*
X136456055Y-72986034D01*
X136809224Y-72839746D01*
X137127067Y-72627370D01*
X137397370Y-72357067D01*
X137609746Y-72039224D01*
X137756034Y-71686055D01*
X137830610Y-71311133D01*
X137830610Y-70928867D01*
X137756034Y-70553945D01*
X137609746Y-70200776D01*
X137397370Y-69882933D01*
X137127067Y-69612630D01*
X136809224Y-69400254D01*
X136456055Y-69253966D01*
X136385843Y-69240000D01*
X137134074Y-69240000D01*
X138049791Y-69312068D01*
X138917678Y-69520430D01*
X139742275Y-69861989D01*
X140503299Y-70328345D01*
X141181994Y-70908006D01*
X141761655Y-71586701D01*
X142228009Y-72347720D01*
X142569570Y-73172322D01*
X142777931Y-74040207D01*
X142850001Y-74955939D01*
X142850000Y-129514074D01*
X142777931Y-130429793D01*
X142569570Y-131297678D01*
X142228009Y-132122280D01*
X141761655Y-132883299D01*
X141181994Y-133561994D01*
X140503299Y-134141655D01*
X139742275Y-134608011D01*
X138917678Y-134949570D01*
X138049791Y-135157932D01*
X137134074Y-135230000D01*
X102895926Y-135230000D01*
X101980207Y-135157931D01*
X101112322Y-134949570D01*
X100287720Y-134608009D01*
X99526701Y-134141655D01*
X98848006Y-133561994D01*
X98268345Y-132883299D01*
X97801989Y-132122275D01*
X97460430Y-131297678D01*
X97297462Y-130618867D01*
X103469390Y-130618867D01*
X103469390Y-131001133D01*
X103543966Y-131376055D01*
X103690254Y-131729224D01*
X103902630Y-132047067D01*
X104172933Y-132317370D01*
X104490776Y-132529746D01*
X104843945Y-132676034D01*
X105218867Y-132750610D01*
X105601133Y-132750610D01*
X105976055Y-132676034D01*
X106329224Y-132529746D01*
X106647067Y-132317370D01*
X106917370Y-132047067D01*
X107129746Y-131729224D01*
X107276034Y-131376055D01*
X107350610Y-131001133D01*
X107350610Y-130618867D01*
X133949390Y-130618867D01*
X133949390Y-131001133D01*
X134023966Y-131376055D01*
X134170254Y-131729224D01*
X134382630Y-132047067D01*
X134652933Y-132317370D01*
X134970776Y-132529746D01*
X135323945Y-132676034D01*
X135698867Y-132750610D01*
X136081133Y-132750610D01*
X136456055Y-132676034D01*
X136809224Y-132529746D01*
X137127067Y-132317370D01*
X137397370Y-132047067D01*
X137609746Y-131729224D01*
X137756034Y-131376055D01*
X137830610Y-131001133D01*
X137830610Y-130618867D01*
X137756034Y-130243945D01*
X137609746Y-129890776D01*
X137397370Y-129572933D01*
X137127067Y-129302630D01*
X136809224Y-129090254D01*
X136456055Y-128943966D01*
X136081133Y-128869390D01*
X135698867Y-128869390D01*
X135323945Y-128943966D01*
X134970776Y-129090254D01*
X134652933Y-129302630D01*
X134382630Y-129572933D01*
X134170254Y-129890776D01*
X134023966Y-130243945D01*
X133949390Y-130618867D01*
X107350610Y-130618867D01*
X107276034Y-130243945D01*
X107129746Y-129890776D01*
X106917370Y-129572933D01*
X106647067Y-129302630D01*
X106329224Y-129090254D01*
X105976055Y-128943966D01*
X105601133Y-128869390D01*
X105218867Y-128869390D01*
X104843945Y-128943966D01*
X104490776Y-129090254D01*
X104172933Y-129302630D01*
X103902630Y-129572933D01*
X103690254Y-129890776D01*
X103543966Y-130243945D01*
X103469390Y-130618867D01*
X97297462Y-130618867D01*
X97252068Y-130429791D01*
X97180000Y-129514074D01*
X97180000Y-125824500D01*
X117185000Y-125824500D01*
X117185000Y-126174500D01*
X117233507Y-126412996D01*
X117327610Y-126637446D01*
X117463693Y-126839225D01*
X117636526Y-127010578D01*
X117839467Y-127144921D01*
X118064718Y-127237091D01*
X118102391Y-127240962D01*
X118293000Y-127116231D01*
X118293000Y-125824500D01*
X118547000Y-125824500D01*
X118547000Y-127116231D01*
X118737609Y-127240962D01*
X118775282Y-127237091D01*
X119000533Y-127144921D01*
X119203474Y-127010578D01*
X119376307Y-126839225D01*
X119512390Y-126637446D01*
X119606493Y-126412996D01*
X119655000Y-126174500D01*
X119655000Y-125824500D01*
X124185000Y-125824500D01*
X124185000Y-126174500D01*
X124233507Y-126412996D01*
X124327610Y-126637446D01*
X124463693Y-126839225D01*
X124636526Y-127010578D01*
X124839467Y-127144921D01*
X125064718Y-127237091D01*
X125102391Y-127240962D01*
X125293000Y-127116231D01*
X125293000Y-125824500D01*
X125547000Y-125824500D01*
X125547000Y-127116231D01*
X125737609Y-127240962D01*
X125775282Y-127237091D01*
X126000533Y-127144921D01*
X126203474Y-127010578D01*
X126376307Y-126839225D01*
X126512390Y-126637446D01*
X126606493Y-126412996D01*
X126655000Y-126174500D01*
X126655000Y-125824500D01*
X125547000Y-125824500D01*
X125293000Y-125824500D01*
X124185000Y-125824500D01*
X119655000Y-125824500D01*
X118547000Y-125824500D01*
X118293000Y-125824500D01*
X117185000Y-125824500D01*
X97180000Y-125824500D01*
X97180000Y-125220500D01*
X117185000Y-125220500D01*
X117185000Y-125570500D01*
X118293000Y-125570500D01*
X118293000Y-124278769D01*
X118547000Y-124278769D01*
X118547000Y-125570500D01*
X119655000Y-125570500D01*
X119655000Y-125220500D01*
X119606493Y-124982004D01*
X119512390Y-124757554D01*
X119376307Y-124555775D01*
X119203474Y-124384422D01*
X119108164Y-124321329D01*
X119225849Y-124350219D01*
X119493482Y-124362104D01*
X119758291Y-124321548D01*
X120010100Y-124230109D01*
X120117035Y-124172950D01*
X120179528Y-123936633D01*
X123660472Y-123936633D01*
X123722965Y-124172950D01*
X123965678Y-124286350D01*
X124225849Y-124350219D01*
X124493482Y-124362104D01*
X124723442Y-124326885D01*
X124636526Y-124384422D01*
X124463693Y-124555775D01*
X124327610Y-124757554D01*
X124233507Y-124982004D01*
X124185000Y-125220500D01*
X124185000Y-125570500D01*
X125293000Y-125570500D01*
X125293000Y-124278769D01*
X125547000Y-124278769D01*
X125547000Y-125570500D01*
X126655000Y-125570500D01*
X126655000Y-125220500D01*
X126606493Y-124982004D01*
X126512390Y-124757554D01*
X126376307Y-124555775D01*
X126203474Y-124384422D01*
X126000533Y-124250079D01*
X125775282Y-124157909D01*
X125737609Y-124154038D01*
X125547000Y-124278769D01*
X125293000Y-124278769D01*
X125119138Y-124164997D01*
X125179528Y-123936633D01*
X124420000Y-123177105D01*
X123660472Y-123936633D01*
X120179528Y-123936633D01*
X119420000Y-123177105D01*
X118660472Y-123936633D01*
X118720862Y-124164997D01*
X118547000Y-124278769D01*
X118293000Y-124278769D01*
X118102391Y-124154038D01*
X118064718Y-124157909D01*
X117839467Y-124250079D01*
X117636526Y-124384422D01*
X117463693Y-124555775D01*
X117327610Y-124757554D01*
X117233507Y-124982004D01*
X117185000Y-125220500D01*
X97180000Y-125220500D01*
X97180000Y-123070982D01*
X118055396Y-123070982D01*
X118095952Y-123335791D01*
X118187391Y-123587600D01*
X118244550Y-123694535D01*
X118480867Y-123757028D01*
X119240395Y-122997500D01*
X119599605Y-122997500D01*
X120359133Y-123757028D01*
X120595450Y-123694535D01*
X120708850Y-123451822D01*
X120772719Y-123191651D01*
X120778077Y-123070982D01*
X123055396Y-123070982D01*
X123095952Y-123335791D01*
X123187391Y-123587600D01*
X123244550Y-123694535D01*
X123480867Y-123757028D01*
X124240395Y-122997500D01*
X124599605Y-122997500D01*
X125359133Y-123757028D01*
X125595450Y-123694535D01*
X125708850Y-123451822D01*
X125772719Y-123191651D01*
X125784604Y-122924018D01*
X125744048Y-122659209D01*
X125652609Y-122407400D01*
X125595450Y-122300465D01*
X125359133Y-122237972D01*
X124599605Y-122997500D01*
X124240395Y-122997500D01*
X123480867Y-122237972D01*
X123244550Y-122300465D01*
X123131150Y-122543178D01*
X123067281Y-122803349D01*
X123055396Y-123070982D01*
X120778077Y-123070982D01*
X120784604Y-122924018D01*
X120744048Y-122659209D01*
X120652609Y-122407400D01*
X120595450Y-122300465D01*
X120359133Y-122237972D01*
X119599605Y-122997500D01*
X119240395Y-122997500D01*
X118480867Y-122237972D01*
X118244550Y-122300465D01*
X118131150Y-122543178D01*
X118067281Y-122803349D01*
X118055396Y-123070982D01*
X97180000Y-123070982D01*
X97180000Y-122058367D01*
X118660472Y-122058367D01*
X119420000Y-122817895D01*
X120179528Y-122058367D01*
X123660472Y-122058367D01*
X124420000Y-122817895D01*
X125179528Y-122058367D01*
X125117035Y-121822050D01*
X124874322Y-121708650D01*
X124614151Y-121644781D01*
X124346518Y-121632896D01*
X124081709Y-121673452D01*
X123829900Y-121764891D01*
X123722965Y-121822050D01*
X123660472Y-122058367D01*
X120179528Y-122058367D01*
X120117035Y-121822050D01*
X119874322Y-121708650D01*
X119614151Y-121644781D01*
X119346518Y-121632896D01*
X119081709Y-121673452D01*
X118829900Y-121764891D01*
X118722965Y-121822050D01*
X118660472Y-122058367D01*
X97180000Y-122058367D01*
X97180000Y-117677861D01*
X128276400Y-117677861D01*
X128276400Y-117881739D01*
X128316174Y-118081698D01*
X128394195Y-118270056D01*
X128507463Y-118439574D01*
X128651626Y-118583737D01*
X128821144Y-118697005D01*
X129009502Y-118775026D01*
X129209461Y-118814800D01*
X129413339Y-118814800D01*
X129613298Y-118775026D01*
X129801656Y-118697005D01*
X129971174Y-118583737D01*
X130115337Y-118439574D01*
X130228605Y-118270056D01*
X130306626Y-118081698D01*
X130346400Y-117881739D01*
X130346400Y-117677861D01*
X130306626Y-117477902D01*
X130228605Y-117289544D01*
X130115337Y-117120026D01*
X129971174Y-116975863D01*
X129801656Y-116862595D01*
X129613298Y-116784574D01*
X129413339Y-116744800D01*
X129209461Y-116744800D01*
X129009502Y-116784574D01*
X128821144Y-116862595D01*
X128651626Y-116975863D01*
X128507463Y-117120026D01*
X128394195Y-117289544D01*
X128316174Y-117477902D01*
X128276400Y-117677861D01*
X97180000Y-117677861D01*
X97180000Y-113588461D01*
X107270600Y-113588461D01*
X107270600Y-113792339D01*
X107310374Y-113992298D01*
X107388395Y-114180656D01*
X107501663Y-114350174D01*
X107645826Y-114494337D01*
X107815344Y-114607605D01*
X108003702Y-114685626D01*
X108203661Y-114725400D01*
X108407539Y-114725400D01*
X108607498Y-114685626D01*
X108680805Y-114655261D01*
X120656400Y-114655261D01*
X120656400Y-114859139D01*
X120696174Y-115059098D01*
X120774195Y-115247456D01*
X120887463Y-115416974D01*
X121031626Y-115561137D01*
X121201144Y-115674405D01*
X121389502Y-115752426D01*
X121589461Y-115792200D01*
X121793339Y-115792200D01*
X121993298Y-115752426D01*
X122181656Y-115674405D01*
X122351174Y-115561137D01*
X122495337Y-115416974D01*
X122608605Y-115247456D01*
X122686626Y-115059098D01*
X122726400Y-114859139D01*
X122726400Y-114693361D01*
X125622100Y-114693361D01*
X125622100Y-114897239D01*
X125661874Y-115097198D01*
X125739895Y-115285556D01*
X125853163Y-115455074D01*
X125997326Y-115599237D01*
X126166844Y-115712505D01*
X126355202Y-115790526D01*
X126555161Y-115830300D01*
X126759039Y-115830300D01*
X126958998Y-115790526D01*
X127147356Y-115712505D01*
X127316874Y-115599237D01*
X127461037Y-115455074D01*
X127574305Y-115285556D01*
X127652326Y-115097198D01*
X127692100Y-114897239D01*
X127692100Y-114693361D01*
X127652326Y-114493402D01*
X127574305Y-114305044D01*
X127461037Y-114135526D01*
X127316874Y-113991363D01*
X127147356Y-113878095D01*
X126958998Y-113800074D01*
X126759039Y-113760300D01*
X126555161Y-113760300D01*
X126355202Y-113800074D01*
X126166844Y-113878095D01*
X125997326Y-113991363D01*
X125853163Y-114135526D01*
X125739895Y-114305044D01*
X125661874Y-114493402D01*
X125622100Y-114693361D01*
X122726400Y-114693361D01*
X122726400Y-114655261D01*
X122686626Y-114455302D01*
X122608605Y-114266944D01*
X122495337Y-114097426D01*
X122351174Y-113953263D01*
X122181656Y-113839995D01*
X121993298Y-113761974D01*
X121793339Y-113722200D01*
X121589461Y-113722200D01*
X121389502Y-113761974D01*
X121201144Y-113839995D01*
X121031626Y-113953263D01*
X120887463Y-114097426D01*
X120774195Y-114266944D01*
X120696174Y-114455302D01*
X120656400Y-114655261D01*
X108680805Y-114655261D01*
X108795856Y-114607605D01*
X108965374Y-114494337D01*
X109109537Y-114350174D01*
X109222805Y-114180656D01*
X109300826Y-113992298D01*
X109340600Y-113792339D01*
X109340600Y-113588461D01*
X109300826Y-113388502D01*
X109222805Y-113200144D01*
X109109537Y-113030626D01*
X108981572Y-112902661D01*
X132137200Y-112902661D01*
X132137200Y-113106539D01*
X132176974Y-113306498D01*
X132254995Y-113494856D01*
X132368263Y-113664374D01*
X132512426Y-113808537D01*
X132681944Y-113921805D01*
X132870302Y-113999826D01*
X133070261Y-114039600D01*
X133274139Y-114039600D01*
X133474098Y-113999826D01*
X133662456Y-113921805D01*
X133831974Y-113808537D01*
X133976137Y-113664374D01*
X134089405Y-113494856D01*
X134167426Y-113306498D01*
X134207200Y-113106539D01*
X134207200Y-112902661D01*
X134167426Y-112702702D01*
X134089405Y-112514344D01*
X133976137Y-112344826D01*
X133831974Y-112200663D01*
X133662456Y-112087395D01*
X133474098Y-112009374D01*
X133274139Y-111969600D01*
X133070261Y-111969600D01*
X132870302Y-112009374D01*
X132681944Y-112087395D01*
X132512426Y-112200663D01*
X132368263Y-112344826D01*
X132254995Y-112514344D01*
X132176974Y-112702702D01*
X132137200Y-112902661D01*
X108981572Y-112902661D01*
X108965374Y-112886463D01*
X108795856Y-112773195D01*
X108607498Y-112695174D01*
X108407539Y-112655400D01*
X108203661Y-112655400D01*
X108003702Y-112695174D01*
X107815344Y-112773195D01*
X107645826Y-112886463D01*
X107501663Y-113030626D01*
X107388395Y-113200144D01*
X107310374Y-113388502D01*
X107270600Y-113588461D01*
X97180000Y-113588461D01*
X97180000Y-111200861D01*
X110598000Y-111200861D01*
X110598000Y-111404739D01*
X110637774Y-111604698D01*
X110715795Y-111793056D01*
X110829063Y-111962574D01*
X110973226Y-112106737D01*
X111142744Y-112220005D01*
X111331102Y-112298026D01*
X111531061Y-112337800D01*
X111734939Y-112337800D01*
X111934898Y-112298026D01*
X112123256Y-112220005D01*
X112292774Y-112106737D01*
X112436937Y-111962574D01*
X112550205Y-111793056D01*
X112628226Y-111604698D01*
X112668000Y-111404739D01*
X112668000Y-111200861D01*
X112641268Y-111066468D01*
X112775661Y-111093200D01*
X112979539Y-111093200D01*
X113179498Y-111053426D01*
X113367856Y-110975405D01*
X113537374Y-110862137D01*
X113681537Y-110717974D01*
X113715288Y-110667461D01*
X113900000Y-110667461D01*
X113900000Y-110871339D01*
X113939774Y-111071298D01*
X114017795Y-111259656D01*
X114131063Y-111429174D01*
X114275226Y-111573337D01*
X114444744Y-111686605D01*
X114633102Y-111764626D01*
X114833061Y-111804400D01*
X115036939Y-111804400D01*
X115236898Y-111764626D01*
X115425256Y-111686605D01*
X115594774Y-111573337D01*
X115738937Y-111429174D01*
X115852205Y-111259656D01*
X115930226Y-111071298D01*
X115970000Y-110871339D01*
X115970000Y-110667461D01*
X115930226Y-110467502D01*
X115852205Y-110279144D01*
X115738937Y-110109626D01*
X115594774Y-109965463D01*
X115425256Y-109852195D01*
X115236898Y-109774174D01*
X115036939Y-109734400D01*
X114833061Y-109734400D01*
X114633102Y-109774174D01*
X114444744Y-109852195D01*
X114275226Y-109965463D01*
X114131063Y-110109626D01*
X114017795Y-110279144D01*
X113939774Y-110467502D01*
X113900000Y-110667461D01*
X113715288Y-110667461D01*
X113794805Y-110548456D01*
X113872826Y-110360098D01*
X113912600Y-110160139D01*
X113912600Y-109956261D01*
X113872826Y-109756302D01*
X113794805Y-109567944D01*
X113681537Y-109398426D01*
X113537374Y-109254263D01*
X113367856Y-109140995D01*
X113179498Y-109062974D01*
X112979539Y-109023200D01*
X112775661Y-109023200D01*
X112575702Y-109062974D01*
X112387344Y-109140995D01*
X112217826Y-109254263D01*
X112073663Y-109398426D01*
X111960395Y-109567944D01*
X111882374Y-109756302D01*
X111842600Y-109956261D01*
X111842600Y-110160139D01*
X111869332Y-110294532D01*
X111734939Y-110267800D01*
X111531061Y-110267800D01*
X111331102Y-110307574D01*
X111142744Y-110385595D01*
X110973226Y-110498863D01*
X110829063Y-110643026D01*
X110715795Y-110812544D01*
X110637774Y-111000902D01*
X110598000Y-111200861D01*
X97180000Y-111200861D01*
X97180000Y-74955926D01*
X97246937Y-74105400D01*
X98638728Y-74105400D01*
X98638728Y-75805400D01*
X98650988Y-75929882D01*
X98687298Y-76049580D01*
X98746263Y-76159894D01*
X98789600Y-76212700D01*
X98746263Y-76265506D01*
X98687298Y-76375820D01*
X98650988Y-76495518D01*
X98638728Y-76620000D01*
X98638728Y-78320000D01*
X98650988Y-78444482D01*
X98687298Y-78564180D01*
X98746263Y-78674494D01*
X98800022Y-78740000D01*
X98746263Y-78805506D01*
X98687298Y-78915820D01*
X98650988Y-79035518D01*
X98638728Y-79160000D01*
X98638728Y-80860000D01*
X98650988Y-80984482D01*
X98687298Y-81104180D01*
X98746263Y-81214494D01*
X98800022Y-81280000D01*
X98746263Y-81345506D01*
X98687298Y-81455820D01*
X98650988Y-81575518D01*
X98638728Y-81700000D01*
X98638728Y-83400000D01*
X98650988Y-83524482D01*
X98687298Y-83644180D01*
X98746263Y-83754494D01*
X98800022Y-83820000D01*
X98746263Y-83885506D01*
X98687298Y-83995820D01*
X98650988Y-84115518D01*
X98638728Y-84240000D01*
X98638728Y-85940000D01*
X98650988Y-86064482D01*
X98687298Y-86184180D01*
X98746263Y-86294494D01*
X98800022Y-86360000D01*
X98746263Y-86425506D01*
X98687298Y-86535820D01*
X98650988Y-86655518D01*
X98638728Y-86780000D01*
X98638728Y-88480000D01*
X98650988Y-88604482D01*
X98687298Y-88724180D01*
X98746263Y-88834494D01*
X98800022Y-88900000D01*
X98746263Y-88965506D01*
X98687298Y-89075820D01*
X98650988Y-89195518D01*
X98638728Y-89320000D01*
X98638728Y-91020000D01*
X98650988Y-91144482D01*
X98687298Y-91264180D01*
X98746263Y-91374494D01*
X98800022Y-91440000D01*
X98746263Y-91505506D01*
X98687298Y-91615820D01*
X98650988Y-91735518D01*
X98638728Y-91860000D01*
X98638728Y-93560000D01*
X98650988Y-93684482D01*
X98687298Y-93804180D01*
X98746263Y-93914494D01*
X98800022Y-93980000D01*
X98746263Y-94045506D01*
X98687298Y-94155820D01*
X98650988Y-94275518D01*
X98638728Y-94400000D01*
X98638728Y-96100000D01*
X98650988Y-96224482D01*
X98687298Y-96344180D01*
X98746263Y-96454494D01*
X98800022Y-96520000D01*
X98746263Y-96585506D01*
X98687298Y-96695820D01*
X98650988Y-96815518D01*
X98638728Y-96940000D01*
X98638728Y-98640000D01*
X98650988Y-98764482D01*
X98687298Y-98884180D01*
X98746263Y-98994494D01*
X98800022Y-99060000D01*
X98746263Y-99125506D01*
X98687298Y-99235820D01*
X98650988Y-99355518D01*
X98638728Y-99480000D01*
X98638728Y-101180000D01*
X98650988Y-101304482D01*
X98687298Y-101424180D01*
X98746263Y-101534494D01*
X98825615Y-101631185D01*
X98922306Y-101710537D01*
X99032620Y-101769502D01*
X99152318Y-101805812D01*
X99276800Y-101818072D01*
X100976800Y-101818072D01*
X101101282Y-101805812D01*
X101220980Y-101769502D01*
X101331294Y-101710537D01*
X101427985Y-101631185D01*
X101507337Y-101534494D01*
X101566302Y-101424180D01*
X101602612Y-101304482D01*
X101614872Y-101180000D01*
X101614872Y-99480000D01*
X101602612Y-99355518D01*
X101566302Y-99235820D01*
X101507337Y-99125506D01*
X101453578Y-99060000D01*
X101507337Y-98994494D01*
X101566302Y-98884180D01*
X101602612Y-98764482D01*
X101614872Y-98640000D01*
X101614872Y-98399261D01*
X109912200Y-98399261D01*
X109912200Y-98603139D01*
X109951974Y-98803098D01*
X110029995Y-98991456D01*
X110143263Y-99160974D01*
X110287426Y-99305137D01*
X110456944Y-99418405D01*
X110645302Y-99496426D01*
X110845261Y-99536200D01*
X111049139Y-99536200D01*
X111233000Y-99499628D01*
X111233000Y-99669939D01*
X111272774Y-99869898D01*
X111350795Y-100058256D01*
X111354165Y-100063300D01*
X111350795Y-100068344D01*
X111272774Y-100256702D01*
X111233000Y-100456661D01*
X111233000Y-100660539D01*
X111272774Y-100860498D01*
X111350795Y-101048856D01*
X111464063Y-101218374D01*
X111608226Y-101362537D01*
X111777744Y-101475805D01*
X111966102Y-101553826D01*
X112166061Y-101593600D01*
X112369939Y-101593600D01*
X112569898Y-101553826D01*
X112758256Y-101475805D01*
X112927774Y-101362537D01*
X113025037Y-101265274D01*
X112974574Y-101387101D01*
X112934800Y-101587060D01*
X112934800Y-101790938D01*
X112974574Y-101990897D01*
X113052595Y-102179255D01*
X113165863Y-102348773D01*
X113310026Y-102492936D01*
X113479544Y-102606204D01*
X113600443Y-102656282D01*
X113591175Y-102678657D01*
X113563739Y-102673200D01*
X113359861Y-102673200D01*
X113159902Y-102712974D01*
X112971544Y-102790995D01*
X112802026Y-102904263D01*
X112657863Y-103048426D01*
X112544595Y-103217944D01*
X112466574Y-103406302D01*
X112426800Y-103606261D01*
X112426800Y-103810139D01*
X112466574Y-104010098D01*
X112544595Y-104198456D01*
X112657863Y-104367974D01*
X112802026Y-104512137D01*
X112971544Y-104625405D01*
X113159902Y-104703426D01*
X113335535Y-104738361D01*
X113382795Y-104852456D01*
X113496063Y-105021974D01*
X113640226Y-105166137D01*
X113809744Y-105279405D01*
X113885077Y-105310609D01*
X113914374Y-105457898D01*
X113992395Y-105646256D01*
X114105663Y-105815774D01*
X114249826Y-105959937D01*
X114419344Y-106073205D01*
X114424947Y-106075526D01*
X114453131Y-106217218D01*
X114531152Y-106405576D01*
X114644420Y-106575094D01*
X114788583Y-106719257D01*
X114839800Y-106753479D01*
X114839800Y-106908939D01*
X114879574Y-107108898D01*
X114957595Y-107297256D01*
X115070863Y-107466774D01*
X115215026Y-107610937D01*
X115384544Y-107724205D01*
X115572902Y-107802226D01*
X115772861Y-107842000D01*
X115976739Y-107842000D01*
X116176698Y-107802226D01*
X116365056Y-107724205D01*
X116534574Y-107610937D01*
X116678737Y-107466774D01*
X116792005Y-107297256D01*
X116816358Y-107238461D01*
X123298000Y-107238461D01*
X123298000Y-107442339D01*
X123337774Y-107642298D01*
X123415795Y-107830656D01*
X123529063Y-108000174D01*
X123673226Y-108144337D01*
X123842744Y-108257605D01*
X123947320Y-108300922D01*
X123898395Y-108374144D01*
X123820374Y-108562502D01*
X123780600Y-108762461D01*
X123780600Y-108966339D01*
X123820374Y-109166298D01*
X123898395Y-109354656D01*
X124011663Y-109524174D01*
X124155826Y-109668337D01*
X124325344Y-109781605D01*
X124513702Y-109859626D01*
X124713661Y-109899400D01*
X124917539Y-109899400D01*
X125117498Y-109859626D01*
X125305856Y-109781605D01*
X125475374Y-109668337D01*
X125619537Y-109524174D01*
X125732805Y-109354656D01*
X125810826Y-109166298D01*
X125850600Y-108966339D01*
X125850600Y-108762461D01*
X125810826Y-108562502D01*
X125732805Y-108374144D01*
X125619537Y-108204626D01*
X125475374Y-108060463D01*
X125305856Y-107947195D01*
X125201280Y-107903878D01*
X125250205Y-107830656D01*
X125328226Y-107642298D01*
X125368000Y-107442339D01*
X125368000Y-107415567D01*
X125504302Y-107472026D01*
X125704261Y-107511800D01*
X125908139Y-107511800D01*
X126108098Y-107472026D01*
X126296456Y-107394005D01*
X126465974Y-107280737D01*
X126610137Y-107136574D01*
X126723405Y-106967056D01*
X126801426Y-106778698D01*
X126841200Y-106578739D01*
X126841200Y-106374861D01*
X126801426Y-106174902D01*
X126723405Y-105986544D01*
X126610137Y-105817026D01*
X126465974Y-105672863D01*
X126296456Y-105559595D01*
X126108098Y-105481574D01*
X125908139Y-105441800D01*
X125704261Y-105441800D01*
X125504302Y-105481574D01*
X125315944Y-105559595D01*
X125146426Y-105672863D01*
X125002263Y-105817026D01*
X124888995Y-105986544D01*
X124810974Y-106174902D01*
X124771200Y-106374861D01*
X124771200Y-106401633D01*
X124634898Y-106345174D01*
X124434939Y-106305400D01*
X124231061Y-106305400D01*
X124031102Y-106345174D01*
X123842744Y-106423195D01*
X123673226Y-106536463D01*
X123529063Y-106680626D01*
X123415795Y-106850144D01*
X123337774Y-107038502D01*
X123298000Y-107238461D01*
X116816358Y-107238461D01*
X116870026Y-107108898D01*
X116909800Y-106908939D01*
X116909800Y-106705061D01*
X116870026Y-106505102D01*
X116792005Y-106316744D01*
X116678737Y-106147226D01*
X116534574Y-106003063D01*
X116483357Y-105968841D01*
X116483357Y-105813381D01*
X116443583Y-105613422D01*
X116365562Y-105425064D01*
X116252294Y-105255546D01*
X116108131Y-105111383D01*
X115938613Y-104998115D01*
X115933010Y-104995794D01*
X115904826Y-104854102D01*
X115826805Y-104665744D01*
X115713537Y-104496226D01*
X115569374Y-104352063D01*
X115399856Y-104238795D01*
X115324523Y-104207591D01*
X115295226Y-104060302D01*
X115217205Y-103871944D01*
X115191243Y-103833089D01*
X115239364Y-103800936D01*
X115383527Y-103656773D01*
X115474514Y-103520601D01*
X115519539Y-103520601D01*
X115719498Y-103480827D01*
X115907856Y-103402806D01*
X115945488Y-103377661D01*
X119691200Y-103377661D01*
X119691200Y-103581539D01*
X119730974Y-103781498D01*
X119808995Y-103969856D01*
X119922263Y-104139374D01*
X120066426Y-104283537D01*
X120235944Y-104396805D01*
X120424302Y-104474826D01*
X120624261Y-104514600D01*
X120828139Y-104514600D01*
X121028098Y-104474826D01*
X121216456Y-104396805D01*
X121232827Y-104385866D01*
X121286816Y-104421940D01*
X121475174Y-104499961D01*
X121675133Y-104539735D01*
X121879011Y-104539735D01*
X122078970Y-104499961D01*
X122188636Y-104454535D01*
X122247758Y-104494039D01*
X122436116Y-104572060D01*
X122498123Y-104584394D01*
X122329302Y-104617974D01*
X122140944Y-104695995D01*
X121971426Y-104809263D01*
X121827263Y-104953426D01*
X121713995Y-105122944D01*
X121635974Y-105311302D01*
X121596200Y-105511261D01*
X121596200Y-105715139D01*
X121635974Y-105915098D01*
X121713995Y-106103456D01*
X121827263Y-106272974D01*
X121971426Y-106417137D01*
X122140944Y-106530405D01*
X122329302Y-106608426D01*
X122529261Y-106648200D01*
X122733139Y-106648200D01*
X122933098Y-106608426D01*
X123121456Y-106530405D01*
X123290974Y-106417137D01*
X123435137Y-106272974D01*
X123548405Y-106103456D01*
X123626426Y-105915098D01*
X123666200Y-105715139D01*
X123666200Y-105511261D01*
X123626426Y-105311302D01*
X123548405Y-105122944D01*
X123435137Y-104953426D01*
X123290974Y-104809263D01*
X123121456Y-104695995D01*
X122933098Y-104617974D01*
X122871091Y-104605640D01*
X123039912Y-104572060D01*
X123228270Y-104494039D01*
X123397788Y-104380771D01*
X123541951Y-104236608D01*
X123564028Y-104203567D01*
X123723061Y-104235200D01*
X123926939Y-104235200D01*
X124126898Y-104195426D01*
X124315256Y-104117405D01*
X124484774Y-104004137D01*
X124597088Y-103891823D01*
X124568000Y-104038061D01*
X124568000Y-104241939D01*
X124607774Y-104441898D01*
X124685795Y-104630256D01*
X124799063Y-104799774D01*
X124943226Y-104943937D01*
X125112744Y-105057205D01*
X125301102Y-105135226D01*
X125501061Y-105175000D01*
X125704939Y-105175000D01*
X125904898Y-105135226D01*
X126093256Y-105057205D01*
X126262774Y-104943937D01*
X126406937Y-104799774D01*
X126520205Y-104630256D01*
X126598226Y-104441898D01*
X126617925Y-104342861D01*
X130079800Y-104342861D01*
X130079800Y-104546739D01*
X130119574Y-104746698D01*
X130197595Y-104935056D01*
X130310863Y-105104574D01*
X130455026Y-105248737D01*
X130624544Y-105362005D01*
X130812902Y-105440026D01*
X130954780Y-105468247D01*
X130957774Y-105483298D01*
X131035795Y-105671656D01*
X131149063Y-105841174D01*
X131293226Y-105985337D01*
X131462744Y-106098605D01*
X131651102Y-106176626D01*
X131851061Y-106216400D01*
X132054939Y-106216400D01*
X132254898Y-106176626D01*
X132443256Y-106098605D01*
X132612774Y-105985337D01*
X132756937Y-105841174D01*
X132870205Y-105671656D01*
X132948226Y-105483298D01*
X132988000Y-105283339D01*
X132988000Y-105079461D01*
X132948226Y-104879502D01*
X132870205Y-104691144D01*
X132756937Y-104521626D01*
X132612774Y-104377463D01*
X132443256Y-104264195D01*
X132254898Y-104186174D01*
X132113020Y-104157953D01*
X132110026Y-104142902D01*
X132032005Y-103954544D01*
X131918737Y-103785026D01*
X131774574Y-103640863D01*
X131605056Y-103527595D01*
X131416698Y-103449574D01*
X131216739Y-103409800D01*
X131012861Y-103409800D01*
X130812902Y-103449574D01*
X130624544Y-103527595D01*
X130455026Y-103640863D01*
X130310863Y-103785026D01*
X130197595Y-103954544D01*
X130119574Y-104142902D01*
X130079800Y-104342861D01*
X126617925Y-104342861D01*
X126638000Y-104241939D01*
X126638000Y-104038061D01*
X126598226Y-103838102D01*
X126520205Y-103649744D01*
X126406937Y-103480226D01*
X126262774Y-103336063D01*
X126093256Y-103222795D01*
X125904898Y-103144774D01*
X125704939Y-103105000D01*
X125501061Y-103105000D01*
X125301102Y-103144774D01*
X125112744Y-103222795D01*
X124943226Y-103336063D01*
X124830912Y-103448377D01*
X124860000Y-103302139D01*
X124860000Y-103098261D01*
X124820226Y-102898302D01*
X124742205Y-102709944D01*
X124720178Y-102676979D01*
X124748542Y-102648615D01*
X124787532Y-102590261D01*
X134022200Y-102590261D01*
X134022200Y-102794139D01*
X134061974Y-102994098D01*
X134139995Y-103182456D01*
X134253263Y-103351974D01*
X134397426Y-103496137D01*
X134566944Y-103609405D01*
X134755302Y-103687426D01*
X134955261Y-103727200D01*
X135159139Y-103727200D01*
X135359098Y-103687426D01*
X135547456Y-103609405D01*
X135716974Y-103496137D01*
X135861137Y-103351974D01*
X135974405Y-103182456D01*
X136052426Y-102994098D01*
X136092200Y-102794139D01*
X136092200Y-102590261D01*
X136052426Y-102390302D01*
X135974405Y-102201944D01*
X135861137Y-102032426D01*
X135716974Y-101888263D01*
X135547456Y-101774995D01*
X135359098Y-101696974D01*
X135159139Y-101657200D01*
X134955261Y-101657200D01*
X134755302Y-101696974D01*
X134566944Y-101774995D01*
X134397426Y-101888263D01*
X134253263Y-102032426D01*
X134139995Y-102201944D01*
X134061974Y-102390302D01*
X134022200Y-102590261D01*
X124787532Y-102590261D01*
X124861810Y-102479097D01*
X124939831Y-102290739D01*
X124979605Y-102090780D01*
X124979605Y-101886902D01*
X124939831Y-101686943D01*
X124861810Y-101498585D01*
X124748542Y-101329067D01*
X124665142Y-101245667D01*
X124679461Y-101231348D01*
X124792729Y-101061830D01*
X124870750Y-100873472D01*
X124910524Y-100673513D01*
X124910524Y-100469635D01*
X124870750Y-100269676D01*
X124800755Y-100100694D01*
X124864628Y-99946491D01*
X124904402Y-99746532D01*
X124904402Y-99542654D01*
X124864628Y-99342695D01*
X124786607Y-99154337D01*
X124673339Y-98984819D01*
X124529176Y-98840656D01*
X124359658Y-98727388D01*
X124171300Y-98649367D01*
X124048071Y-98624855D01*
X124072600Y-98501539D01*
X124072600Y-98297661D01*
X124032826Y-98097702D01*
X123954805Y-97909344D01*
X123841537Y-97739826D01*
X123697374Y-97595663D01*
X123527856Y-97482395D01*
X123339498Y-97404374D01*
X123139539Y-97364600D01*
X122935661Y-97364600D01*
X122735702Y-97404374D01*
X122547344Y-97482395D01*
X122458188Y-97541967D01*
X122359456Y-97475997D01*
X122171098Y-97397976D01*
X121971139Y-97358202D01*
X121767261Y-97358202D01*
X121567302Y-97397976D01*
X121378944Y-97475997D01*
X121209426Y-97589265D01*
X121065263Y-97733428D01*
X120951995Y-97902946D01*
X120873974Y-98091304D01*
X120834200Y-98291263D01*
X120834200Y-98495141D01*
X120873974Y-98695100D01*
X120951995Y-98883458D01*
X121065263Y-99052976D01*
X121209426Y-99197139D01*
X121378944Y-99310407D01*
X121567302Y-99388428D01*
X121767261Y-99428202D01*
X121971139Y-99428202D01*
X122171098Y-99388428D01*
X122359456Y-99310407D01*
X122448612Y-99250835D01*
X122547344Y-99316805D01*
X122735702Y-99394826D01*
X122858931Y-99419338D01*
X122834402Y-99542654D01*
X122834402Y-99746532D01*
X122874176Y-99946491D01*
X122944171Y-100115473D01*
X122880298Y-100269676D01*
X122840524Y-100469635D01*
X122840524Y-100673513D01*
X122880298Y-100873472D01*
X122958319Y-101061830D01*
X123071587Y-101231348D01*
X123154987Y-101314748D01*
X123140668Y-101329067D01*
X123027400Y-101498585D01*
X122949379Y-101686943D01*
X122909605Y-101886902D01*
X122909605Y-102090780D01*
X122949379Y-102290739D01*
X123027400Y-102479097D01*
X123049427Y-102512062D01*
X123021063Y-102540426D01*
X122998986Y-102573467D01*
X122839953Y-102541834D01*
X122636075Y-102541834D01*
X122436116Y-102581608D01*
X122326450Y-102627034D01*
X122267328Y-102587530D01*
X122078970Y-102509509D01*
X121879011Y-102469735D01*
X121675133Y-102469735D01*
X121475174Y-102509509D01*
X121286816Y-102587530D01*
X121270445Y-102598469D01*
X121216456Y-102562395D01*
X121028098Y-102484374D01*
X120828139Y-102444600D01*
X120624261Y-102444600D01*
X120424302Y-102484374D01*
X120235944Y-102562395D01*
X120066426Y-102675663D01*
X119922263Y-102819826D01*
X119808995Y-102989344D01*
X119730974Y-103177702D01*
X119691200Y-103377661D01*
X115945488Y-103377661D01*
X116077374Y-103289538D01*
X116221537Y-103145375D01*
X116334805Y-102975857D01*
X116412826Y-102787499D01*
X116452600Y-102587540D01*
X116452600Y-102383662D01*
X116412826Y-102183703D01*
X116334805Y-101995345D01*
X116221537Y-101825827D01*
X116077374Y-101681664D01*
X115907856Y-101568396D01*
X115719498Y-101490375D01*
X115519539Y-101450601D01*
X115315661Y-101450601D01*
X115115702Y-101490375D01*
X114995474Y-101540175D01*
X114976137Y-101442959D01*
X117665642Y-101442959D01*
X117665642Y-101646837D01*
X117705416Y-101846796D01*
X117783437Y-102035154D01*
X117896705Y-102204672D01*
X118040868Y-102348835D01*
X118210386Y-102462103D01*
X118398744Y-102540124D01*
X118598703Y-102579898D01*
X118802581Y-102579898D01*
X119002540Y-102540124D01*
X119190898Y-102462103D01*
X119360416Y-102348835D01*
X119504579Y-102204672D01*
X119617847Y-102035154D01*
X119695868Y-101846796D01*
X119735642Y-101646837D01*
X119735642Y-101442959D01*
X119695868Y-101243000D01*
X119617847Y-101054642D01*
X119504579Y-100885124D01*
X119423499Y-100804044D01*
X119461972Y-100778337D01*
X119606135Y-100634174D01*
X119719403Y-100464656D01*
X119797424Y-100276298D01*
X119837198Y-100076339D01*
X119837198Y-99872461D01*
X119797424Y-99672502D01*
X119719403Y-99484144D01*
X119606135Y-99314626D01*
X119461972Y-99170463D01*
X119292454Y-99057195D01*
X119104096Y-98979174D01*
X118904137Y-98939400D01*
X118700259Y-98939400D01*
X118500300Y-98979174D01*
X118311942Y-99057195D01*
X118142424Y-99170463D01*
X117998261Y-99314626D01*
X117884993Y-99484144D01*
X117806972Y-99672502D01*
X117767198Y-99872461D01*
X117767198Y-100076339D01*
X117806972Y-100276298D01*
X117884993Y-100464656D01*
X117998261Y-100634174D01*
X118079341Y-100715254D01*
X118040868Y-100740961D01*
X117896705Y-100885124D01*
X117783437Y-101054642D01*
X117705416Y-101243000D01*
X117665642Y-101442959D01*
X114976137Y-101442959D01*
X114965026Y-101387101D01*
X114887005Y-101198743D01*
X114773737Y-101029225D01*
X114629574Y-100885062D01*
X114460056Y-100771794D01*
X114271698Y-100693773D01*
X114071739Y-100653999D01*
X113867861Y-100653999D01*
X113667902Y-100693773D01*
X113479544Y-100771794D01*
X113310026Y-100885062D01*
X113212763Y-100982325D01*
X113263226Y-100860498D01*
X113303000Y-100660539D01*
X113303000Y-100456661D01*
X113263226Y-100256702D01*
X113185205Y-100068344D01*
X113181835Y-100063300D01*
X113185205Y-100058256D01*
X113263226Y-99869898D01*
X113303000Y-99669939D01*
X113303000Y-99466061D01*
X113263226Y-99266102D01*
X113185205Y-99077744D01*
X113071937Y-98908226D01*
X112927774Y-98764063D01*
X112758256Y-98650795D01*
X112569898Y-98572774D01*
X112369939Y-98533000D01*
X112166061Y-98533000D01*
X111982200Y-98569572D01*
X111982200Y-98399261D01*
X111942426Y-98199302D01*
X111864405Y-98010944D01*
X111751137Y-97841426D01*
X111606974Y-97697263D01*
X111437456Y-97583995D01*
X111249098Y-97505974D01*
X111049139Y-97466200D01*
X110845261Y-97466200D01*
X110645302Y-97505974D01*
X110456944Y-97583995D01*
X110287426Y-97697263D01*
X110143263Y-97841426D01*
X110029995Y-98010944D01*
X109951974Y-98199302D01*
X109912200Y-98399261D01*
X101614872Y-98399261D01*
X101614872Y-96940000D01*
X101602612Y-96815518D01*
X101566302Y-96695820D01*
X101507337Y-96585506D01*
X101453578Y-96520000D01*
X101507337Y-96454494D01*
X101566302Y-96344180D01*
X101602612Y-96224482D01*
X101614872Y-96100000D01*
X101614872Y-95783061D01*
X109912200Y-95783061D01*
X109912200Y-95986939D01*
X109951974Y-96186898D01*
X110029995Y-96375256D01*
X110143263Y-96544774D01*
X110287426Y-96688937D01*
X110456944Y-96802205D01*
X110645302Y-96880226D01*
X110845261Y-96920000D01*
X111049139Y-96920000D01*
X111249098Y-96880226D01*
X111437456Y-96802205D01*
X111606974Y-96688937D01*
X111751137Y-96544774D01*
X111864405Y-96375256D01*
X111942426Y-96186898D01*
X111982200Y-95986939D01*
X111982200Y-95783061D01*
X111942426Y-95583102D01*
X111864405Y-95394744D01*
X111838862Y-95356516D01*
X123472183Y-95356516D01*
X123472183Y-95560394D01*
X123511957Y-95760353D01*
X123589978Y-95948711D01*
X123703246Y-96118229D01*
X123847409Y-96262392D01*
X124016927Y-96375660D01*
X124205285Y-96453681D01*
X124405244Y-96493455D01*
X124609122Y-96493455D01*
X124809081Y-96453681D01*
X124843418Y-96439458D01*
X124935425Y-96500935D01*
X125123783Y-96578956D01*
X125323742Y-96618730D01*
X125527620Y-96618730D01*
X125727579Y-96578956D01*
X125830903Y-96536157D01*
X125852374Y-96644098D01*
X125930395Y-96832456D01*
X126043663Y-97001974D01*
X126187826Y-97146137D01*
X126357344Y-97259405D01*
X126426021Y-97287852D01*
X126422200Y-97307061D01*
X126422200Y-97329641D01*
X126335927Y-97387287D01*
X126191764Y-97531450D01*
X126078496Y-97700968D01*
X126000475Y-97889326D01*
X125960701Y-98089285D01*
X125960701Y-98293163D01*
X126000475Y-98493122D01*
X126045731Y-98602379D01*
X126044173Y-98603937D01*
X125930905Y-98773455D01*
X125852884Y-98961813D01*
X125813110Y-99161772D01*
X125813110Y-99365650D01*
X125852884Y-99565609D01*
X125930905Y-99753967D01*
X126044173Y-99923485D01*
X126188336Y-100067648D01*
X126357854Y-100180916D01*
X126546212Y-100258937D01*
X126746171Y-100298711D01*
X126950049Y-100298711D01*
X127150008Y-100258937D01*
X127338366Y-100180916D01*
X127507884Y-100067648D01*
X127652047Y-99923485D01*
X127765315Y-99753967D01*
X127843336Y-99565609D01*
X127883110Y-99365650D01*
X127883110Y-99161772D01*
X127843336Y-98961813D01*
X127798080Y-98852556D01*
X127799638Y-98850998D01*
X127912906Y-98681480D01*
X127990927Y-98493122D01*
X128030701Y-98293163D01*
X128030701Y-98270583D01*
X128116974Y-98212937D01*
X128261137Y-98068774D01*
X128374405Y-97899256D01*
X128452426Y-97710898D01*
X128492200Y-97510939D01*
X128492200Y-97307061D01*
X128482032Y-97255943D01*
X128524626Y-97298537D01*
X128694144Y-97411805D01*
X128882502Y-97489826D01*
X129082461Y-97529600D01*
X129286339Y-97529600D01*
X129486298Y-97489826D01*
X129674656Y-97411805D01*
X129844174Y-97298537D01*
X129988337Y-97154374D01*
X130101605Y-96984856D01*
X130179626Y-96796498D01*
X130219400Y-96596539D01*
X130219400Y-96392661D01*
X130179626Y-96192702D01*
X130138809Y-96094161D01*
X130333800Y-96094161D01*
X130333800Y-96298039D01*
X130373574Y-96497998D01*
X130451595Y-96686356D01*
X130564863Y-96855874D01*
X130709026Y-97000037D01*
X130878544Y-97113305D01*
X131066902Y-97191326D01*
X131266861Y-97231100D01*
X131470739Y-97231100D01*
X131670698Y-97191326D01*
X131859056Y-97113305D01*
X132028574Y-97000037D01*
X132172737Y-96855874D01*
X132244641Y-96748261D01*
X135058200Y-96748261D01*
X135058200Y-96952139D01*
X135097974Y-97152098D01*
X135175995Y-97340456D01*
X135289263Y-97509974D01*
X135433426Y-97654137D01*
X135602944Y-97767405D01*
X135791302Y-97845426D01*
X135991261Y-97885200D01*
X136195139Y-97885200D01*
X136395098Y-97845426D01*
X136583456Y-97767405D01*
X136752974Y-97654137D01*
X136897137Y-97509974D01*
X137010405Y-97340456D01*
X137088426Y-97152098D01*
X137128200Y-96952139D01*
X137128200Y-96748261D01*
X137088426Y-96548302D01*
X137010405Y-96359944D01*
X136897137Y-96190426D01*
X136752974Y-96046263D01*
X136583456Y-95932995D01*
X136395098Y-95854974D01*
X136195139Y-95815200D01*
X135991261Y-95815200D01*
X135791302Y-95854974D01*
X135602944Y-95932995D01*
X135433426Y-96046263D01*
X135289263Y-96190426D01*
X135175995Y-96359944D01*
X135097974Y-96548302D01*
X135058200Y-96748261D01*
X132244641Y-96748261D01*
X132286005Y-96686356D01*
X132364026Y-96497998D01*
X132403800Y-96298039D01*
X132403800Y-96094161D01*
X132364026Y-95894202D01*
X132286005Y-95705844D01*
X132172737Y-95536326D01*
X132028574Y-95392163D01*
X131859056Y-95278895D01*
X131670698Y-95200874D01*
X131470739Y-95161100D01*
X131266861Y-95161100D01*
X131066902Y-95200874D01*
X130878544Y-95278895D01*
X130709026Y-95392163D01*
X130564863Y-95536326D01*
X130451595Y-95705844D01*
X130373574Y-95894202D01*
X130333800Y-96094161D01*
X130138809Y-96094161D01*
X130101605Y-96004344D01*
X129988337Y-95834826D01*
X129844174Y-95690663D01*
X129674656Y-95577395D01*
X129486298Y-95499374D01*
X129286339Y-95459600D01*
X129082461Y-95459600D01*
X128882502Y-95499374D01*
X128694144Y-95577395D01*
X128589865Y-95647072D01*
X128536173Y-95593380D01*
X128366655Y-95480112D01*
X128178297Y-95402091D01*
X127978338Y-95362317D01*
X127774460Y-95362317D01*
X127574501Y-95402091D01*
X127407256Y-95471367D01*
X127337856Y-95424995D01*
X127244120Y-95386168D01*
X127273281Y-95239562D01*
X127273281Y-95035684D01*
X127233507Y-94835725D01*
X127155486Y-94647367D01*
X127042218Y-94477849D01*
X126898055Y-94333686D01*
X126728537Y-94220418D01*
X126540179Y-94142397D01*
X126340220Y-94102623D01*
X126136342Y-94102623D01*
X125936383Y-94142397D01*
X125748025Y-94220418D01*
X125578507Y-94333686D01*
X125434344Y-94477849D01*
X125386983Y-94548730D01*
X125323742Y-94548730D01*
X125123783Y-94588504D01*
X125089446Y-94602727D01*
X124997439Y-94541250D01*
X124809081Y-94463229D01*
X124609122Y-94423455D01*
X124405244Y-94423455D01*
X124205285Y-94463229D01*
X124016927Y-94541250D01*
X123847409Y-94654518D01*
X123703246Y-94798681D01*
X123589978Y-94968199D01*
X123511957Y-95156557D01*
X123472183Y-95356516D01*
X111838862Y-95356516D01*
X111751137Y-95225226D01*
X111606974Y-95081063D01*
X111437456Y-94967795D01*
X111249098Y-94889774D01*
X111049139Y-94850000D01*
X110845261Y-94850000D01*
X110645302Y-94889774D01*
X110456944Y-94967795D01*
X110287426Y-95081063D01*
X110143263Y-95225226D01*
X110029995Y-95394744D01*
X109951974Y-95583102D01*
X109912200Y-95783061D01*
X101614872Y-95783061D01*
X101614872Y-94400000D01*
X101602612Y-94275518D01*
X101566302Y-94155820D01*
X101507337Y-94045506D01*
X101453578Y-93980000D01*
X101507337Y-93914494D01*
X101566302Y-93804180D01*
X101602612Y-93684482D01*
X101614872Y-93560000D01*
X101614872Y-93522461D01*
X109861400Y-93522461D01*
X109861400Y-93726339D01*
X109901174Y-93926298D01*
X109979195Y-94114656D01*
X110092463Y-94284174D01*
X110236626Y-94428337D01*
X110406144Y-94541605D01*
X110594502Y-94619626D01*
X110794461Y-94659400D01*
X110998339Y-94659400D01*
X111198298Y-94619626D01*
X111386656Y-94541605D01*
X111556174Y-94428337D01*
X111700337Y-94284174D01*
X111813605Y-94114656D01*
X111891626Y-93926298D01*
X111931400Y-93726339D01*
X111931400Y-93573261D01*
X113620600Y-93573261D01*
X113620600Y-93777139D01*
X113660374Y-93977098D01*
X113738395Y-94165456D01*
X113851663Y-94334974D01*
X113995826Y-94479137D01*
X114165344Y-94592405D01*
X114353702Y-94670426D01*
X114553661Y-94710200D01*
X114757539Y-94710200D01*
X114957498Y-94670426D01*
X115145856Y-94592405D01*
X115315374Y-94479137D01*
X115459537Y-94334974D01*
X115572805Y-94165456D01*
X115650826Y-93977098D01*
X115680630Y-93827261D01*
X120631000Y-93827261D01*
X120631000Y-94031139D01*
X120670774Y-94231098D01*
X120748795Y-94419456D01*
X120862063Y-94588974D01*
X121006226Y-94733137D01*
X121175744Y-94846405D01*
X121364102Y-94924426D01*
X121564061Y-94964200D01*
X121767939Y-94964200D01*
X121967898Y-94924426D01*
X122156256Y-94846405D01*
X122260863Y-94776509D01*
X122385350Y-94828074D01*
X122585309Y-94867848D01*
X122789187Y-94867848D01*
X122989146Y-94828074D01*
X123177504Y-94750053D01*
X123347022Y-94636785D01*
X123491185Y-94492622D01*
X123604453Y-94323104D01*
X123682474Y-94134746D01*
X123722248Y-93934787D01*
X123722248Y-93730909D01*
X123682474Y-93530950D01*
X123604453Y-93342592D01*
X123491185Y-93173074D01*
X123347022Y-93028911D01*
X123249369Y-92963661D01*
X128200200Y-92963661D01*
X128200200Y-93167539D01*
X128239974Y-93367498D01*
X128317995Y-93555856D01*
X128431263Y-93725374D01*
X128575426Y-93869537D01*
X128744944Y-93982805D01*
X128933302Y-94060826D01*
X129133261Y-94100600D01*
X129337139Y-94100600D01*
X129537098Y-94060826D01*
X129725456Y-93982805D01*
X129894974Y-93869537D01*
X130039137Y-93725374D01*
X130152405Y-93555856D01*
X130230426Y-93367498D01*
X130270200Y-93167539D01*
X130270200Y-92963661D01*
X130230426Y-92763702D01*
X130152405Y-92575344D01*
X130039137Y-92405826D01*
X129894974Y-92261663D01*
X129725456Y-92148395D01*
X129537098Y-92070374D01*
X129337139Y-92030600D01*
X129133261Y-92030600D01*
X128933302Y-92070374D01*
X128744944Y-92148395D01*
X128575426Y-92261663D01*
X128431263Y-92405826D01*
X128317995Y-92575344D01*
X128239974Y-92763702D01*
X128200200Y-92963661D01*
X123249369Y-92963661D01*
X123177504Y-92915643D01*
X122989146Y-92837622D01*
X122789187Y-92797848D01*
X122585309Y-92797848D01*
X122385350Y-92837622D01*
X122196992Y-92915643D01*
X122092385Y-92985539D01*
X121967898Y-92933974D01*
X121767939Y-92894200D01*
X121564061Y-92894200D01*
X121364102Y-92933974D01*
X121175744Y-93011995D01*
X121006226Y-93125263D01*
X120862063Y-93269426D01*
X120748795Y-93438944D01*
X120670774Y-93627302D01*
X120631000Y-93827261D01*
X115680630Y-93827261D01*
X115690600Y-93777139D01*
X115690600Y-93573261D01*
X115650826Y-93373302D01*
X115572805Y-93184944D01*
X115459537Y-93015426D01*
X115315374Y-92871263D01*
X115145856Y-92757995D01*
X114957498Y-92679974D01*
X114757539Y-92640200D01*
X114553661Y-92640200D01*
X114353702Y-92679974D01*
X114165344Y-92757995D01*
X113995826Y-92871263D01*
X113851663Y-93015426D01*
X113738395Y-93184944D01*
X113660374Y-93373302D01*
X113620600Y-93573261D01*
X111931400Y-93573261D01*
X111931400Y-93522461D01*
X111891626Y-93322502D01*
X111813605Y-93134144D01*
X111700337Y-92964626D01*
X111556174Y-92820463D01*
X111386656Y-92707195D01*
X111198298Y-92629174D01*
X110998339Y-92589400D01*
X110794461Y-92589400D01*
X110594502Y-92629174D01*
X110406144Y-92707195D01*
X110236626Y-92820463D01*
X110092463Y-92964626D01*
X109979195Y-93134144D01*
X109901174Y-93322502D01*
X109861400Y-93522461D01*
X101614872Y-93522461D01*
X101614872Y-91860000D01*
X101602612Y-91735518D01*
X101566302Y-91615820D01*
X101507337Y-91505506D01*
X101453578Y-91440000D01*
X101507337Y-91374494D01*
X101566302Y-91264180D01*
X101602612Y-91144482D01*
X101614872Y-91020000D01*
X101614872Y-89941061D01*
X107651600Y-89941061D01*
X107651600Y-90144939D01*
X107691374Y-90344898D01*
X107769395Y-90533256D01*
X107882663Y-90702774D01*
X108026826Y-90846937D01*
X108196344Y-90960205D01*
X108384702Y-91038226D01*
X108584661Y-91078000D01*
X108788539Y-91078000D01*
X108988498Y-91038226D01*
X109176856Y-90960205D01*
X109346374Y-90846937D01*
X109490537Y-90702774D01*
X109603805Y-90533256D01*
X109681826Y-90344898D01*
X109721600Y-90144939D01*
X109721600Y-90118861D01*
X119488001Y-90118861D01*
X119488001Y-90322739D01*
X119527775Y-90522698D01*
X119605796Y-90711056D01*
X119719064Y-90880574D01*
X119863227Y-91024737D01*
X120032745Y-91138005D01*
X120221103Y-91216026D01*
X120421062Y-91255800D01*
X120624940Y-91255800D01*
X120824899Y-91216026D01*
X121013257Y-91138005D01*
X121182775Y-91024737D01*
X121308703Y-90898809D01*
X128878548Y-90898809D01*
X128878548Y-91102687D01*
X128918322Y-91302646D01*
X128996343Y-91491004D01*
X129109611Y-91660522D01*
X129253774Y-91804685D01*
X129423292Y-91917953D01*
X129611650Y-91995974D01*
X129811609Y-92035748D01*
X130015487Y-92035748D01*
X130215446Y-91995974D01*
X130403804Y-91917953D01*
X130573322Y-91804685D01*
X130717485Y-91660522D01*
X130830753Y-91491004D01*
X130908774Y-91302646D01*
X130948548Y-91102687D01*
X130948548Y-90898809D01*
X130908774Y-90698850D01*
X130830753Y-90510492D01*
X130717485Y-90340974D01*
X130573322Y-90196811D01*
X130403804Y-90083543D01*
X130215446Y-90005522D01*
X130015487Y-89965748D01*
X129811609Y-89965748D01*
X129611650Y-90005522D01*
X129423292Y-90083543D01*
X129253774Y-90196811D01*
X129109611Y-90340974D01*
X128996343Y-90510492D01*
X128918322Y-90698850D01*
X128878548Y-90898809D01*
X121308703Y-90898809D01*
X121326938Y-90880574D01*
X121440206Y-90711056D01*
X121518227Y-90522698D01*
X121558001Y-90322739D01*
X121558001Y-90302437D01*
X121741819Y-90339000D01*
X121945697Y-90339000D01*
X122145656Y-90299226D01*
X122334014Y-90221205D01*
X122503532Y-90107937D01*
X122515679Y-90095790D01*
X122555626Y-90135737D01*
X122725144Y-90249005D01*
X122913502Y-90327026D01*
X123113461Y-90366800D01*
X123317339Y-90366800D01*
X123517298Y-90327026D01*
X123705656Y-90249005D01*
X123875174Y-90135737D01*
X124019337Y-89991574D01*
X124132605Y-89822056D01*
X124210626Y-89633698D01*
X124250400Y-89433739D01*
X124250400Y-89229861D01*
X124210626Y-89029902D01*
X124132605Y-88841544D01*
X124019337Y-88672026D01*
X123875174Y-88527863D01*
X123705656Y-88414595D01*
X123517298Y-88336574D01*
X123317339Y-88296800D01*
X123113461Y-88296800D01*
X122913502Y-88336574D01*
X122725144Y-88414595D01*
X122555626Y-88527863D01*
X122543479Y-88540010D01*
X122503532Y-88500063D01*
X122334014Y-88386795D01*
X122145656Y-88308774D01*
X121945697Y-88269000D01*
X121741819Y-88269000D01*
X121541860Y-88308774D01*
X121353502Y-88386795D01*
X121183984Y-88500063D01*
X121039821Y-88644226D01*
X120926553Y-88813744D01*
X120848532Y-89002102D01*
X120808758Y-89202061D01*
X120808758Y-89222363D01*
X120624940Y-89185800D01*
X120421062Y-89185800D01*
X120221103Y-89225574D01*
X120032745Y-89303595D01*
X119863227Y-89416863D01*
X119719064Y-89561026D01*
X119605796Y-89730544D01*
X119527775Y-89918902D01*
X119488001Y-90118861D01*
X109721600Y-90118861D01*
X109721600Y-89941061D01*
X109681826Y-89741102D01*
X109603805Y-89552744D01*
X109490537Y-89383226D01*
X109346374Y-89239063D01*
X109176856Y-89125795D01*
X108988498Y-89047774D01*
X108788539Y-89008000D01*
X108584661Y-89008000D01*
X108384702Y-89047774D01*
X108196344Y-89125795D01*
X108026826Y-89239063D01*
X107882663Y-89383226D01*
X107769395Y-89552744D01*
X107691374Y-89741102D01*
X107651600Y-89941061D01*
X101614872Y-89941061D01*
X101614872Y-89320000D01*
X101602612Y-89195518D01*
X101566302Y-89075820D01*
X101507337Y-88965506D01*
X101453578Y-88900000D01*
X101507337Y-88834494D01*
X101566302Y-88724180D01*
X101602612Y-88604482D01*
X101614872Y-88480000D01*
X101614872Y-87953710D01*
X106768751Y-87953710D01*
X106768751Y-88157588D01*
X106808525Y-88357547D01*
X106886546Y-88545905D01*
X106999814Y-88715423D01*
X107143977Y-88859586D01*
X107313495Y-88972854D01*
X107501853Y-89050875D01*
X107701812Y-89090649D01*
X107905690Y-89090649D01*
X108105649Y-89050875D01*
X108294007Y-88972854D01*
X108463525Y-88859586D01*
X108607688Y-88715423D01*
X108720956Y-88545905D01*
X108798977Y-88357547D01*
X108838751Y-88157588D01*
X108838751Y-87953710D01*
X108798977Y-87753751D01*
X108720956Y-87565393D01*
X108607688Y-87395875D01*
X108463525Y-87251712D01*
X108294007Y-87138444D01*
X108105649Y-87060423D01*
X107905690Y-87020649D01*
X107701812Y-87020649D01*
X107501853Y-87060423D01*
X107313495Y-87138444D01*
X107143977Y-87251712D01*
X106999814Y-87395875D01*
X106886546Y-87565393D01*
X106808525Y-87753751D01*
X106768751Y-87953710D01*
X101614872Y-87953710D01*
X101614872Y-86780000D01*
X101602612Y-86655518D01*
X101566302Y-86535820D01*
X101507337Y-86425506D01*
X101453578Y-86360000D01*
X101507337Y-86294494D01*
X101566302Y-86184180D01*
X101602612Y-86064482D01*
X101614872Y-85940000D01*
X101614872Y-84937261D01*
X116998800Y-84937261D01*
X116998800Y-85141139D01*
X117038574Y-85341098D01*
X117116595Y-85529456D01*
X117229863Y-85698974D01*
X117374026Y-85843137D01*
X117543544Y-85956405D01*
X117731902Y-86034426D01*
X117931861Y-86074200D01*
X118135739Y-86074200D01*
X118335698Y-86034426D01*
X118524056Y-85956405D01*
X118693574Y-85843137D01*
X118837737Y-85698974D01*
X118951005Y-85529456D01*
X119029026Y-85341098D01*
X119068800Y-85141139D01*
X119068800Y-84937261D01*
X119029026Y-84737302D01*
X118951005Y-84548944D01*
X118837737Y-84379426D01*
X118693574Y-84235263D01*
X118524056Y-84121995D01*
X118335698Y-84043974D01*
X118135739Y-84004200D01*
X117931861Y-84004200D01*
X117731902Y-84043974D01*
X117543544Y-84121995D01*
X117374026Y-84235263D01*
X117229863Y-84379426D01*
X117116595Y-84548944D01*
X117038574Y-84737302D01*
X116998800Y-84937261D01*
X101614872Y-84937261D01*
X101614872Y-84240000D01*
X101602612Y-84115518D01*
X101566302Y-83995820D01*
X101507337Y-83885506D01*
X101453578Y-83820000D01*
X101507337Y-83754494D01*
X101566302Y-83644180D01*
X101602612Y-83524482D01*
X101614872Y-83400000D01*
X101614872Y-82774508D01*
X126445349Y-82774508D01*
X126445349Y-82978386D01*
X126485123Y-83178345D01*
X126563144Y-83366703D01*
X126676412Y-83536221D01*
X126820575Y-83680384D01*
X126990093Y-83793652D01*
X127178451Y-83871673D01*
X127378410Y-83911447D01*
X127582288Y-83911447D01*
X127647073Y-83898561D01*
X127644093Y-83899795D01*
X127474575Y-84013063D01*
X127330412Y-84157226D01*
X127217144Y-84326744D01*
X127139123Y-84515102D01*
X127099349Y-84715061D01*
X127099349Y-84918939D01*
X127139123Y-85118898D01*
X127217144Y-85307256D01*
X127330412Y-85476774D01*
X127474575Y-85620937D01*
X127644093Y-85734205D01*
X127832451Y-85812226D01*
X128032410Y-85852000D01*
X128236288Y-85852000D01*
X128436247Y-85812226D01*
X128624605Y-85734205D01*
X128794123Y-85620937D01*
X128938286Y-85476774D01*
X129051554Y-85307256D01*
X129129575Y-85118898D01*
X129169349Y-84918939D01*
X129169349Y-84715061D01*
X129129575Y-84515102D01*
X129051554Y-84326744D01*
X128993594Y-84240000D01*
X138008728Y-84240000D01*
X138008728Y-85940000D01*
X138020988Y-86064482D01*
X138057298Y-86184180D01*
X138116263Y-86294494D01*
X138182722Y-86375475D01*
X138141663Y-86425506D01*
X138082698Y-86535820D01*
X138046388Y-86655518D01*
X138034128Y-86780000D01*
X138034128Y-88480000D01*
X138046388Y-88604482D01*
X138082698Y-88724180D01*
X138141663Y-88834494D01*
X138195422Y-88900000D01*
X138141663Y-88965506D01*
X138082698Y-89075820D01*
X138046388Y-89195518D01*
X138034128Y-89320000D01*
X138034128Y-91020000D01*
X138046388Y-91144482D01*
X138082698Y-91264180D01*
X138141663Y-91374494D01*
X138195422Y-91440000D01*
X138141663Y-91505506D01*
X138082698Y-91615820D01*
X138046388Y-91735518D01*
X138034128Y-91860000D01*
X138034128Y-93560000D01*
X138046388Y-93684482D01*
X138082698Y-93804180D01*
X138141663Y-93914494D01*
X138195422Y-93980000D01*
X138141663Y-94045506D01*
X138082698Y-94155820D01*
X138046388Y-94275518D01*
X138034128Y-94400000D01*
X138034128Y-96100000D01*
X138046388Y-96224482D01*
X138082698Y-96344180D01*
X138141663Y-96454494D01*
X138195422Y-96520000D01*
X138141663Y-96585506D01*
X138082698Y-96695820D01*
X138046388Y-96815518D01*
X138034128Y-96940000D01*
X138034128Y-98640000D01*
X138046388Y-98764482D01*
X138082698Y-98884180D01*
X138141663Y-98994494D01*
X138221015Y-99091185D01*
X138244916Y-99110800D01*
X138221015Y-99130415D01*
X138141663Y-99227106D01*
X138082698Y-99337420D01*
X138046388Y-99457118D01*
X138034128Y-99581600D01*
X138034128Y-101281600D01*
X138046388Y-101406082D01*
X138082698Y-101525780D01*
X138141663Y-101636094D01*
X138221015Y-101732785D01*
X138317706Y-101812137D01*
X138428020Y-101871102D01*
X138547718Y-101907412D01*
X138672200Y-101919672D01*
X140372200Y-101919672D01*
X140496682Y-101907412D01*
X140616380Y-101871102D01*
X140726694Y-101812137D01*
X140823385Y-101732785D01*
X140902737Y-101636094D01*
X140961702Y-101525780D01*
X140998012Y-101406082D01*
X141010272Y-101281600D01*
X141010272Y-99581600D01*
X140998012Y-99457118D01*
X140961702Y-99337420D01*
X140902737Y-99227106D01*
X140823385Y-99130415D01*
X140799484Y-99110800D01*
X140823385Y-99091185D01*
X140902737Y-98994494D01*
X140961702Y-98884180D01*
X140998012Y-98764482D01*
X141010272Y-98640000D01*
X141010272Y-96940000D01*
X140998012Y-96815518D01*
X140961702Y-96695820D01*
X140902737Y-96585506D01*
X140848978Y-96520000D01*
X140902737Y-96454494D01*
X140961702Y-96344180D01*
X140998012Y-96224482D01*
X141010272Y-96100000D01*
X141010272Y-94400000D01*
X140998012Y-94275518D01*
X140961702Y-94155820D01*
X140902737Y-94045506D01*
X140848978Y-93980000D01*
X140902737Y-93914494D01*
X140961702Y-93804180D01*
X140998012Y-93684482D01*
X141010272Y-93560000D01*
X141010272Y-91860000D01*
X140998012Y-91735518D01*
X140961702Y-91615820D01*
X140902737Y-91505506D01*
X140848978Y-91440000D01*
X140902737Y-91374494D01*
X140961702Y-91264180D01*
X140998012Y-91144482D01*
X141010272Y-91020000D01*
X141010272Y-89320000D01*
X140998012Y-89195518D01*
X140961702Y-89075820D01*
X140902737Y-88965506D01*
X140848978Y-88900000D01*
X140902737Y-88834494D01*
X140961702Y-88724180D01*
X140998012Y-88604482D01*
X141010272Y-88480000D01*
X141010272Y-86780000D01*
X140998012Y-86655518D01*
X140961702Y-86535820D01*
X140902737Y-86425506D01*
X140836278Y-86344525D01*
X140877337Y-86294494D01*
X140936302Y-86184180D01*
X140972612Y-86064482D01*
X140984872Y-85940000D01*
X140984872Y-84240000D01*
X140972612Y-84115518D01*
X140936302Y-83995820D01*
X140877337Y-83885506D01*
X140836278Y-83835475D01*
X140902737Y-83754494D01*
X140961702Y-83644180D01*
X140998012Y-83524482D01*
X141010272Y-83400000D01*
X141010272Y-81700000D01*
X140998012Y-81575518D01*
X140961702Y-81455820D01*
X140902737Y-81345506D01*
X140848978Y-81280000D01*
X140902737Y-81214494D01*
X140961702Y-81104180D01*
X140998012Y-80984482D01*
X141010272Y-80860000D01*
X141010272Y-79160000D01*
X140998012Y-79035518D01*
X140961702Y-78915820D01*
X140902737Y-78805506D01*
X140848978Y-78740000D01*
X140902737Y-78674494D01*
X140961702Y-78564180D01*
X140998012Y-78444482D01*
X141010272Y-78320000D01*
X141010272Y-76620000D01*
X140998012Y-76495518D01*
X140961702Y-76375820D01*
X140902737Y-76265506D01*
X140823385Y-76168815D01*
X140814959Y-76161900D01*
X140823385Y-76154985D01*
X140902737Y-76058294D01*
X140961702Y-75947980D01*
X140998012Y-75828282D01*
X141010272Y-75703800D01*
X141010272Y-74003800D01*
X140998012Y-73879318D01*
X140961702Y-73759620D01*
X140902737Y-73649306D01*
X140823385Y-73552615D01*
X140726694Y-73473263D01*
X140616380Y-73414298D01*
X140496682Y-73377988D01*
X140372200Y-73365728D01*
X138672200Y-73365728D01*
X138547718Y-73377988D01*
X138428020Y-73414298D01*
X138317706Y-73473263D01*
X138221015Y-73552615D01*
X138141663Y-73649306D01*
X138082698Y-73759620D01*
X138046388Y-73879318D01*
X138034128Y-74003800D01*
X138034128Y-75703800D01*
X138046388Y-75828282D01*
X138082698Y-75947980D01*
X138141663Y-76058294D01*
X138221015Y-76154985D01*
X138229441Y-76161900D01*
X138221015Y-76168815D01*
X138141663Y-76265506D01*
X138082698Y-76375820D01*
X138046388Y-76495518D01*
X138034128Y-76620000D01*
X138034128Y-78320000D01*
X138046388Y-78444482D01*
X138082698Y-78564180D01*
X138141663Y-78674494D01*
X138195422Y-78740000D01*
X138141663Y-78805506D01*
X138082698Y-78915820D01*
X138046388Y-79035518D01*
X138034128Y-79160000D01*
X138034128Y-80860000D01*
X138046388Y-80984482D01*
X138082698Y-81104180D01*
X138141663Y-81214494D01*
X138195422Y-81280000D01*
X138141663Y-81345506D01*
X138082698Y-81455820D01*
X138046388Y-81575518D01*
X138034128Y-81700000D01*
X138034128Y-83400000D01*
X138046388Y-83524482D01*
X138082698Y-83644180D01*
X138141663Y-83754494D01*
X138182722Y-83804525D01*
X138116263Y-83885506D01*
X138057298Y-83995820D01*
X138020988Y-84115518D01*
X138008728Y-84240000D01*
X128993594Y-84240000D01*
X128938286Y-84157226D01*
X128794123Y-84013063D01*
X128624605Y-83899795D01*
X128436247Y-83821774D01*
X128236288Y-83782000D01*
X128032410Y-83782000D01*
X127967625Y-83794886D01*
X127970605Y-83793652D01*
X128140123Y-83680384D01*
X128284286Y-83536221D01*
X128397554Y-83366703D01*
X128475575Y-83178345D01*
X128515349Y-82978386D01*
X128515349Y-82774508D01*
X128475575Y-82574549D01*
X128397554Y-82386191D01*
X128284286Y-82216673D01*
X128140123Y-82072510D01*
X127970605Y-81959242D01*
X127782247Y-81881221D01*
X127582288Y-81841447D01*
X127378410Y-81841447D01*
X127178451Y-81881221D01*
X126990093Y-81959242D01*
X126820575Y-82072510D01*
X126676412Y-82216673D01*
X126563144Y-82386191D01*
X126485123Y-82574549D01*
X126445349Y-82774508D01*
X101614872Y-82774508D01*
X101614872Y-81700000D01*
X101602612Y-81575518D01*
X101566302Y-81455820D01*
X101507337Y-81345506D01*
X101453578Y-81280000D01*
X101507337Y-81214494D01*
X101566302Y-81104180D01*
X101602612Y-80984482D01*
X101614872Y-80860000D01*
X101614872Y-80847861D01*
X120758000Y-80847861D01*
X120758000Y-81051739D01*
X120797774Y-81251698D01*
X120875795Y-81440056D01*
X120989063Y-81609574D01*
X121133226Y-81753737D01*
X121302744Y-81867005D01*
X121491102Y-81945026D01*
X121691061Y-81984800D01*
X121894939Y-81984800D01*
X122094898Y-81945026D01*
X122283256Y-81867005D01*
X122452774Y-81753737D01*
X122596937Y-81609574D01*
X122710205Y-81440056D01*
X122788226Y-81251698D01*
X122828000Y-81051739D01*
X122828000Y-80847861D01*
X122788226Y-80647902D01*
X122710205Y-80459544D01*
X122596937Y-80290026D01*
X122452774Y-80145863D01*
X122283256Y-80032595D01*
X122094898Y-79954574D01*
X121894939Y-79914800D01*
X121691061Y-79914800D01*
X121491102Y-79954574D01*
X121302744Y-80032595D01*
X121133226Y-80145863D01*
X120989063Y-80290026D01*
X120875795Y-80459544D01*
X120797774Y-80647902D01*
X120758000Y-80847861D01*
X101614872Y-80847861D01*
X101614872Y-79374333D01*
X126189672Y-79374333D01*
X126252165Y-79610650D01*
X126494878Y-79724050D01*
X126755049Y-79787919D01*
X127022682Y-79799804D01*
X127287491Y-79759248D01*
X127539300Y-79667809D01*
X127646235Y-79610650D01*
X127708728Y-79374333D01*
X131189672Y-79374333D01*
X131252165Y-79610650D01*
X131494878Y-79724050D01*
X131755049Y-79787919D01*
X132022682Y-79799804D01*
X132287491Y-79759248D01*
X132539300Y-79667809D01*
X132646235Y-79610650D01*
X132708728Y-79374333D01*
X131949200Y-78614805D01*
X131189672Y-79374333D01*
X127708728Y-79374333D01*
X126949200Y-78614805D01*
X126189672Y-79374333D01*
X101614872Y-79374333D01*
X101614872Y-79160000D01*
X101602612Y-79035518D01*
X101566302Y-78915820D01*
X101507337Y-78805506D01*
X101453578Y-78740000D01*
X101507337Y-78674494D01*
X101566302Y-78564180D01*
X101583137Y-78508682D01*
X125584596Y-78508682D01*
X125625152Y-78773491D01*
X125716591Y-79025300D01*
X125773750Y-79132235D01*
X126010067Y-79194728D01*
X126769595Y-78435200D01*
X127128805Y-78435200D01*
X127888333Y-79194728D01*
X128124650Y-79132235D01*
X128238050Y-78889522D01*
X128301919Y-78629351D01*
X128307277Y-78508682D01*
X130584596Y-78508682D01*
X130625152Y-78773491D01*
X130716591Y-79025300D01*
X130773750Y-79132235D01*
X131010067Y-79194728D01*
X131769595Y-78435200D01*
X132128805Y-78435200D01*
X132888333Y-79194728D01*
X133124650Y-79132235D01*
X133238050Y-78889522D01*
X133301919Y-78629351D01*
X133313804Y-78361718D01*
X133273248Y-78096909D01*
X133181809Y-77845100D01*
X133124650Y-77738165D01*
X132888333Y-77675672D01*
X132128805Y-78435200D01*
X131769595Y-78435200D01*
X131010067Y-77675672D01*
X130773750Y-77738165D01*
X130660350Y-77980878D01*
X130596481Y-78241049D01*
X130584596Y-78508682D01*
X128307277Y-78508682D01*
X128313804Y-78361718D01*
X128273248Y-78096909D01*
X128181809Y-77845100D01*
X128124650Y-77738165D01*
X127888333Y-77675672D01*
X127128805Y-78435200D01*
X126769595Y-78435200D01*
X126010067Y-77675672D01*
X125773750Y-77738165D01*
X125660350Y-77980878D01*
X125596481Y-78241049D01*
X125584596Y-78508682D01*
X101583137Y-78508682D01*
X101602612Y-78444482D01*
X101614872Y-78320000D01*
X101614872Y-76620000D01*
X101602612Y-76495518D01*
X101566302Y-76375820D01*
X101507337Y-76265506D01*
X101464000Y-76212700D01*
X101507337Y-76159894D01*
X101566302Y-76049580D01*
X101602612Y-75929882D01*
X101609277Y-75862200D01*
X124714200Y-75862200D01*
X124714200Y-76212200D01*
X124762707Y-76450696D01*
X124856810Y-76675146D01*
X124992893Y-76876925D01*
X125165726Y-77048278D01*
X125368667Y-77182621D01*
X125593918Y-77274791D01*
X125631591Y-77278662D01*
X125822200Y-77153931D01*
X125822200Y-75862200D01*
X126076200Y-75862200D01*
X126076200Y-77153931D01*
X126250062Y-77267703D01*
X126189672Y-77496067D01*
X126949200Y-78255595D01*
X127708728Y-77496067D01*
X131189672Y-77496067D01*
X131949200Y-78255595D01*
X132708728Y-77496067D01*
X132648338Y-77267703D01*
X132822200Y-77153931D01*
X132822200Y-75862200D01*
X133076200Y-75862200D01*
X133076200Y-77153931D01*
X133266809Y-77278662D01*
X133304482Y-77274791D01*
X133529733Y-77182621D01*
X133732674Y-77048278D01*
X133905507Y-76876925D01*
X134041590Y-76675146D01*
X134135693Y-76450696D01*
X134184200Y-76212200D01*
X134184200Y-75862200D01*
X133076200Y-75862200D01*
X132822200Y-75862200D01*
X131714200Y-75862200D01*
X131714200Y-76212200D01*
X131762707Y-76450696D01*
X131856810Y-76675146D01*
X131992893Y-76876925D01*
X132165726Y-77048278D01*
X132261036Y-77111371D01*
X132143351Y-77082481D01*
X131875718Y-77070596D01*
X131610909Y-77111152D01*
X131359100Y-77202591D01*
X131252165Y-77259750D01*
X131189672Y-77496067D01*
X127708728Y-77496067D01*
X127646235Y-77259750D01*
X127403522Y-77146350D01*
X127143351Y-77082481D01*
X126875718Y-77070596D01*
X126645758Y-77105815D01*
X126732674Y-77048278D01*
X126905507Y-76876925D01*
X127041590Y-76675146D01*
X127135693Y-76450696D01*
X127184200Y-76212200D01*
X127184200Y-75862200D01*
X126076200Y-75862200D01*
X125822200Y-75862200D01*
X124714200Y-75862200D01*
X101609277Y-75862200D01*
X101614872Y-75805400D01*
X101614872Y-75258200D01*
X124714200Y-75258200D01*
X124714200Y-75608200D01*
X125822200Y-75608200D01*
X125822200Y-74316469D01*
X126076200Y-74316469D01*
X126076200Y-75608200D01*
X127184200Y-75608200D01*
X127184200Y-75258200D01*
X131714200Y-75258200D01*
X131714200Y-75608200D01*
X132822200Y-75608200D01*
X132822200Y-74316469D01*
X133076200Y-74316469D01*
X133076200Y-75608200D01*
X134184200Y-75608200D01*
X134184200Y-75258200D01*
X134135693Y-75019704D01*
X134041590Y-74795254D01*
X133905507Y-74593475D01*
X133732674Y-74422122D01*
X133529733Y-74287779D01*
X133304482Y-74195609D01*
X133266809Y-74191738D01*
X133076200Y-74316469D01*
X132822200Y-74316469D01*
X132631591Y-74191738D01*
X132593918Y-74195609D01*
X132368667Y-74287779D01*
X132165726Y-74422122D01*
X131992893Y-74593475D01*
X131856810Y-74795254D01*
X131762707Y-75019704D01*
X131714200Y-75258200D01*
X127184200Y-75258200D01*
X127135693Y-75019704D01*
X127041590Y-74795254D01*
X126905507Y-74593475D01*
X126732674Y-74422122D01*
X126529733Y-74287779D01*
X126304482Y-74195609D01*
X126266809Y-74191738D01*
X126076200Y-74316469D01*
X125822200Y-74316469D01*
X125631591Y-74191738D01*
X125593918Y-74195609D01*
X125368667Y-74287779D01*
X125165726Y-74422122D01*
X124992893Y-74593475D01*
X124856810Y-74795254D01*
X124762707Y-75019704D01*
X124714200Y-75258200D01*
X101614872Y-75258200D01*
X101614872Y-74105400D01*
X101602612Y-73980918D01*
X101566302Y-73861220D01*
X101507337Y-73750906D01*
X101432455Y-73659661D01*
X112325200Y-73659661D01*
X112325200Y-73863539D01*
X112364974Y-74063498D01*
X112442995Y-74251856D01*
X112556263Y-74421374D01*
X112700426Y-74565537D01*
X112869944Y-74678805D01*
X113058302Y-74756826D01*
X113258261Y-74796600D01*
X113462139Y-74796600D01*
X113662098Y-74756826D01*
X113850456Y-74678805D01*
X114019974Y-74565537D01*
X114164137Y-74421374D01*
X114277405Y-74251856D01*
X114355426Y-74063498D01*
X114395200Y-73863539D01*
X114395200Y-73659661D01*
X114355426Y-73459702D01*
X114277405Y-73271344D01*
X114164137Y-73101826D01*
X114019974Y-72957663D01*
X113850456Y-72844395D01*
X113662098Y-72766374D01*
X113462139Y-72726600D01*
X113258261Y-72726600D01*
X113058302Y-72766374D01*
X112869944Y-72844395D01*
X112700426Y-72957663D01*
X112556263Y-73101826D01*
X112442995Y-73271344D01*
X112364974Y-73459702D01*
X112325200Y-73659661D01*
X101432455Y-73659661D01*
X101427985Y-73654215D01*
X101331294Y-73574863D01*
X101220980Y-73515898D01*
X101101282Y-73479588D01*
X100976800Y-73467328D01*
X99276800Y-73467328D01*
X99152318Y-73479588D01*
X99032620Y-73515898D01*
X98922306Y-73574863D01*
X98825615Y-73654215D01*
X98746263Y-73750906D01*
X98687298Y-73861220D01*
X98650988Y-73980918D01*
X98638728Y-74105400D01*
X97246937Y-74105400D01*
X97252068Y-74040209D01*
X97460430Y-73172322D01*
X97801989Y-72347725D01*
X98268345Y-71586701D01*
X98848006Y-70908006D01*
X99526701Y-70328345D01*
X100287720Y-69861991D01*
X101112322Y-69520430D01*
X101980207Y-69312069D01*
X102895926Y-69240000D01*
X104914157Y-69240000D01*
X104843945Y-69253966D01*
%TD*%
M02*
