%TF.GenerationSoftware,KiCad,Pcbnew,(5.1.6)-1*%
%TF.CreationDate,2022-05-16T14:52:33-05:00*%
%TF.ProjectId,ESP32-S2_Dev,45535033-322d-4533-925f-4465762e6b69,rev?*%
%TF.SameCoordinates,Original*%
%TF.FileFunction,Paste,Top*%
%TF.FilePolarity,Positive*%
%FSLAX46Y46*%
G04 Gerber Fmt 4.6, Leading zero omitted, Abs format (unit mm)*
G04 Created by KiCad (PCBNEW (5.1.6)-1) date 2022-05-16 14:52:33*
%MOMM*%
%LPD*%
G01*
G04 APERTURE LIST*
%ADD10C,0.100000*%
%ADD11C,0.152400*%
%ADD12R,0.204000X0.757199*%
%ADD13R,0.757199X0.204000*%
%ADD14R,1.500000X1.900000*%
%ADD15R,0.400000X1.350000*%
%ADD16R,0.900000X1.700000*%
%ADD17R,1.000000X1.800000*%
%ADD18R,0.950000X1.050000*%
%ADD19R,0.800000X2.200000*%
%ADD20R,2.750000X3.050000*%
%ADD21R,3.352800X3.352800*%
%ADD22R,0.960399X0.254800*%
%ADD23R,0.254800X0.960399*%
%ADD24R,4.000000X3.400000*%
%ADD25R,0.480000X0.700000*%
%ADD26R,0.900000X0.800000*%
%ADD27R,0.800000X0.900000*%
%ADD28R,1.400000X1.000000*%
%ADD29R,1.400000X1.200000*%
%ADD30R,2.500000X1.800000*%
G04 APERTURE END LIST*
D10*
%TO.C,U3*%
G36*
X122104666Y-101708466D02*
G01*
X122104666Y-102846200D01*
X123242400Y-102846200D01*
X123242400Y-101708466D01*
X122104666Y-101708466D01*
G37*
X122104666Y-101708466D02*
X122104666Y-102846200D01*
X123242400Y-102846200D01*
X123242400Y-101708466D01*
X122104666Y-101708466D01*
G36*
X122104666Y-100370733D02*
G01*
X122104666Y-101508467D01*
X123242400Y-101508467D01*
X123242400Y-100370733D01*
X122104666Y-100370733D01*
G37*
X122104666Y-100370733D02*
X122104666Y-101508467D01*
X123242400Y-101508467D01*
X123242400Y-100370733D01*
X122104666Y-100370733D01*
G36*
X122104666Y-99033000D02*
G01*
X122104666Y-100170734D01*
X123242400Y-100170734D01*
X123242400Y-99033000D01*
X122104666Y-99033000D01*
G37*
X122104666Y-99033000D02*
X122104666Y-100170734D01*
X123242400Y-100170734D01*
X123242400Y-99033000D01*
X122104666Y-99033000D01*
G36*
X120766933Y-101708466D02*
G01*
X120766933Y-102846200D01*
X121904667Y-102846200D01*
X121904667Y-101708466D01*
X120766933Y-101708466D01*
G37*
X120766933Y-101708466D02*
X120766933Y-102846200D01*
X121904667Y-102846200D01*
X121904667Y-101708466D01*
X120766933Y-101708466D01*
G36*
X120766933Y-100370733D02*
G01*
X120766933Y-101508467D01*
X121904667Y-101508467D01*
X121904667Y-100370733D01*
X120766933Y-100370733D01*
G37*
X120766933Y-100370733D02*
X120766933Y-101508467D01*
X121904667Y-101508467D01*
X121904667Y-100370733D01*
X120766933Y-100370733D01*
G36*
X120766933Y-99033000D02*
G01*
X120766933Y-100170734D01*
X121904667Y-100170734D01*
X121904667Y-99033000D01*
X120766933Y-99033000D01*
G37*
X120766933Y-99033000D02*
X120766933Y-100170734D01*
X121904667Y-100170734D01*
X121904667Y-99033000D01*
X120766933Y-99033000D01*
G36*
X119429200Y-101708466D02*
G01*
X119429200Y-102846200D01*
X120566934Y-102846200D01*
X120566934Y-101708466D01*
X119429200Y-101708466D01*
G37*
X119429200Y-101708466D02*
X119429200Y-102846200D01*
X120566934Y-102846200D01*
X120566934Y-101708466D01*
X119429200Y-101708466D01*
G36*
X119429200Y-100370733D02*
G01*
X119429200Y-101508467D01*
X120566934Y-101508467D01*
X120566934Y-100370733D01*
X119429200Y-100370733D01*
G37*
X119429200Y-100370733D02*
X119429200Y-101508467D01*
X120566934Y-101508467D01*
X120566934Y-100370733D01*
X119429200Y-100370733D01*
G36*
X119429200Y-99033000D02*
G01*
X119429200Y-100170734D01*
X120566934Y-100170734D01*
X120566934Y-99033000D01*
X119429200Y-99033000D01*
G37*
X119429200Y-99033000D02*
X119429200Y-100170734D01*
X120566934Y-100170734D01*
X120566934Y-99033000D01*
X119429200Y-99033000D01*
D11*
%TO.C,U1*%
X125706200Y-82904000D02*
X124229800Y-82904000D01*
X124229800Y-82904000D02*
X124229800Y-84380400D01*
X124229800Y-84380400D02*
X125706200Y-84380400D01*
X125706200Y-84380400D02*
X125706200Y-82904000D01*
X124029800Y-82904000D02*
X122553400Y-82904000D01*
X122553400Y-82904000D02*
X122553400Y-84380400D01*
X122553400Y-84380400D02*
X124029800Y-84380400D01*
X124029800Y-84380400D02*
X124029800Y-82904000D01*
X125706200Y-84580400D02*
X124229800Y-84580400D01*
X124229800Y-84580400D02*
X124229800Y-86056800D01*
X124229800Y-86056800D02*
X125706200Y-86056800D01*
X125706200Y-86056800D02*
X125706200Y-84580400D01*
X124029800Y-84580400D02*
X122553400Y-84580400D01*
X122553400Y-84580400D02*
X122553400Y-86056800D01*
X122553400Y-86056800D02*
X124029800Y-86056800D01*
X124029800Y-86056800D02*
X124029800Y-84580400D01*
%TD*%
%TO.C,C34*%
G36*
G01*
X123525500Y-95717000D02*
X123870500Y-95717000D01*
G75*
G02*
X124018000Y-95864500I0J-147500D01*
G01*
X124018000Y-96159500D01*
G75*
G02*
X123870500Y-96307000I-147500J0D01*
G01*
X123525500Y-96307000D01*
G75*
G02*
X123378000Y-96159500I0J147500D01*
G01*
X123378000Y-95864500D01*
G75*
G02*
X123525500Y-95717000I147500J0D01*
G01*
G37*
G36*
G01*
X123525500Y-94747000D02*
X123870500Y-94747000D01*
G75*
G02*
X124018000Y-94894500I0J-147500D01*
G01*
X124018000Y-95189500D01*
G75*
G02*
X123870500Y-95337000I-147500J0D01*
G01*
X123525500Y-95337000D01*
G75*
G02*
X123378000Y-95189500I0J147500D01*
G01*
X123378000Y-94894500D01*
G75*
G02*
X123525500Y-94747000I147500J0D01*
G01*
G37*
%TD*%
D12*
%TO.C,U3*%
X118735800Y-97487600D03*
X119135799Y-97487600D03*
X119535801Y-97487600D03*
X119935800Y-97487600D03*
X120335799Y-97487600D03*
X120735801Y-97487600D03*
X121135800Y-97487600D03*
X121535800Y-97487600D03*
X121935799Y-97487600D03*
X122335801Y-97487600D03*
X122735800Y-97487600D03*
X123135799Y-97487600D03*
X123535801Y-97487600D03*
X123935800Y-97487600D03*
D13*
X124787800Y-98339600D03*
X124787800Y-98739599D03*
X124787800Y-99139601D03*
X124787800Y-99539600D03*
X124787800Y-99939599D03*
X124787800Y-100339601D03*
X124787800Y-100739600D03*
X124787800Y-101139600D03*
X124787800Y-101539599D03*
X124787800Y-101939601D03*
X124787800Y-102339600D03*
X124787800Y-102739599D03*
X124787800Y-103139601D03*
X124787800Y-103539600D03*
D12*
X123935800Y-104391600D03*
X123535801Y-104391600D03*
X123135799Y-104391600D03*
X122735800Y-104391600D03*
X122335801Y-104391600D03*
X121935799Y-104391600D03*
X121535800Y-104391600D03*
X121135800Y-104391600D03*
X120735801Y-104391600D03*
X120335799Y-104391600D03*
X119935800Y-104391600D03*
X119535801Y-104391600D03*
X119135799Y-104391600D03*
X118735800Y-104391600D03*
D13*
X117883800Y-103539600D03*
X117883800Y-103139601D03*
X117883800Y-102739599D03*
X117883800Y-102339600D03*
X117883800Y-101939601D03*
X117883800Y-101539599D03*
X117883800Y-101139600D03*
X117883800Y-100739600D03*
X117883800Y-100339601D03*
X117883800Y-99939599D03*
X117883800Y-99539600D03*
X117883800Y-99139601D03*
X117883800Y-98739599D03*
X117883800Y-98339600D03*
%TD*%
D14*
%TO.C,UART1*%
X130449200Y-75735200D03*
D15*
X129449200Y-78435200D03*
X128799200Y-78435200D03*
X128149200Y-78435200D03*
X130749200Y-78435200D03*
X130099200Y-78435200D03*
D14*
X128449200Y-75735200D03*
%TD*%
%TO.C,C36*%
G36*
G01*
X110256100Y-105575600D02*
X109911100Y-105575600D01*
G75*
G02*
X109763600Y-105428100I0J147500D01*
G01*
X109763600Y-105133100D01*
G75*
G02*
X109911100Y-104985600I147500J0D01*
G01*
X110256100Y-104985600D01*
G75*
G02*
X110403600Y-105133100I0J-147500D01*
G01*
X110403600Y-105428100D01*
G75*
G02*
X110256100Y-105575600I-147500J0D01*
G01*
G37*
G36*
G01*
X110256100Y-106545600D02*
X109911100Y-106545600D01*
G75*
G02*
X109763600Y-106398100I0J147500D01*
G01*
X109763600Y-106103100D01*
G75*
G02*
X109911100Y-105955600I147500J0D01*
G01*
X110256100Y-105955600D01*
G75*
G02*
X110403600Y-106103100I0J-147500D01*
G01*
X110403600Y-106398100D01*
G75*
G02*
X110256100Y-106545600I-147500J0D01*
G01*
G37*
%TD*%
%TO.C,R41*%
G36*
G01*
X113898900Y-88328000D02*
X114243900Y-88328000D01*
G75*
G02*
X114391400Y-88475500I0J-147500D01*
G01*
X114391400Y-88770500D01*
G75*
G02*
X114243900Y-88918000I-147500J0D01*
G01*
X113898900Y-88918000D01*
G75*
G02*
X113751400Y-88770500I0J147500D01*
G01*
X113751400Y-88475500D01*
G75*
G02*
X113898900Y-88328000I147500J0D01*
G01*
G37*
G36*
G01*
X113898900Y-87358000D02*
X114243900Y-87358000D01*
G75*
G02*
X114391400Y-87505500I0J-147500D01*
G01*
X114391400Y-87800500D01*
G75*
G02*
X114243900Y-87948000I-147500J0D01*
G01*
X113898900Y-87948000D01*
G75*
G02*
X113751400Y-87800500I0J147500D01*
G01*
X113751400Y-87505500D01*
G75*
G02*
X113898900Y-87358000I147500J0D01*
G01*
G37*
%TD*%
D16*
%TO.C,RST1*%
X130911600Y-120319800D03*
X134311600Y-120319800D03*
%TD*%
%TO.C,R38*%
G36*
G01*
X111363400Y-117723700D02*
X111363400Y-117378700D01*
G75*
G02*
X111510900Y-117231200I147500J0D01*
G01*
X111805900Y-117231200D01*
G75*
G02*
X111953400Y-117378700I0J-147500D01*
G01*
X111953400Y-117723700D01*
G75*
G02*
X111805900Y-117871200I-147500J0D01*
G01*
X111510900Y-117871200D01*
G75*
G02*
X111363400Y-117723700I0J147500D01*
G01*
G37*
G36*
G01*
X110393400Y-117723700D02*
X110393400Y-117378700D01*
G75*
G02*
X110540900Y-117231200I147500J0D01*
G01*
X110835900Y-117231200D01*
G75*
G02*
X110983400Y-117378700I0J-147500D01*
G01*
X110983400Y-117723700D01*
G75*
G02*
X110835900Y-117871200I-147500J0D01*
G01*
X110540900Y-117871200D01*
G75*
G02*
X110393400Y-117723700I0J147500D01*
G01*
G37*
%TD*%
%TO.C,R37*%
G36*
G01*
X134279000Y-118206300D02*
X134279000Y-117861300D01*
G75*
G02*
X134426500Y-117713800I147500J0D01*
G01*
X134721500Y-117713800D01*
G75*
G02*
X134869000Y-117861300I0J-147500D01*
G01*
X134869000Y-118206300D01*
G75*
G02*
X134721500Y-118353800I-147500J0D01*
G01*
X134426500Y-118353800D01*
G75*
G02*
X134279000Y-118206300I0J147500D01*
G01*
G37*
G36*
G01*
X133309000Y-118206300D02*
X133309000Y-117861300D01*
G75*
G02*
X133456500Y-117713800I147500J0D01*
G01*
X133751500Y-117713800D01*
G75*
G02*
X133899000Y-117861300I0J-147500D01*
G01*
X133899000Y-118206300D01*
G75*
G02*
X133751500Y-118353800I-147500J0D01*
G01*
X133456500Y-118353800D01*
G75*
G02*
X133309000Y-118206300I0J147500D01*
G01*
G37*
%TD*%
%TO.C,BOOT1*%
X108028000Y-119837200D03*
X111428000Y-119837200D03*
%TD*%
D17*
%TO.C,Y2*%
X120345200Y-108991400D03*
X122845200Y-108991400D03*
%TD*%
D18*
%TO.C,Y1*%
X119534600Y-93522800D03*
X118084600Y-93522800D03*
X118084600Y-91672800D03*
X119534600Y-91672800D03*
%TD*%
%TO.C,USER_LED1*%
G36*
G01*
X114621300Y-72776800D02*
X115096300Y-72776800D01*
G75*
G02*
X115333800Y-73014300I0J-237500D01*
G01*
X115333800Y-73589300D01*
G75*
G02*
X115096300Y-73826800I-237500J0D01*
G01*
X114621300Y-73826800D01*
G75*
G02*
X114383800Y-73589300I0J237500D01*
G01*
X114383800Y-73014300D01*
G75*
G02*
X114621300Y-72776800I237500J0D01*
G01*
G37*
G36*
G01*
X114621300Y-71026800D02*
X115096300Y-71026800D01*
G75*
G02*
X115333800Y-71264300I0J-237500D01*
G01*
X115333800Y-71839300D01*
G75*
G02*
X115096300Y-72076800I-237500J0D01*
G01*
X114621300Y-72076800D01*
G75*
G02*
X114383800Y-71839300I0J237500D01*
G01*
X114383800Y-71264300D01*
G75*
G02*
X114621300Y-71026800I237500J0D01*
G01*
G37*
%TD*%
D14*
%TO.C,USB1*%
X120920000Y-125697500D03*
D15*
X121920000Y-122997500D03*
X122570000Y-122997500D03*
X123220000Y-122997500D03*
X120620000Y-122997500D03*
X121270000Y-122997500D03*
D14*
X122920000Y-125697500D03*
%TD*%
D19*
%TO.C,U2*%
X109784800Y-84057600D03*
X110924800Y-84057600D03*
X112064800Y-84057600D03*
X113204800Y-84057600D03*
X114344800Y-84057600D03*
D20*
X113589800Y-76082600D03*
X110539800Y-79432600D03*
X110539800Y-76082600D03*
X113589800Y-79432600D03*
%TD*%
D21*
%TO.C,U1*%
X124129800Y-84480400D03*
D22*
X126451500Y-82980400D03*
X126451500Y-83480399D03*
X126451500Y-83980401D03*
X126451500Y-84480400D03*
X126451500Y-84980399D03*
X126451500Y-85480401D03*
X126451500Y-85980400D03*
D23*
X125629800Y-86802100D03*
X125129801Y-86802100D03*
X124629799Y-86802100D03*
X124129800Y-86802100D03*
X123629801Y-86802100D03*
X123129799Y-86802100D03*
X122629800Y-86802100D03*
D22*
X121808100Y-85980400D03*
X121808100Y-85480401D03*
X121808100Y-84980399D03*
X121808100Y-84480400D03*
X121808100Y-83980401D03*
X121808100Y-83480399D03*
X121808100Y-82980400D03*
D23*
X122629800Y-82158700D03*
X123129799Y-82158700D03*
X123629801Y-82158700D03*
X124129800Y-82158700D03*
X124629799Y-82158700D03*
X125129801Y-82158700D03*
X125629800Y-82158700D03*
%TD*%
%TO.C,SRAM1*%
G36*
G01*
X130455800Y-90548600D02*
X130455800Y-90248600D01*
G75*
G02*
X130605800Y-90098600I150000J0D01*
G01*
X132255800Y-90098600D01*
G75*
G02*
X132405800Y-90248600I0J-150000D01*
G01*
X132405800Y-90548600D01*
G75*
G02*
X132255800Y-90698600I-150000J0D01*
G01*
X130605800Y-90698600D01*
G75*
G02*
X130455800Y-90548600I0J150000D01*
G01*
G37*
G36*
G01*
X130455800Y-91818600D02*
X130455800Y-91518600D01*
G75*
G02*
X130605800Y-91368600I150000J0D01*
G01*
X132255800Y-91368600D01*
G75*
G02*
X132405800Y-91518600I0J-150000D01*
G01*
X132405800Y-91818600D01*
G75*
G02*
X132255800Y-91968600I-150000J0D01*
G01*
X130605800Y-91968600D01*
G75*
G02*
X130455800Y-91818600I0J150000D01*
G01*
G37*
G36*
G01*
X130455800Y-93088600D02*
X130455800Y-92788600D01*
G75*
G02*
X130605800Y-92638600I150000J0D01*
G01*
X132255800Y-92638600D01*
G75*
G02*
X132405800Y-92788600I0J-150000D01*
G01*
X132405800Y-93088600D01*
G75*
G02*
X132255800Y-93238600I-150000J0D01*
G01*
X130605800Y-93238600D01*
G75*
G02*
X130455800Y-93088600I0J150000D01*
G01*
G37*
G36*
G01*
X130455800Y-94358600D02*
X130455800Y-94058600D01*
G75*
G02*
X130605800Y-93908600I150000J0D01*
G01*
X132255800Y-93908600D01*
G75*
G02*
X132405800Y-94058600I0J-150000D01*
G01*
X132405800Y-94358600D01*
G75*
G02*
X132255800Y-94508600I-150000J0D01*
G01*
X130605800Y-94508600D01*
G75*
G02*
X130455800Y-94358600I0J150000D01*
G01*
G37*
G36*
G01*
X125505800Y-94358600D02*
X125505800Y-94058600D01*
G75*
G02*
X125655800Y-93908600I150000J0D01*
G01*
X127305800Y-93908600D01*
G75*
G02*
X127455800Y-94058600I0J-150000D01*
G01*
X127455800Y-94358600D01*
G75*
G02*
X127305800Y-94508600I-150000J0D01*
G01*
X125655800Y-94508600D01*
G75*
G02*
X125505800Y-94358600I0J150000D01*
G01*
G37*
G36*
G01*
X125505800Y-93088600D02*
X125505800Y-92788600D01*
G75*
G02*
X125655800Y-92638600I150000J0D01*
G01*
X127305800Y-92638600D01*
G75*
G02*
X127455800Y-92788600I0J-150000D01*
G01*
X127455800Y-93088600D01*
G75*
G02*
X127305800Y-93238600I-150000J0D01*
G01*
X125655800Y-93238600D01*
G75*
G02*
X125505800Y-93088600I0J150000D01*
G01*
G37*
G36*
G01*
X125505800Y-91818600D02*
X125505800Y-91518600D01*
G75*
G02*
X125655800Y-91368600I150000J0D01*
G01*
X127305800Y-91368600D01*
G75*
G02*
X127455800Y-91518600I0J-150000D01*
G01*
X127455800Y-91818600D01*
G75*
G02*
X127305800Y-91968600I-150000J0D01*
G01*
X125655800Y-91968600D01*
G75*
G02*
X125505800Y-91818600I0J150000D01*
G01*
G37*
G36*
G01*
X125505800Y-90548600D02*
X125505800Y-90248600D01*
G75*
G02*
X125655800Y-90098600I150000J0D01*
G01*
X127305800Y-90098600D01*
G75*
G02*
X127455800Y-90248600I0J-150000D01*
G01*
X127455800Y-90548600D01*
G75*
G02*
X127305800Y-90698600I-150000J0D01*
G01*
X125655800Y-90698600D01*
G75*
G02*
X125505800Y-90548600I0J150000D01*
G01*
G37*
%TD*%
D24*
%TO.C,SPI_FLASH_16Mb1*%
X132490200Y-109484400D03*
D25*
X130593200Y-106770400D03*
X131863200Y-106770400D03*
X133133200Y-106770400D03*
X134403200Y-106770400D03*
X134403200Y-112070400D03*
X133133200Y-112070400D03*
X131863200Y-112070400D03*
X130593200Y-112070400D03*
%TD*%
%TO.C,RESET_EN1*%
G36*
G01*
X108645000Y-94099801D02*
X108645000Y-93199799D01*
G75*
G02*
X108894999Y-92949800I249999J0D01*
G01*
X109545001Y-92949800D01*
G75*
G02*
X109795000Y-93199799I0J-249999D01*
G01*
X109795000Y-94099801D01*
G75*
G02*
X109545001Y-94349800I-249999J0D01*
G01*
X108894999Y-94349800D01*
G75*
G02*
X108645000Y-94099801I0J249999D01*
G01*
G37*
G36*
G01*
X106595000Y-94099801D02*
X106595000Y-93199799D01*
G75*
G02*
X106844999Y-92949800I249999J0D01*
G01*
X107495001Y-92949800D01*
G75*
G02*
X107745000Y-93199799I0J-249999D01*
G01*
X107745000Y-94099801D01*
G75*
G02*
X107495001Y-94349800I-249999J0D01*
G01*
X106844999Y-94349800D01*
G75*
G02*
X106595000Y-94099801I0J249999D01*
G01*
G37*
%TD*%
%TO.C,R36*%
G36*
G01*
X121726600Y-91663300D02*
X121726600Y-91318300D01*
G75*
G02*
X121874100Y-91170800I147500J0D01*
G01*
X122169100Y-91170800D01*
G75*
G02*
X122316600Y-91318300I0J-147500D01*
G01*
X122316600Y-91663300D01*
G75*
G02*
X122169100Y-91810800I-147500J0D01*
G01*
X121874100Y-91810800D01*
G75*
G02*
X121726600Y-91663300I0J147500D01*
G01*
G37*
G36*
G01*
X120756600Y-91663300D02*
X120756600Y-91318300D01*
G75*
G02*
X120904100Y-91170800I147500J0D01*
G01*
X121199100Y-91170800D01*
G75*
G02*
X121346600Y-91318300I0J-147500D01*
G01*
X121346600Y-91663300D01*
G75*
G02*
X121199100Y-91810800I-147500J0D01*
G01*
X120904100Y-91810800D01*
G75*
G02*
X120756600Y-91663300I0J147500D01*
G01*
G37*
%TD*%
%TO.C,R35*%
G36*
G01*
X128859500Y-104022800D02*
X129204500Y-104022800D01*
G75*
G02*
X129352000Y-104170300I0J-147500D01*
G01*
X129352000Y-104465300D01*
G75*
G02*
X129204500Y-104612800I-147500J0D01*
G01*
X128859500Y-104612800D01*
G75*
G02*
X128712000Y-104465300I0J147500D01*
G01*
X128712000Y-104170300D01*
G75*
G02*
X128859500Y-104022800I147500J0D01*
G01*
G37*
G36*
G01*
X128859500Y-103052800D02*
X129204500Y-103052800D01*
G75*
G02*
X129352000Y-103200300I0J-147500D01*
G01*
X129352000Y-103495300D01*
G75*
G02*
X129204500Y-103642800I-147500J0D01*
G01*
X128859500Y-103642800D01*
G75*
G02*
X128712000Y-103495300I0J147500D01*
G01*
X128712000Y-103200300D01*
G75*
G02*
X128859500Y-103052800I147500J0D01*
G01*
G37*
%TD*%
%TO.C,R34*%
G36*
G01*
X129926300Y-104027600D02*
X130271300Y-104027600D01*
G75*
G02*
X130418800Y-104175100I0J-147500D01*
G01*
X130418800Y-104470100D01*
G75*
G02*
X130271300Y-104617600I-147500J0D01*
G01*
X129926300Y-104617600D01*
G75*
G02*
X129778800Y-104470100I0J147500D01*
G01*
X129778800Y-104175100D01*
G75*
G02*
X129926300Y-104027600I147500J0D01*
G01*
G37*
G36*
G01*
X129926300Y-103057600D02*
X130271300Y-103057600D01*
G75*
G02*
X130418800Y-103205100I0J-147500D01*
G01*
X130418800Y-103500100D01*
G75*
G02*
X130271300Y-103647600I-147500J0D01*
G01*
X129926300Y-103647600D01*
G75*
G02*
X129778800Y-103500100I0J147500D01*
G01*
X129778800Y-103205100D01*
G75*
G02*
X129926300Y-103057600I147500J0D01*
G01*
G37*
%TD*%
%TO.C,R33*%
G36*
G01*
X130118900Y-99202600D02*
X129773900Y-99202600D01*
G75*
G02*
X129626400Y-99055100I0J147500D01*
G01*
X129626400Y-98760100D01*
G75*
G02*
X129773900Y-98612600I147500J0D01*
G01*
X130118900Y-98612600D01*
G75*
G02*
X130266400Y-98760100I0J-147500D01*
G01*
X130266400Y-99055100D01*
G75*
G02*
X130118900Y-99202600I-147500J0D01*
G01*
G37*
G36*
G01*
X130118900Y-100172600D02*
X129773900Y-100172600D01*
G75*
G02*
X129626400Y-100025100I0J147500D01*
G01*
X129626400Y-99730100D01*
G75*
G02*
X129773900Y-99582600I147500J0D01*
G01*
X130118900Y-99582600D01*
G75*
G02*
X130266400Y-99730100I0J-147500D01*
G01*
X130266400Y-100025100D01*
G75*
G02*
X130118900Y-100172600I-147500J0D01*
G01*
G37*
%TD*%
%TO.C,R32*%
G36*
G01*
X129026700Y-99202600D02*
X128681700Y-99202600D01*
G75*
G02*
X128534200Y-99055100I0J147500D01*
G01*
X128534200Y-98760100D01*
G75*
G02*
X128681700Y-98612600I147500J0D01*
G01*
X129026700Y-98612600D01*
G75*
G02*
X129174200Y-98760100I0J-147500D01*
G01*
X129174200Y-99055100D01*
G75*
G02*
X129026700Y-99202600I-147500J0D01*
G01*
G37*
G36*
G01*
X129026700Y-100172600D02*
X128681700Y-100172600D01*
G75*
G02*
X128534200Y-100025100I0J147500D01*
G01*
X128534200Y-99730100D01*
G75*
G02*
X128681700Y-99582600I147500J0D01*
G01*
X129026700Y-99582600D01*
G75*
G02*
X129174200Y-99730100I0J-147500D01*
G01*
X129174200Y-100025100D01*
G75*
G02*
X129026700Y-100172600I-147500J0D01*
G01*
G37*
%TD*%
%TO.C,R31*%
G36*
G01*
X127909100Y-99225600D02*
X127564100Y-99225600D01*
G75*
G02*
X127416600Y-99078100I0J147500D01*
G01*
X127416600Y-98783100D01*
G75*
G02*
X127564100Y-98635600I147500J0D01*
G01*
X127909100Y-98635600D01*
G75*
G02*
X128056600Y-98783100I0J-147500D01*
G01*
X128056600Y-99078100D01*
G75*
G02*
X127909100Y-99225600I-147500J0D01*
G01*
G37*
G36*
G01*
X127909100Y-100195600D02*
X127564100Y-100195600D01*
G75*
G02*
X127416600Y-100048100I0J147500D01*
G01*
X127416600Y-99753100D01*
G75*
G02*
X127564100Y-99605600I147500J0D01*
G01*
X127909100Y-99605600D01*
G75*
G02*
X128056600Y-99753100I0J-147500D01*
G01*
X128056600Y-100048100D01*
G75*
G02*
X127909100Y-100195600I-147500J0D01*
G01*
G37*
%TD*%
%TO.C,R30*%
G36*
G01*
X122752900Y-95337000D02*
X122407900Y-95337000D01*
G75*
G02*
X122260400Y-95189500I0J147500D01*
G01*
X122260400Y-94894500D01*
G75*
G02*
X122407900Y-94747000I147500J0D01*
G01*
X122752900Y-94747000D01*
G75*
G02*
X122900400Y-94894500I0J-147500D01*
G01*
X122900400Y-95189500D01*
G75*
G02*
X122752900Y-95337000I-147500J0D01*
G01*
G37*
G36*
G01*
X122752900Y-96307000D02*
X122407900Y-96307000D01*
G75*
G02*
X122260400Y-96159500I0J147500D01*
G01*
X122260400Y-95864500D01*
G75*
G02*
X122407900Y-95717000I147500J0D01*
G01*
X122752900Y-95717000D01*
G75*
G02*
X122900400Y-95864500I0J-147500D01*
G01*
X122900400Y-96159500D01*
G75*
G02*
X122752900Y-96307000I-147500J0D01*
G01*
G37*
%TD*%
%TO.C,R28*%
G36*
G01*
X113481900Y-71827400D02*
X113136900Y-71827400D01*
G75*
G02*
X112989400Y-71679900I0J147500D01*
G01*
X112989400Y-71384900D01*
G75*
G02*
X113136900Y-71237400I147500J0D01*
G01*
X113481900Y-71237400D01*
G75*
G02*
X113629400Y-71384900I0J-147500D01*
G01*
X113629400Y-71679900D01*
G75*
G02*
X113481900Y-71827400I-147500J0D01*
G01*
G37*
G36*
G01*
X113481900Y-72797400D02*
X113136900Y-72797400D01*
G75*
G02*
X112989400Y-72649900I0J147500D01*
G01*
X112989400Y-72354900D01*
G75*
G02*
X113136900Y-72207400I147500J0D01*
G01*
X113481900Y-72207400D01*
G75*
G02*
X113629400Y-72354900I0J-147500D01*
G01*
X113629400Y-72649900D01*
G75*
G02*
X113481900Y-72797400I-147500J0D01*
G01*
G37*
%TD*%
%TO.C,R26*%
G36*
G01*
X105887300Y-93462200D02*
X105542300Y-93462200D01*
G75*
G02*
X105394800Y-93314700I0J147500D01*
G01*
X105394800Y-93019700D01*
G75*
G02*
X105542300Y-92872200I147500J0D01*
G01*
X105887300Y-92872200D01*
G75*
G02*
X106034800Y-93019700I0J-147500D01*
G01*
X106034800Y-93314700D01*
G75*
G02*
X105887300Y-93462200I-147500J0D01*
G01*
G37*
G36*
G01*
X105887300Y-94432200D02*
X105542300Y-94432200D01*
G75*
G02*
X105394800Y-94284700I0J147500D01*
G01*
X105394800Y-93989700D01*
G75*
G02*
X105542300Y-93842200I147500J0D01*
G01*
X105887300Y-93842200D01*
G75*
G02*
X106034800Y-93989700I0J-147500D01*
G01*
X106034800Y-94284700D01*
G75*
G02*
X105887300Y-94432200I-147500J0D01*
G01*
G37*
%TD*%
%TO.C,R24*%
G36*
G01*
X128213900Y-112588400D02*
X127868900Y-112588400D01*
G75*
G02*
X127721400Y-112440900I0J147500D01*
G01*
X127721400Y-112145900D01*
G75*
G02*
X127868900Y-111998400I147500J0D01*
G01*
X128213900Y-111998400D01*
G75*
G02*
X128361400Y-112145900I0J-147500D01*
G01*
X128361400Y-112440900D01*
G75*
G02*
X128213900Y-112588400I-147500J0D01*
G01*
G37*
G36*
G01*
X128213900Y-113558400D02*
X127868900Y-113558400D01*
G75*
G02*
X127721400Y-113410900I0J147500D01*
G01*
X127721400Y-113115900D01*
G75*
G02*
X127868900Y-112968400I147500J0D01*
G01*
X128213900Y-112968400D01*
G75*
G02*
X128361400Y-113115900I0J-147500D01*
G01*
X128361400Y-113410900D01*
G75*
G02*
X128213900Y-113558400I-147500J0D01*
G01*
G37*
%TD*%
%TO.C,R23*%
G36*
G01*
X112531800Y-88843900D02*
X112531800Y-88498900D01*
G75*
G02*
X112679300Y-88351400I147500J0D01*
G01*
X112974300Y-88351400D01*
G75*
G02*
X113121800Y-88498900I0J-147500D01*
G01*
X113121800Y-88843900D01*
G75*
G02*
X112974300Y-88991400I-147500J0D01*
G01*
X112679300Y-88991400D01*
G75*
G02*
X112531800Y-88843900I0J147500D01*
G01*
G37*
G36*
G01*
X111561800Y-88843900D02*
X111561800Y-88498900D01*
G75*
G02*
X111709300Y-88351400I147500J0D01*
G01*
X112004300Y-88351400D01*
G75*
G02*
X112151800Y-88498900I0J-147500D01*
G01*
X112151800Y-88843900D01*
G75*
G02*
X112004300Y-88991400I-147500J0D01*
G01*
X111709300Y-88991400D01*
G75*
G02*
X111561800Y-88843900I0J147500D01*
G01*
G37*
%TD*%
%TO.C,R22*%
G36*
G01*
X128747300Y-86932000D02*
X128402300Y-86932000D01*
G75*
G02*
X128254800Y-86784500I0J147500D01*
G01*
X128254800Y-86489500D01*
G75*
G02*
X128402300Y-86342000I147500J0D01*
G01*
X128747300Y-86342000D01*
G75*
G02*
X128894800Y-86489500I0J-147500D01*
G01*
X128894800Y-86784500D01*
G75*
G02*
X128747300Y-86932000I-147500J0D01*
G01*
G37*
G36*
G01*
X128747300Y-87902000D02*
X128402300Y-87902000D01*
G75*
G02*
X128254800Y-87754500I0J147500D01*
G01*
X128254800Y-87459500D01*
G75*
G02*
X128402300Y-87312000I147500J0D01*
G01*
X128747300Y-87312000D01*
G75*
G02*
X128894800Y-87459500I0J-147500D01*
G01*
X128894800Y-87754500D01*
G75*
G02*
X128747300Y-87902000I-147500J0D01*
G01*
G37*
%TD*%
%TO.C,R21*%
G36*
G01*
X128478500Y-83529800D02*
X128823500Y-83529800D01*
G75*
G02*
X128971000Y-83677300I0J-147500D01*
G01*
X128971000Y-83972300D01*
G75*
G02*
X128823500Y-84119800I-147500J0D01*
G01*
X128478500Y-84119800D01*
G75*
G02*
X128331000Y-83972300I0J147500D01*
G01*
X128331000Y-83677300D01*
G75*
G02*
X128478500Y-83529800I147500J0D01*
G01*
G37*
G36*
G01*
X128478500Y-82559800D02*
X128823500Y-82559800D01*
G75*
G02*
X128971000Y-82707300I0J-147500D01*
G01*
X128971000Y-83002300D01*
G75*
G02*
X128823500Y-83149800I-147500J0D01*
G01*
X128478500Y-83149800D01*
G75*
G02*
X128331000Y-83002300I0J147500D01*
G01*
X128331000Y-82707300D01*
G75*
G02*
X128478500Y-82559800I147500J0D01*
G01*
G37*
%TD*%
%TO.C,R20*%
G36*
G01*
X114584700Y-107990000D02*
X114929700Y-107990000D01*
G75*
G02*
X115077200Y-108137500I0J-147500D01*
G01*
X115077200Y-108432500D01*
G75*
G02*
X114929700Y-108580000I-147500J0D01*
G01*
X114584700Y-108580000D01*
G75*
G02*
X114437200Y-108432500I0J147500D01*
G01*
X114437200Y-108137500D01*
G75*
G02*
X114584700Y-107990000I147500J0D01*
G01*
G37*
G36*
G01*
X114584700Y-107020000D02*
X114929700Y-107020000D01*
G75*
G02*
X115077200Y-107167500I0J-147500D01*
G01*
X115077200Y-107462500D01*
G75*
G02*
X114929700Y-107610000I-147500J0D01*
G01*
X114584700Y-107610000D01*
G75*
G02*
X114437200Y-107462500I0J147500D01*
G01*
X114437200Y-107167500D01*
G75*
G02*
X114584700Y-107020000I147500J0D01*
G01*
G37*
%TD*%
%TO.C,R19*%
G36*
G01*
X127894300Y-118071400D02*
X128239300Y-118071400D01*
G75*
G02*
X128386800Y-118218900I0J-147500D01*
G01*
X128386800Y-118513900D01*
G75*
G02*
X128239300Y-118661400I-147500J0D01*
G01*
X127894300Y-118661400D01*
G75*
G02*
X127746800Y-118513900I0J147500D01*
G01*
X127746800Y-118218900D01*
G75*
G02*
X127894300Y-118071400I147500J0D01*
G01*
G37*
G36*
G01*
X127894300Y-117101400D02*
X128239300Y-117101400D01*
G75*
G02*
X128386800Y-117248900I0J-147500D01*
G01*
X128386800Y-117543900D01*
G75*
G02*
X128239300Y-117691400I-147500J0D01*
G01*
X127894300Y-117691400D01*
G75*
G02*
X127746800Y-117543900I0J147500D01*
G01*
X127746800Y-117248900D01*
G75*
G02*
X127894300Y-117101400I147500J0D01*
G01*
G37*
%TD*%
%TO.C,R18*%
G36*
G01*
X106014300Y-95669600D02*
X105669300Y-95669600D01*
G75*
G02*
X105521800Y-95522100I0J147500D01*
G01*
X105521800Y-95227100D01*
G75*
G02*
X105669300Y-95079600I147500J0D01*
G01*
X106014300Y-95079600D01*
G75*
G02*
X106161800Y-95227100I0J-147500D01*
G01*
X106161800Y-95522100D01*
G75*
G02*
X106014300Y-95669600I-147500J0D01*
G01*
G37*
G36*
G01*
X106014300Y-96639600D02*
X105669300Y-96639600D01*
G75*
G02*
X105521800Y-96492100I0J147500D01*
G01*
X105521800Y-96197100D01*
G75*
G02*
X105669300Y-96049600I147500J0D01*
G01*
X106014300Y-96049600D01*
G75*
G02*
X106161800Y-96197100I0J-147500D01*
G01*
X106161800Y-96492100D01*
G75*
G02*
X106014300Y-96639600I-147500J0D01*
G01*
G37*
%TD*%
%TO.C,R17*%
G36*
G01*
X115092700Y-87335000D02*
X115437700Y-87335000D01*
G75*
G02*
X115585200Y-87482500I0J-147500D01*
G01*
X115585200Y-87777500D01*
G75*
G02*
X115437700Y-87925000I-147500J0D01*
G01*
X115092700Y-87925000D01*
G75*
G02*
X114945200Y-87777500I0J147500D01*
G01*
X114945200Y-87482500D01*
G75*
G02*
X115092700Y-87335000I147500J0D01*
G01*
G37*
G36*
G01*
X115092700Y-86365000D02*
X115437700Y-86365000D01*
G75*
G02*
X115585200Y-86512500I0J-147500D01*
G01*
X115585200Y-86807500D01*
G75*
G02*
X115437700Y-86955000I-147500J0D01*
G01*
X115092700Y-86955000D01*
G75*
G02*
X114945200Y-86807500I0J147500D01*
G01*
X114945200Y-86512500D01*
G75*
G02*
X115092700Y-86365000I147500J0D01*
G01*
G37*
%TD*%
%TO.C,R16*%
G36*
G01*
X119105900Y-95747200D02*
X119450900Y-95747200D01*
G75*
G02*
X119598400Y-95894700I0J-147500D01*
G01*
X119598400Y-96189700D01*
G75*
G02*
X119450900Y-96337200I-147500J0D01*
G01*
X119105900Y-96337200D01*
G75*
G02*
X118958400Y-96189700I0J147500D01*
G01*
X118958400Y-95894700D01*
G75*
G02*
X119105900Y-95747200I147500J0D01*
G01*
G37*
G36*
G01*
X119105900Y-94777200D02*
X119450900Y-94777200D01*
G75*
G02*
X119598400Y-94924700I0J-147500D01*
G01*
X119598400Y-95219700D01*
G75*
G02*
X119450900Y-95367200I-147500J0D01*
G01*
X119105900Y-95367200D01*
G75*
G02*
X118958400Y-95219700I0J147500D01*
G01*
X118958400Y-94924700D01*
G75*
G02*
X119105900Y-94777200I147500J0D01*
G01*
G37*
%TD*%
%TO.C,R15*%
G36*
G01*
X112542100Y-105603400D02*
X112197100Y-105603400D01*
G75*
G02*
X112049600Y-105455900I0J147500D01*
G01*
X112049600Y-105160900D01*
G75*
G02*
X112197100Y-105013400I147500J0D01*
G01*
X112542100Y-105013400D01*
G75*
G02*
X112689600Y-105160900I0J-147500D01*
G01*
X112689600Y-105455900D01*
G75*
G02*
X112542100Y-105603400I-147500J0D01*
G01*
G37*
G36*
G01*
X112542100Y-106573400D02*
X112197100Y-106573400D01*
G75*
G02*
X112049600Y-106425900I0J147500D01*
G01*
X112049600Y-106130900D01*
G75*
G02*
X112197100Y-105983400I147500J0D01*
G01*
X112542100Y-105983400D01*
G75*
G02*
X112689600Y-106130900I0J-147500D01*
G01*
X112689600Y-106425900D01*
G75*
G02*
X112542100Y-106573400I-147500J0D01*
G01*
G37*
%TD*%
%TO.C,R14*%
G36*
G01*
X119669200Y-85262500D02*
X119669200Y-84917500D01*
G75*
G02*
X119816700Y-84770000I147500J0D01*
G01*
X120111700Y-84770000D01*
G75*
G02*
X120259200Y-84917500I0J-147500D01*
G01*
X120259200Y-85262500D01*
G75*
G02*
X120111700Y-85410000I-147500J0D01*
G01*
X119816700Y-85410000D01*
G75*
G02*
X119669200Y-85262500I0J147500D01*
G01*
G37*
G36*
G01*
X118699200Y-85262500D02*
X118699200Y-84917500D01*
G75*
G02*
X118846700Y-84770000I147500J0D01*
G01*
X119141700Y-84770000D01*
G75*
G02*
X119289200Y-84917500I0J-147500D01*
G01*
X119289200Y-85262500D01*
G75*
G02*
X119141700Y-85410000I-147500J0D01*
G01*
X118846700Y-85410000D01*
G75*
G02*
X118699200Y-85262500I0J147500D01*
G01*
G37*
%TD*%
%TO.C,R13*%
G36*
G01*
X118257100Y-89599000D02*
X117912100Y-89599000D01*
G75*
G02*
X117764600Y-89451500I0J147500D01*
G01*
X117764600Y-89156500D01*
G75*
G02*
X117912100Y-89009000I147500J0D01*
G01*
X118257100Y-89009000D01*
G75*
G02*
X118404600Y-89156500I0J-147500D01*
G01*
X118404600Y-89451500D01*
G75*
G02*
X118257100Y-89599000I-147500J0D01*
G01*
G37*
G36*
G01*
X118257100Y-90569000D02*
X117912100Y-90569000D01*
G75*
G02*
X117764600Y-90421500I0J147500D01*
G01*
X117764600Y-90126500D01*
G75*
G02*
X117912100Y-89979000I147500J0D01*
G01*
X118257100Y-89979000D01*
G75*
G02*
X118404600Y-90126500I0J-147500D01*
G01*
X118404600Y-90421500D01*
G75*
G02*
X118257100Y-90569000I-147500J0D01*
G01*
G37*
%TD*%
%TO.C,R12*%
G36*
G01*
X113634300Y-105598600D02*
X113289300Y-105598600D01*
G75*
G02*
X113141800Y-105451100I0J147500D01*
G01*
X113141800Y-105156100D01*
G75*
G02*
X113289300Y-105008600I147500J0D01*
G01*
X113634300Y-105008600D01*
G75*
G02*
X113781800Y-105156100I0J-147500D01*
G01*
X113781800Y-105451100D01*
G75*
G02*
X113634300Y-105598600I-147500J0D01*
G01*
G37*
G36*
G01*
X113634300Y-106568600D02*
X113289300Y-106568600D01*
G75*
G02*
X113141800Y-106421100I0J147500D01*
G01*
X113141800Y-106126100D01*
G75*
G02*
X113289300Y-105978600I147500J0D01*
G01*
X113634300Y-105978600D01*
G75*
G02*
X113781800Y-106126100I0J-147500D01*
G01*
X113781800Y-106421100D01*
G75*
G02*
X113634300Y-106568600I-147500J0D01*
G01*
G37*
%TD*%
%TO.C,R11*%
G36*
G01*
X119694600Y-84043300D02*
X119694600Y-83698300D01*
G75*
G02*
X119842100Y-83550800I147500J0D01*
G01*
X120137100Y-83550800D01*
G75*
G02*
X120284600Y-83698300I0J-147500D01*
G01*
X120284600Y-84043300D01*
G75*
G02*
X120137100Y-84190800I-147500J0D01*
G01*
X119842100Y-84190800D01*
G75*
G02*
X119694600Y-84043300I0J147500D01*
G01*
G37*
G36*
G01*
X118724600Y-84043300D02*
X118724600Y-83698300D01*
G75*
G02*
X118872100Y-83550800I147500J0D01*
G01*
X119167100Y-83550800D01*
G75*
G02*
X119314600Y-83698300I0J-147500D01*
G01*
X119314600Y-84043300D01*
G75*
G02*
X119167100Y-84190800I-147500J0D01*
G01*
X118872100Y-84190800D01*
G75*
G02*
X118724600Y-84043300I0J147500D01*
G01*
G37*
%TD*%
%TO.C,R10*%
G36*
G01*
X119791700Y-82488400D02*
X120136700Y-82488400D01*
G75*
G02*
X120284200Y-82635900I0J-147500D01*
G01*
X120284200Y-82930900D01*
G75*
G02*
X120136700Y-83078400I-147500J0D01*
G01*
X119791700Y-83078400D01*
G75*
G02*
X119644200Y-82930900I0J147500D01*
G01*
X119644200Y-82635900D01*
G75*
G02*
X119791700Y-82488400I147500J0D01*
G01*
G37*
G36*
G01*
X119791700Y-81518400D02*
X120136700Y-81518400D01*
G75*
G02*
X120284200Y-81665900I0J-147500D01*
G01*
X120284200Y-81960900D01*
G75*
G02*
X120136700Y-82108400I-147500J0D01*
G01*
X119791700Y-82108400D01*
G75*
G02*
X119644200Y-81960900I0J147500D01*
G01*
X119644200Y-81665900D01*
G75*
G02*
X119791700Y-81518400I147500J0D01*
G01*
G37*
%TD*%
%TO.C,R8*%
G36*
G01*
X122691800Y-107360500D02*
X122691800Y-107015500D01*
G75*
G02*
X122839300Y-106868000I147500J0D01*
G01*
X123134300Y-106868000D01*
G75*
G02*
X123281800Y-107015500I0J-147500D01*
G01*
X123281800Y-107360500D01*
G75*
G02*
X123134300Y-107508000I-147500J0D01*
G01*
X122839300Y-107508000D01*
G75*
G02*
X122691800Y-107360500I0J147500D01*
G01*
G37*
G36*
G01*
X121721800Y-107360500D02*
X121721800Y-107015500D01*
G75*
G02*
X121869300Y-106868000I147500J0D01*
G01*
X122164300Y-106868000D01*
G75*
G02*
X122311800Y-107015500I0J-147500D01*
G01*
X122311800Y-107360500D01*
G75*
G02*
X122164300Y-107508000I-147500J0D01*
G01*
X121869300Y-107508000D01*
G75*
G02*
X121721800Y-107360500I0J147500D01*
G01*
G37*
%TD*%
%TO.C,R7*%
G36*
G01*
X107828300Y-86194400D02*
X108173300Y-86194400D01*
G75*
G02*
X108320800Y-86341900I0J-147500D01*
G01*
X108320800Y-86636900D01*
G75*
G02*
X108173300Y-86784400I-147500J0D01*
G01*
X107828300Y-86784400D01*
G75*
G02*
X107680800Y-86636900I0J147500D01*
G01*
X107680800Y-86341900D01*
G75*
G02*
X107828300Y-86194400I147500J0D01*
G01*
G37*
G36*
G01*
X107828300Y-85224400D02*
X108173300Y-85224400D01*
G75*
G02*
X108320800Y-85371900I0J-147500D01*
G01*
X108320800Y-85666900D01*
G75*
G02*
X108173300Y-85814400I-147500J0D01*
G01*
X107828300Y-85814400D01*
G75*
G02*
X107680800Y-85666900I0J147500D01*
G01*
X107680800Y-85371900D01*
G75*
G02*
X107828300Y-85224400I147500J0D01*
G01*
G37*
%TD*%
%TO.C,R6*%
G36*
G01*
X107843100Y-109129200D02*
X107498100Y-109129200D01*
G75*
G02*
X107350600Y-108981700I0J147500D01*
G01*
X107350600Y-108686700D01*
G75*
G02*
X107498100Y-108539200I147500J0D01*
G01*
X107843100Y-108539200D01*
G75*
G02*
X107990600Y-108686700I0J-147500D01*
G01*
X107990600Y-108981700D01*
G75*
G02*
X107843100Y-109129200I-147500J0D01*
G01*
G37*
G36*
G01*
X107843100Y-110099200D02*
X107498100Y-110099200D01*
G75*
G02*
X107350600Y-109951700I0J147500D01*
G01*
X107350600Y-109656700D01*
G75*
G02*
X107498100Y-109509200I147500J0D01*
G01*
X107843100Y-109509200D01*
G75*
G02*
X107990600Y-109656700I0J-147500D01*
G01*
X107990600Y-109951700D01*
G75*
G02*
X107843100Y-110099200I-147500J0D01*
G01*
G37*
%TD*%
%TO.C,R5*%
G36*
G01*
X120740800Y-107360500D02*
X120740800Y-107015500D01*
G75*
G02*
X120888300Y-106868000I147500J0D01*
G01*
X121183300Y-106868000D01*
G75*
G02*
X121330800Y-107015500I0J-147500D01*
G01*
X121330800Y-107360500D01*
G75*
G02*
X121183300Y-107508000I-147500J0D01*
G01*
X120888300Y-107508000D01*
G75*
G02*
X120740800Y-107360500I0J147500D01*
G01*
G37*
G36*
G01*
X119770800Y-107360500D02*
X119770800Y-107015500D01*
G75*
G02*
X119918300Y-106868000I147500J0D01*
G01*
X120213300Y-106868000D01*
G75*
G02*
X120360800Y-107015500I0J-147500D01*
G01*
X120360800Y-107360500D01*
G75*
G02*
X120213300Y-107508000I-147500J0D01*
G01*
X119918300Y-107508000D01*
G75*
G02*
X119770800Y-107360500I0J147500D01*
G01*
G37*
%TD*%
%TO.C,R4*%
G36*
G01*
X124322200Y-90596500D02*
X124322200Y-90251500D01*
G75*
G02*
X124469700Y-90104000I147500J0D01*
G01*
X124764700Y-90104000D01*
G75*
G02*
X124912200Y-90251500I0J-147500D01*
G01*
X124912200Y-90596500D01*
G75*
G02*
X124764700Y-90744000I-147500J0D01*
G01*
X124469700Y-90744000D01*
G75*
G02*
X124322200Y-90596500I0J147500D01*
G01*
G37*
G36*
G01*
X123352200Y-90596500D02*
X123352200Y-90251500D01*
G75*
G02*
X123499700Y-90104000I147500J0D01*
G01*
X123794700Y-90104000D01*
G75*
G02*
X123942200Y-90251500I0J-147500D01*
G01*
X123942200Y-90596500D01*
G75*
G02*
X123794700Y-90744000I-147500J0D01*
G01*
X123499700Y-90744000D01*
G75*
G02*
X123352200Y-90596500I0J147500D01*
G01*
G37*
%TD*%
%TO.C,R3*%
G36*
G01*
X129443700Y-111084000D02*
X129788700Y-111084000D01*
G75*
G02*
X129936200Y-111231500I0J-147500D01*
G01*
X129936200Y-111526500D01*
G75*
G02*
X129788700Y-111674000I-147500J0D01*
G01*
X129443700Y-111674000D01*
G75*
G02*
X129296200Y-111526500I0J147500D01*
G01*
X129296200Y-111231500D01*
G75*
G02*
X129443700Y-111084000I147500J0D01*
G01*
G37*
G36*
G01*
X129443700Y-110114000D02*
X129788700Y-110114000D01*
G75*
G02*
X129936200Y-110261500I0J-147500D01*
G01*
X129936200Y-110556500D01*
G75*
G02*
X129788700Y-110704000I-147500J0D01*
G01*
X129443700Y-110704000D01*
G75*
G02*
X129296200Y-110556500I0J147500D01*
G01*
X129296200Y-110261500D01*
G75*
G02*
X129443700Y-110114000I147500J0D01*
G01*
G37*
%TD*%
%TO.C,R2*%
G36*
G01*
X119755700Y-89599000D02*
X119410700Y-89599000D01*
G75*
G02*
X119263200Y-89451500I0J147500D01*
G01*
X119263200Y-89156500D01*
G75*
G02*
X119410700Y-89009000I147500J0D01*
G01*
X119755700Y-89009000D01*
G75*
G02*
X119903200Y-89156500I0J-147500D01*
G01*
X119903200Y-89451500D01*
G75*
G02*
X119755700Y-89599000I-147500J0D01*
G01*
G37*
G36*
G01*
X119755700Y-90569000D02*
X119410700Y-90569000D01*
G75*
G02*
X119263200Y-90421500I0J147500D01*
G01*
X119263200Y-90126500D01*
G75*
G02*
X119410700Y-89979000I147500J0D01*
G01*
X119755700Y-89979000D01*
G75*
G02*
X119903200Y-90126500I0J-147500D01*
G01*
X119903200Y-90421500D01*
G75*
G02*
X119755700Y-90569000I-147500J0D01*
G01*
G37*
%TD*%
%TO.C,R1*%
G36*
G01*
X105252300Y-103084000D02*
X104907300Y-103084000D01*
G75*
G02*
X104759800Y-102936500I0J147500D01*
G01*
X104759800Y-102641500D01*
G75*
G02*
X104907300Y-102494000I147500J0D01*
G01*
X105252300Y-102494000D01*
G75*
G02*
X105399800Y-102641500I0J-147500D01*
G01*
X105399800Y-102936500D01*
G75*
G02*
X105252300Y-103084000I-147500J0D01*
G01*
G37*
G36*
G01*
X105252300Y-104054000D02*
X104907300Y-104054000D01*
G75*
G02*
X104759800Y-103906500I0J147500D01*
G01*
X104759800Y-103611500D01*
G75*
G02*
X104907300Y-103464000I147500J0D01*
G01*
X105252300Y-103464000D01*
G75*
G02*
X105399800Y-103611500I0J-147500D01*
G01*
X105399800Y-103906500D01*
G75*
G02*
X105252300Y-104054000I-147500J0D01*
G01*
G37*
%TD*%
D26*
%TO.C,Q3*%
X131921000Y-86421000D03*
X129921000Y-87371000D03*
X129921000Y-85471000D03*
%TD*%
%TO.C,Q2*%
X131921000Y-82534800D03*
X129921000Y-83484800D03*
X129921000Y-81584800D03*
%TD*%
D27*
%TO.C,Q1*%
X106410800Y-107511600D03*
X105460800Y-105511600D03*
X107360800Y-105511600D03*
%TD*%
%TO.C,POWER_ON1*%
G36*
G01*
X108772000Y-96360401D02*
X108772000Y-95460399D01*
G75*
G02*
X109021999Y-95210400I249999J0D01*
G01*
X109672001Y-95210400D01*
G75*
G02*
X109922000Y-95460399I0J-249999D01*
G01*
X109922000Y-96360401D01*
G75*
G02*
X109672001Y-96610400I-249999J0D01*
G01*
X109021999Y-96610400D01*
G75*
G02*
X108772000Y-96360401I0J249999D01*
G01*
G37*
G36*
G01*
X106722000Y-96360401D02*
X106722000Y-95460399D01*
G75*
G02*
X106971999Y-95210400I249999J0D01*
G01*
X107622001Y-95210400D01*
G75*
G02*
X107872000Y-95460399I0J-249999D01*
G01*
X107872000Y-96360401D01*
G75*
G02*
X107622001Y-96610400I-249999J0D01*
G01*
X106971999Y-96610400D01*
G75*
G02*
X106722000Y-96360401I0J249999D01*
G01*
G37*
%TD*%
D28*
%TO.C,D3*%
X122799200Y-75943800D03*
X122799200Y-77843800D03*
X120599200Y-77843800D03*
D29*
X120599200Y-76123800D03*
%TD*%
D28*
%TO.C,D2*%
X125316200Y-113215200D03*
X125316200Y-115115200D03*
X123116200Y-115115200D03*
D29*
X123116200Y-113395200D03*
%TD*%
D30*
%TO.C,D1*%
X107391200Y-102870000D03*
X111391200Y-102870000D03*
%TD*%
%TO.C,C35*%
G36*
G01*
X127140200Y-103205500D02*
X127140200Y-103550500D01*
G75*
G02*
X126992700Y-103698000I-147500J0D01*
G01*
X126697700Y-103698000D01*
G75*
G02*
X126550200Y-103550500I0J147500D01*
G01*
X126550200Y-103205500D01*
G75*
G02*
X126697700Y-103058000I147500J0D01*
G01*
X126992700Y-103058000D01*
G75*
G02*
X127140200Y-103205500I0J-147500D01*
G01*
G37*
G36*
G01*
X128110200Y-103205500D02*
X128110200Y-103550500D01*
G75*
G02*
X127962700Y-103698000I-147500J0D01*
G01*
X127667700Y-103698000D01*
G75*
G02*
X127520200Y-103550500I0J147500D01*
G01*
X127520200Y-103205500D01*
G75*
G02*
X127667700Y-103058000I147500J0D01*
G01*
X127962700Y-103058000D01*
G75*
G02*
X128110200Y-103205500I0J-147500D01*
G01*
G37*
%TD*%
%TO.C,C33*%
G36*
G01*
X127149600Y-104298700D02*
X127149600Y-104643700D01*
G75*
G02*
X127002100Y-104791200I-147500J0D01*
G01*
X126707100Y-104791200D01*
G75*
G02*
X126559600Y-104643700I0J147500D01*
G01*
X126559600Y-104298700D01*
G75*
G02*
X126707100Y-104151200I147500J0D01*
G01*
X127002100Y-104151200D01*
G75*
G02*
X127149600Y-104298700I0J-147500D01*
G01*
G37*
G36*
G01*
X128119600Y-104298700D02*
X128119600Y-104643700D01*
G75*
G02*
X127972100Y-104791200I-147500J0D01*
G01*
X127677100Y-104791200D01*
G75*
G02*
X127529600Y-104643700I0J147500D01*
G01*
X127529600Y-104298700D01*
G75*
G02*
X127677100Y-104151200I147500J0D01*
G01*
X127972100Y-104151200D01*
G75*
G02*
X128119600Y-104298700I0J-147500D01*
G01*
G37*
%TD*%
%TO.C,C31*%
G36*
G01*
X123815200Y-105516900D02*
X123815200Y-105861900D01*
G75*
G02*
X123667700Y-106009400I-147500J0D01*
G01*
X123372700Y-106009400D01*
G75*
G02*
X123225200Y-105861900I0J147500D01*
G01*
X123225200Y-105516900D01*
G75*
G02*
X123372700Y-105369400I147500J0D01*
G01*
X123667700Y-105369400D01*
G75*
G02*
X123815200Y-105516900I0J-147500D01*
G01*
G37*
G36*
G01*
X124785200Y-105516900D02*
X124785200Y-105861900D01*
G75*
G02*
X124637700Y-106009400I-147500J0D01*
G01*
X124342700Y-106009400D01*
G75*
G02*
X124195200Y-105861900I0J147500D01*
G01*
X124195200Y-105516900D01*
G75*
G02*
X124342700Y-105369400I147500J0D01*
G01*
X124637700Y-105369400D01*
G75*
G02*
X124785200Y-105516900I0J-147500D01*
G01*
G37*
%TD*%
%TO.C,C29*%
G36*
G01*
X116138600Y-100502500D02*
X116138600Y-100157500D01*
G75*
G02*
X116286100Y-100010000I147500J0D01*
G01*
X116581100Y-100010000D01*
G75*
G02*
X116728600Y-100157500I0J-147500D01*
G01*
X116728600Y-100502500D01*
G75*
G02*
X116581100Y-100650000I-147500J0D01*
G01*
X116286100Y-100650000D01*
G75*
G02*
X116138600Y-100502500I0J147500D01*
G01*
G37*
G36*
G01*
X115168600Y-100502500D02*
X115168600Y-100157500D01*
G75*
G02*
X115316100Y-100010000I147500J0D01*
G01*
X115611100Y-100010000D01*
G75*
G02*
X115758600Y-100157500I0J-147500D01*
G01*
X115758600Y-100502500D01*
G75*
G02*
X115611100Y-100650000I-147500J0D01*
G01*
X115316100Y-100650000D01*
G75*
G02*
X115168600Y-100502500I0J147500D01*
G01*
G37*
%TD*%
%TO.C,C25*%
G36*
G01*
X126776700Y-112966000D02*
X127121700Y-112966000D01*
G75*
G02*
X127269200Y-113113500I0J-147500D01*
G01*
X127269200Y-113408500D01*
G75*
G02*
X127121700Y-113556000I-147500J0D01*
G01*
X126776700Y-113556000D01*
G75*
G02*
X126629200Y-113408500I0J147500D01*
G01*
X126629200Y-113113500D01*
G75*
G02*
X126776700Y-112966000I147500J0D01*
G01*
G37*
G36*
G01*
X126776700Y-111996000D02*
X127121700Y-111996000D01*
G75*
G02*
X127269200Y-112143500I0J-147500D01*
G01*
X127269200Y-112438500D01*
G75*
G02*
X127121700Y-112586000I-147500J0D01*
G01*
X126776700Y-112586000D01*
G75*
G02*
X126629200Y-112438500I0J147500D01*
G01*
X126629200Y-112143500D01*
G75*
G02*
X126776700Y-111996000I147500J0D01*
G01*
G37*
%TD*%
%TO.C,C23*%
G36*
G01*
X112536600Y-87624700D02*
X112536600Y-87279700D01*
G75*
G02*
X112684100Y-87132200I147500J0D01*
G01*
X112979100Y-87132200D01*
G75*
G02*
X113126600Y-87279700I0J-147500D01*
G01*
X113126600Y-87624700D01*
G75*
G02*
X112979100Y-87772200I-147500J0D01*
G01*
X112684100Y-87772200D01*
G75*
G02*
X112536600Y-87624700I0J147500D01*
G01*
G37*
G36*
G01*
X111566600Y-87624700D02*
X111566600Y-87279700D01*
G75*
G02*
X111714100Y-87132200I147500J0D01*
G01*
X112009100Y-87132200D01*
G75*
G02*
X112156600Y-87279700I0J-147500D01*
G01*
X112156600Y-87624700D01*
G75*
G02*
X112009100Y-87772200I-147500J0D01*
G01*
X111714100Y-87772200D01*
G75*
G02*
X111566600Y-87624700I0J147500D01*
G01*
G37*
%TD*%
%TO.C,C21*%
G36*
G01*
X127147100Y-117691400D02*
X126802100Y-117691400D01*
G75*
G02*
X126654600Y-117543900I0J147500D01*
G01*
X126654600Y-117248900D01*
G75*
G02*
X126802100Y-117101400I147500J0D01*
G01*
X127147100Y-117101400D01*
G75*
G02*
X127294600Y-117248900I0J-147500D01*
G01*
X127294600Y-117543900D01*
G75*
G02*
X127147100Y-117691400I-147500J0D01*
G01*
G37*
G36*
G01*
X127147100Y-118661400D02*
X126802100Y-118661400D01*
G75*
G02*
X126654600Y-118513900I0J147500D01*
G01*
X126654600Y-118218900D01*
G75*
G02*
X126802100Y-118071400I147500J0D01*
G01*
X127147100Y-118071400D01*
G75*
G02*
X127294600Y-118218900I0J-147500D01*
G01*
X127294600Y-118513900D01*
G75*
G02*
X127147100Y-118661400I-147500J0D01*
G01*
G37*
%TD*%
%TO.C,C20*%
G36*
G01*
X112557200Y-86430900D02*
X112557200Y-86085900D01*
G75*
G02*
X112704700Y-85938400I147500J0D01*
G01*
X112999700Y-85938400D01*
G75*
G02*
X113147200Y-86085900I0J-147500D01*
G01*
X113147200Y-86430900D01*
G75*
G02*
X112999700Y-86578400I-147500J0D01*
G01*
X112704700Y-86578400D01*
G75*
G02*
X112557200Y-86430900I0J147500D01*
G01*
G37*
G36*
G01*
X111587200Y-86430900D02*
X111587200Y-86085900D01*
G75*
G02*
X111734700Y-85938400I147500J0D01*
G01*
X112029700Y-85938400D01*
G75*
G02*
X112177200Y-86085900I0J-147500D01*
G01*
X112177200Y-86430900D01*
G75*
G02*
X112029700Y-86578400I-147500J0D01*
G01*
X111734700Y-86578400D01*
G75*
G02*
X111587200Y-86430900I0J147500D01*
G01*
G37*
%TD*%
%TO.C,C19*%
G36*
G01*
X133721200Y-89895900D02*
X133721200Y-90240900D01*
G75*
G02*
X133573700Y-90388400I-147500J0D01*
G01*
X133278700Y-90388400D01*
G75*
G02*
X133131200Y-90240900I0J147500D01*
G01*
X133131200Y-89895900D01*
G75*
G02*
X133278700Y-89748400I147500J0D01*
G01*
X133573700Y-89748400D01*
G75*
G02*
X133721200Y-89895900I0J-147500D01*
G01*
G37*
G36*
G01*
X134691200Y-89895900D02*
X134691200Y-90240900D01*
G75*
G02*
X134543700Y-90388400I-147500J0D01*
G01*
X134248700Y-90388400D01*
G75*
G02*
X134101200Y-90240900I0J147500D01*
G01*
X134101200Y-89895900D01*
G75*
G02*
X134248700Y-89748400I147500J0D01*
G01*
X134543700Y-89748400D01*
G75*
G02*
X134691200Y-89895900I0J-147500D01*
G01*
G37*
%TD*%
%TO.C,C18*%
G36*
G01*
X129041800Y-108198700D02*
X129041800Y-107853700D01*
G75*
G02*
X129189300Y-107706200I147500J0D01*
G01*
X129484300Y-107706200D01*
G75*
G02*
X129631800Y-107853700I0J-147500D01*
G01*
X129631800Y-108198700D01*
G75*
G02*
X129484300Y-108346200I-147500J0D01*
G01*
X129189300Y-108346200D01*
G75*
G02*
X129041800Y-108198700I0J147500D01*
G01*
G37*
G36*
G01*
X128071800Y-108198700D02*
X128071800Y-107853700D01*
G75*
G02*
X128219300Y-107706200I147500J0D01*
G01*
X128514300Y-107706200D01*
G75*
G02*
X128661800Y-107853700I0J-147500D01*
G01*
X128661800Y-108198700D01*
G75*
G02*
X128514300Y-108346200I-147500J0D01*
G01*
X128219300Y-108346200D01*
G75*
G02*
X128071800Y-108198700I0J147500D01*
G01*
G37*
%TD*%
%TO.C,C17*%
G36*
G01*
X133721200Y-90962700D02*
X133721200Y-91307700D01*
G75*
G02*
X133573700Y-91455200I-147500J0D01*
G01*
X133278700Y-91455200D01*
G75*
G02*
X133131200Y-91307700I0J147500D01*
G01*
X133131200Y-90962700D01*
G75*
G02*
X133278700Y-90815200I147500J0D01*
G01*
X133573700Y-90815200D01*
G75*
G02*
X133721200Y-90962700I0J-147500D01*
G01*
G37*
G36*
G01*
X134691200Y-90962700D02*
X134691200Y-91307700D01*
G75*
G02*
X134543700Y-91455200I-147500J0D01*
G01*
X134248700Y-91455200D01*
G75*
G02*
X134101200Y-91307700I0J147500D01*
G01*
X134101200Y-90962700D01*
G75*
G02*
X134248700Y-90815200I147500J0D01*
G01*
X134543700Y-90815200D01*
G75*
G02*
X134691200Y-90962700I0J-147500D01*
G01*
G37*
%TD*%
%TO.C,C16*%
G36*
G01*
X118500800Y-76499500D02*
X118500800Y-76154500D01*
G75*
G02*
X118648300Y-76007000I147500J0D01*
G01*
X118943300Y-76007000D01*
G75*
G02*
X119090800Y-76154500I0J-147500D01*
G01*
X119090800Y-76499500D01*
G75*
G02*
X118943300Y-76647000I-147500J0D01*
G01*
X118648300Y-76647000D01*
G75*
G02*
X118500800Y-76499500I0J147500D01*
G01*
G37*
G36*
G01*
X117530800Y-76499500D02*
X117530800Y-76154500D01*
G75*
G02*
X117678300Y-76007000I147500J0D01*
G01*
X117973300Y-76007000D01*
G75*
G02*
X118120800Y-76154500I0J-147500D01*
G01*
X118120800Y-76499500D01*
G75*
G02*
X117973300Y-76647000I-147500J0D01*
G01*
X117678300Y-76647000D01*
G75*
G02*
X117530800Y-76499500I0J147500D01*
G01*
G37*
%TD*%
%TO.C,C15*%
G36*
G01*
X129041800Y-107182700D02*
X129041800Y-106837700D01*
G75*
G02*
X129189300Y-106690200I147500J0D01*
G01*
X129484300Y-106690200D01*
G75*
G02*
X129631800Y-106837700I0J-147500D01*
G01*
X129631800Y-107182700D01*
G75*
G02*
X129484300Y-107330200I-147500J0D01*
G01*
X129189300Y-107330200D01*
G75*
G02*
X129041800Y-107182700I0J147500D01*
G01*
G37*
G36*
G01*
X128071800Y-107182700D02*
X128071800Y-106837700D01*
G75*
G02*
X128219300Y-106690200I147500J0D01*
G01*
X128514300Y-106690200D01*
G75*
G02*
X128661800Y-106837700I0J-147500D01*
G01*
X128661800Y-107182700D01*
G75*
G02*
X128514300Y-107330200I-147500J0D01*
G01*
X128219300Y-107330200D01*
G75*
G02*
X128071800Y-107182700I0J147500D01*
G01*
G37*
%TD*%
%TO.C,C14*%
G36*
G01*
X125263000Y-109606300D02*
X125263000Y-109951300D01*
G75*
G02*
X125115500Y-110098800I-147500J0D01*
G01*
X124820500Y-110098800D01*
G75*
G02*
X124673000Y-109951300I0J147500D01*
G01*
X124673000Y-109606300D01*
G75*
G02*
X124820500Y-109458800I147500J0D01*
G01*
X125115500Y-109458800D01*
G75*
G02*
X125263000Y-109606300I0J-147500D01*
G01*
G37*
G36*
G01*
X126233000Y-109606300D02*
X126233000Y-109951300D01*
G75*
G02*
X126085500Y-110098800I-147500J0D01*
G01*
X125790500Y-110098800D01*
G75*
G02*
X125643000Y-109951300I0J147500D01*
G01*
X125643000Y-109606300D01*
G75*
G02*
X125790500Y-109458800I147500J0D01*
G01*
X126085500Y-109458800D01*
G75*
G02*
X126233000Y-109606300I0J-147500D01*
G01*
G37*
%TD*%
%TO.C,C13*%
G36*
G01*
X113761300Y-107681400D02*
X113416300Y-107681400D01*
G75*
G02*
X113268800Y-107533900I0J147500D01*
G01*
X113268800Y-107238900D01*
G75*
G02*
X113416300Y-107091400I147500J0D01*
G01*
X113761300Y-107091400D01*
G75*
G02*
X113908800Y-107238900I0J-147500D01*
G01*
X113908800Y-107533900D01*
G75*
G02*
X113761300Y-107681400I-147500J0D01*
G01*
G37*
G36*
G01*
X113761300Y-108651400D02*
X113416300Y-108651400D01*
G75*
G02*
X113268800Y-108503900I0J147500D01*
G01*
X113268800Y-108208900D01*
G75*
G02*
X113416300Y-108061400I147500J0D01*
G01*
X113761300Y-108061400D01*
G75*
G02*
X113908800Y-108208900I0J-147500D01*
G01*
X113908800Y-108503900D01*
G75*
G02*
X113761300Y-108651400I-147500J0D01*
G01*
G37*
%TD*%
%TO.C,C12*%
G36*
G01*
X117861300Y-95645600D02*
X118206300Y-95645600D01*
G75*
G02*
X118353800Y-95793100I0J-147500D01*
G01*
X118353800Y-96088100D01*
G75*
G02*
X118206300Y-96235600I-147500J0D01*
G01*
X117861300Y-96235600D01*
G75*
G02*
X117713800Y-96088100I0J147500D01*
G01*
X117713800Y-95793100D01*
G75*
G02*
X117861300Y-95645600I147500J0D01*
G01*
G37*
G36*
G01*
X117861300Y-94675600D02*
X118206300Y-94675600D01*
G75*
G02*
X118353800Y-94823100I0J-147500D01*
G01*
X118353800Y-95118100D01*
G75*
G02*
X118206300Y-95265600I-147500J0D01*
G01*
X117861300Y-95265600D01*
G75*
G02*
X117713800Y-95118100I0J147500D01*
G01*
X117713800Y-94823100D01*
G75*
G02*
X117861300Y-94675600I147500J0D01*
G01*
G37*
%TD*%
%TO.C,C11*%
G36*
G01*
X118480200Y-75356500D02*
X118480200Y-75011500D01*
G75*
G02*
X118627700Y-74864000I147500J0D01*
G01*
X118922700Y-74864000D01*
G75*
G02*
X119070200Y-75011500I0J-147500D01*
G01*
X119070200Y-75356500D01*
G75*
G02*
X118922700Y-75504000I-147500J0D01*
G01*
X118627700Y-75504000D01*
G75*
G02*
X118480200Y-75356500I0J147500D01*
G01*
G37*
G36*
G01*
X117510200Y-75356500D02*
X117510200Y-75011500D01*
G75*
G02*
X117657700Y-74864000I147500J0D01*
G01*
X117952700Y-74864000D01*
G75*
G02*
X118100200Y-75011500I0J-147500D01*
G01*
X118100200Y-75356500D01*
G75*
G02*
X117952700Y-75504000I-147500J0D01*
G01*
X117657700Y-75504000D01*
G75*
G02*
X117510200Y-75356500I0J147500D01*
G01*
G37*
%TD*%
%TO.C,C10*%
G36*
G01*
X125245000Y-110781700D02*
X125245000Y-111126700D01*
G75*
G02*
X125097500Y-111274200I-147500J0D01*
G01*
X124802500Y-111274200D01*
G75*
G02*
X124655000Y-111126700I0J147500D01*
G01*
X124655000Y-110781700D01*
G75*
G02*
X124802500Y-110634200I147500J0D01*
G01*
X125097500Y-110634200D01*
G75*
G02*
X125245000Y-110781700I0J-147500D01*
G01*
G37*
G36*
G01*
X126215000Y-110781700D02*
X126215000Y-111126700D01*
G75*
G02*
X126067500Y-111274200I-147500J0D01*
G01*
X125772500Y-111274200D01*
G75*
G02*
X125625000Y-111126700I0J147500D01*
G01*
X125625000Y-110781700D01*
G75*
G02*
X125772500Y-110634200I147500J0D01*
G01*
X126067500Y-110634200D01*
G75*
G02*
X126215000Y-110781700I0J-147500D01*
G01*
G37*
%TD*%
%TO.C,C9*%
G36*
G01*
X116794500Y-89979000D02*
X117139500Y-89979000D01*
G75*
G02*
X117287000Y-90126500I0J-147500D01*
G01*
X117287000Y-90421500D01*
G75*
G02*
X117139500Y-90569000I-147500J0D01*
G01*
X116794500Y-90569000D01*
G75*
G02*
X116647000Y-90421500I0J147500D01*
G01*
X116647000Y-90126500D01*
G75*
G02*
X116794500Y-89979000I147500J0D01*
G01*
G37*
G36*
G01*
X116794500Y-89009000D02*
X117139500Y-89009000D01*
G75*
G02*
X117287000Y-89156500I0J-147500D01*
G01*
X117287000Y-89451500D01*
G75*
G02*
X117139500Y-89599000I-147500J0D01*
G01*
X116794500Y-89599000D01*
G75*
G02*
X116647000Y-89451500I0J147500D01*
G01*
X116647000Y-89156500D01*
G75*
G02*
X116794500Y-89009000I147500J0D01*
G01*
G37*
%TD*%
%TO.C,C8*%
G36*
G01*
X111424500Y-105578000D02*
X111079500Y-105578000D01*
G75*
G02*
X110932000Y-105430500I0J147500D01*
G01*
X110932000Y-105135500D01*
G75*
G02*
X111079500Y-104988000I147500J0D01*
G01*
X111424500Y-104988000D01*
G75*
G02*
X111572000Y-105135500I0J-147500D01*
G01*
X111572000Y-105430500D01*
G75*
G02*
X111424500Y-105578000I-147500J0D01*
G01*
G37*
G36*
G01*
X111424500Y-106548000D02*
X111079500Y-106548000D01*
G75*
G02*
X110932000Y-106400500I0J147500D01*
G01*
X110932000Y-106105500D01*
G75*
G02*
X111079500Y-105958000I147500J0D01*
G01*
X111424500Y-105958000D01*
G75*
G02*
X111572000Y-106105500I0J-147500D01*
G01*
X111572000Y-106400500D01*
G75*
G02*
X111424500Y-106548000I-147500J0D01*
G01*
G37*
%TD*%
%TO.C,C7*%
G36*
G01*
X122869600Y-110941900D02*
X122869600Y-110596900D01*
G75*
G02*
X123017100Y-110449400I147500J0D01*
G01*
X123312100Y-110449400D01*
G75*
G02*
X123459600Y-110596900I0J-147500D01*
G01*
X123459600Y-110941900D01*
G75*
G02*
X123312100Y-111089400I-147500J0D01*
G01*
X123017100Y-111089400D01*
G75*
G02*
X122869600Y-110941900I0J147500D01*
G01*
G37*
G36*
G01*
X121899600Y-110941900D02*
X121899600Y-110596900D01*
G75*
G02*
X122047100Y-110449400I147500J0D01*
G01*
X122342100Y-110449400D01*
G75*
G02*
X122489600Y-110596900I0J-147500D01*
G01*
X122489600Y-110941900D01*
G75*
G02*
X122342100Y-111089400I-147500J0D01*
G01*
X122047100Y-111089400D01*
G75*
G02*
X121899600Y-110941900I0J147500D01*
G01*
G37*
%TD*%
%TO.C,C6*%
G36*
G01*
X107081100Y-85837400D02*
X106736100Y-85837400D01*
G75*
G02*
X106588600Y-85689900I0J147500D01*
G01*
X106588600Y-85394900D01*
G75*
G02*
X106736100Y-85247400I147500J0D01*
G01*
X107081100Y-85247400D01*
G75*
G02*
X107228600Y-85394900I0J-147500D01*
G01*
X107228600Y-85689900D01*
G75*
G02*
X107081100Y-85837400I-147500J0D01*
G01*
G37*
G36*
G01*
X107081100Y-86807400D02*
X106736100Y-86807400D01*
G75*
G02*
X106588600Y-86659900I0J147500D01*
G01*
X106588600Y-86364900D01*
G75*
G02*
X106736100Y-86217400I147500J0D01*
G01*
X107081100Y-86217400D01*
G75*
G02*
X107228600Y-86364900I0J-147500D01*
G01*
X107228600Y-86659900D01*
G75*
G02*
X107081100Y-86807400I-147500J0D01*
G01*
G37*
%TD*%
%TO.C,C5*%
G36*
G01*
X120360800Y-110596900D02*
X120360800Y-110941900D01*
G75*
G02*
X120213300Y-111089400I-147500J0D01*
G01*
X119918300Y-111089400D01*
G75*
G02*
X119770800Y-110941900I0J147500D01*
G01*
X119770800Y-110596900D01*
G75*
G02*
X119918300Y-110449400I147500J0D01*
G01*
X120213300Y-110449400D01*
G75*
G02*
X120360800Y-110596900I0J-147500D01*
G01*
G37*
G36*
G01*
X121330800Y-110596900D02*
X121330800Y-110941900D01*
G75*
G02*
X121183300Y-111089400I-147500J0D01*
G01*
X120888300Y-111089400D01*
G75*
G02*
X120740800Y-110941900I0J147500D01*
G01*
X120740800Y-110596900D01*
G75*
G02*
X120888300Y-110449400I147500J0D01*
G01*
X121183300Y-110449400D01*
G75*
G02*
X121330800Y-110596900I0J-147500D01*
G01*
G37*
%TD*%
%TO.C,C4*%
G36*
G01*
X120259200Y-79405700D02*
X120259200Y-79750700D01*
G75*
G02*
X120111700Y-79898200I-147500J0D01*
G01*
X119816700Y-79898200D01*
G75*
G02*
X119669200Y-79750700I0J147500D01*
G01*
X119669200Y-79405700D01*
G75*
G02*
X119816700Y-79258200I147500J0D01*
G01*
X120111700Y-79258200D01*
G75*
G02*
X120259200Y-79405700I0J-147500D01*
G01*
G37*
G36*
G01*
X121229200Y-79405700D02*
X121229200Y-79750700D01*
G75*
G02*
X121081700Y-79898200I-147500J0D01*
G01*
X120786700Y-79898200D01*
G75*
G02*
X120639200Y-79750700I0J147500D01*
G01*
X120639200Y-79405700D01*
G75*
G02*
X120786700Y-79258200I147500J0D01*
G01*
X121081700Y-79258200D01*
G75*
G02*
X121229200Y-79405700I0J-147500D01*
G01*
G37*
%TD*%
%TO.C,C3*%
G36*
G01*
X110332300Y-86858200D02*
X109987300Y-86858200D01*
G75*
G02*
X109839800Y-86710700I0J147500D01*
G01*
X109839800Y-86415700D01*
G75*
G02*
X109987300Y-86268200I147500J0D01*
G01*
X110332300Y-86268200D01*
G75*
G02*
X110479800Y-86415700I0J-147500D01*
G01*
X110479800Y-86710700D01*
G75*
G02*
X110332300Y-86858200I-147500J0D01*
G01*
G37*
G36*
G01*
X110332300Y-87828200D02*
X109987300Y-87828200D01*
G75*
G02*
X109839800Y-87680700I0J147500D01*
G01*
X109839800Y-87385700D01*
G75*
G02*
X109987300Y-87238200I147500J0D01*
G01*
X110332300Y-87238200D01*
G75*
G02*
X110479800Y-87385700I0J-147500D01*
G01*
X110479800Y-87680700D01*
G75*
G02*
X110332300Y-87828200I-147500J0D01*
G01*
G37*
%TD*%
%TO.C,C2*%
G36*
G01*
X120259200Y-80523300D02*
X120259200Y-80868300D01*
G75*
G02*
X120111700Y-81015800I-147500J0D01*
G01*
X119816700Y-81015800D01*
G75*
G02*
X119669200Y-80868300I0J147500D01*
G01*
X119669200Y-80523300D01*
G75*
G02*
X119816700Y-80375800I147500J0D01*
G01*
X120111700Y-80375800D01*
G75*
G02*
X120259200Y-80523300I0J-147500D01*
G01*
G37*
G36*
G01*
X121229200Y-80523300D02*
X121229200Y-80868300D01*
G75*
G02*
X121081700Y-81015800I-147500J0D01*
G01*
X120786700Y-81015800D01*
G75*
G02*
X120639200Y-80868300I0J147500D01*
G01*
X120639200Y-80523300D01*
G75*
G02*
X120786700Y-80375800I147500J0D01*
G01*
X121081700Y-80375800D01*
G75*
G02*
X121229200Y-80523300I0J-147500D01*
G01*
G37*
%TD*%
%TO.C,C1*%
G36*
G01*
X109240100Y-86858200D02*
X108895100Y-86858200D01*
G75*
G02*
X108747600Y-86710700I0J147500D01*
G01*
X108747600Y-86415700D01*
G75*
G02*
X108895100Y-86268200I147500J0D01*
G01*
X109240100Y-86268200D01*
G75*
G02*
X109387600Y-86415700I0J-147500D01*
G01*
X109387600Y-86710700D01*
G75*
G02*
X109240100Y-86858200I-147500J0D01*
G01*
G37*
G36*
G01*
X109240100Y-87828200D02*
X108895100Y-87828200D01*
G75*
G02*
X108747600Y-87680700I0J147500D01*
G01*
X108747600Y-87385700D01*
G75*
G02*
X108895100Y-87238200I147500J0D01*
G01*
X109240100Y-87238200D01*
G75*
G02*
X109387600Y-87385700I0J-147500D01*
G01*
X109387600Y-87680700D01*
G75*
G02*
X109240100Y-87828200I-147500J0D01*
G01*
G37*
%TD*%
M02*
