%TF.GenerationSoftware,KiCad,Pcbnew,(5.1.6)-1*%
%TF.CreationDate,2022-06-15T11:31:04-05:00*%
%TF.ProjectId,ESP32-S2_Dev,45535033-322d-4533-925f-4465762e6b69,01*%
%TF.SameCoordinates,Original*%
%TF.FileFunction,Copper,L3,Inr*%
%TF.FilePolarity,Positive*%
%FSLAX46Y46*%
G04 Gerber Fmt 4.6, Leading zero omitted, Abs format (unit mm)*
G04 Created by KiCad (PCBNEW (5.1.6)-1) date 2022-06-15 11:31:04*
%MOMM*%
%LPD*%
G01*
G04 APERTURE LIST*
%TA.AperFunction,ViaPad*%
%ADD10R,1.700000X1.700000*%
%TD*%
%TA.AperFunction,ViaPad*%
%ADD11O,1.200000X1.900000*%
%TD*%
%TA.AperFunction,ViaPad*%
%ADD12C,1.450000*%
%TD*%
%TA.AperFunction,ViaPad*%
%ADD13C,0.800000*%
%TD*%
%TA.AperFunction,Conductor*%
%ADD14C,0.254000*%
%TD*%
G04 APERTURE END LIST*
D10*
%TO.N,/GPIO13*%
%TO.C,IO13*%
X100126800Y-95250000D03*
%TD*%
D11*
%TO.N,GND*%
%TO.C,UART1*%
X126310000Y-71120000D03*
X133310000Y-71120000D03*
D12*
X127310000Y-73820000D03*
X132310000Y-73820000D03*
%TD*%
D11*
%TO.N,GND*%
%TO.C,USB1*%
X125420000Y-133350000D03*
X118420000Y-133350000D03*
D12*
X124420000Y-130650000D03*
X119420000Y-130650000D03*
%TD*%
D10*
%TO.N,/DAC1*%
%TO.C,DAC1*%
X100126800Y-100330000D03*
%TD*%
%TO.N,/GPIO46*%
%TO.C,IO46*%
X100126800Y-77470000D03*
%TD*%
%TO.N,/GPIO45*%
%TO.C,IO45*%
X100126800Y-74955400D03*
%TD*%
%TO.N,/GPIO42*%
%TO.C,IO42*%
X139522200Y-74853800D03*
%TD*%
%TO.N,/GPIO41*%
%TO.C,IO41*%
X139522200Y-77470000D03*
%TD*%
%TO.N,/GPIO40*%
%TO.C,IO40*%
X139522200Y-80010000D03*
%TD*%
%TO.N,/GPIO39*%
%TO.C,IO39*%
X139522200Y-82550000D03*
%TD*%
%TO.N,/GPIO38*%
%TO.C,IO38*%
X139496800Y-85090000D03*
%TD*%
%TO.N,/GPIO37*%
%TO.C,IO37*%
X139522200Y-87630000D03*
%TD*%
%TO.N,/GPIO36*%
%TO.C,IO36*%
X139522200Y-90170000D03*
%TD*%
%TO.N,/GPIO35*%
%TO.C,IO35*%
X139522200Y-92710000D03*
%TD*%
%TO.N,/GPIO34*%
%TO.C,IO34*%
X139522200Y-95250000D03*
%TD*%
%TO.N,/GPIO33*%
%TO.C,IO33*%
X139522200Y-97790000D03*
%TD*%
%TO.N,/GPIO21*%
%TO.C,IO21*%
X139522200Y-100431600D03*
%TD*%
%TO.N,/GPIO14*%
%TO.C,IO14*%
X100126800Y-97790000D03*
%TD*%
%TO.N,/GPIO11*%
%TO.C,IO11*%
X100126800Y-92710000D03*
%TD*%
%TO.N,/GPIO10*%
%TO.C,IO10*%
X100126800Y-90170000D03*
%TD*%
%TO.N,/GPIO9*%
%TO.C,IO9*%
X100126800Y-87630000D03*
%TD*%
%TO.N,/GPIO8*%
%TO.C,IO8*%
X100126800Y-85090000D03*
%TD*%
%TO.N,/GPIO7*%
%TO.C,IO7*%
X100126800Y-82550000D03*
%TD*%
%TO.N,/GPIO6*%
%TO.C,IO6*%
X100126800Y-80010000D03*
%TD*%
D13*
%TO.N,/LD0_3P3*%
X110896400Y-93624400D03*
X108686600Y-90043000D03*
%TO.N,/USB_5P0*%
X107803751Y-88055649D03*
X117475000Y-111582200D03*
%TO.N,GND*%
X124783800Y-80811524D03*
X125194449Y-105026849D03*
X128447800Y-105206800D03*
X112598200Y-113284000D03*
X107721400Y-110972600D03*
X128371600Y-108915200D03*
X135204200Y-110947200D03*
X135305800Y-108407200D03*
X130683000Y-101625400D03*
X132892800Y-96215200D03*
X131394200Y-114808000D03*
X134975600Y-114960400D03*
X117271800Y-110439200D03*
X118465600Y-113284000D03*
X110642400Y-108813600D03*
X107579166Y-107604566D03*
X107010200Y-87376000D03*
X109093000Y-89154000D03*
X115544600Y-89941400D03*
X123063000Y-91592400D03*
X127914400Y-93446600D03*
X118788560Y-102471370D03*
X114427000Y-100761800D03*
X112039400Y-97685600D03*
X121037400Y-113131600D03*
X125826352Y-108514048D03*
X106070400Y-98526600D03*
X105943400Y-104343200D03*
X126619000Y-107086400D03*
X116967000Y-82778600D03*
X118821200Y-80467200D03*
X132765800Y-99288600D03*
%TO.N,/CP2102_VDD*%
X121793000Y-80949800D03*
X118033800Y-85039200D03*
%TO.N,/MCU_3P3*%
X120726200Y-103479600D03*
X125806200Y-106476800D03*
X110947200Y-95885000D03*
X121843758Y-89304000D03*
X124507183Y-95458455D03*
X129913548Y-91000748D03*
%TO.N,/RST_PROG*%
X112877600Y-110058200D03*
X129311400Y-117779800D03*
X108305600Y-113690400D03*
%TO.N,/USB_DP*%
X122631200Y-105613200D03*
X126657100Y-114795300D03*
%TO.N,/MCU_3P3A*%
X114935000Y-110769400D03*
X110947200Y-98501200D03*
%TO.N,/USB_DM*%
X122738014Y-103576834D03*
X121691400Y-114757200D03*
%TO.N,/MCU_3P3A_FILT*%
X112268000Y-99568000D03*
%TO.N,/GPIO6*%
X113969800Y-101688999D03*
%TO.N,/GPIO7*%
X115417600Y-102485601D03*
%TO.N,/GPIO8*%
X114579590Y-102996999D03*
%TO.N,/GPIO9*%
X113461800Y-103708200D03*
%TO.N,/GPIO10*%
X114300000Y-104362200D03*
%TO.N,/GPIO11*%
X114909600Y-105156000D03*
%TO.N,/GPIO13*%
X115448357Y-105915320D03*
%TO.N,/GPIO14*%
X115874800Y-106807000D03*
%TO.N,/GPIO21*%
X125603000Y-104140000D03*
%TO.N,/GPIO33*%
X123875524Y-100571574D03*
%TO.N,/GPIO34*%
X123869402Y-99644593D03*
%TO.N,/GPIO35*%
X126848110Y-99263711D03*
%TO.N,/GPIO36*%
X126995701Y-98191224D03*
%TO.N,/GPIO37*%
X127457200Y-97409000D03*
%TO.N,/GPIO38*%
X126847600Y-96342200D03*
%TO.N,/GPIO39*%
X126238281Y-95137623D03*
%TO.N,/GPIO40*%
X125425681Y-95583730D03*
%TO.N,/GPIO41*%
X123037600Y-98399600D03*
%TO.N,/GPIO42*%
X121869200Y-98393202D03*
%TO.N,/GPIO45*%
X120523001Y-90220800D03*
%TO.N,/GPIO46*%
X114655600Y-93675200D03*
%TO.N,/DAC1*%
X121777072Y-103504735D03*
%TO.N,/BOOT_PROG*%
X112268000Y-100558600D03*
X111633000Y-111302800D03*
X129235200Y-93065600D03*
X118802198Y-99974400D03*
%TO.N,/SPICS0*%
X124333000Y-107340400D03*
X123944605Y-101988841D03*
%TO.N,/SPICS1*%
X123825000Y-103200200D03*
X123215400Y-89331800D03*
%TO.N,/GPIO4*%
X113360200Y-73761600D03*
X118700642Y-101544898D03*
%TO.N,/UART_TX*%
X122687248Y-93832848D03*
X128134349Y-84817000D03*
%TO.N,/SPID*%
X127876399Y-96397317D03*
X131368800Y-96196100D03*
%TO.N,/SPIQ*%
X136093200Y-96850200D03*
X129184400Y-96494600D03*
%TO.N,/SPIWP*%
X133172200Y-113004600D03*
X131114800Y-104444800D03*
%TO.N,/SPIHD*%
X135057200Y-102692200D03*
X131953000Y-105181400D03*
%TO.N,/UART_RX*%
X127480349Y-82876447D03*
X121666000Y-93929200D03*
%TD*%
D14*
%TO.N,GND*%
X112598200Y-113284000D02*
X110032800Y-113284000D01*
X110032800Y-113284000D02*
X107721400Y-110972600D01*
%TO.N,/RST_PROG*%
X128400999Y-116869399D02*
X119688799Y-116869399D01*
X129311400Y-117779800D02*
X128400999Y-116869399D01*
X113976201Y-114090399D02*
X115443000Y-112623600D01*
X108705599Y-114090399D02*
X113976201Y-114090399D01*
X108305600Y-113690400D02*
X108705599Y-114090399D01*
X119688799Y-116869399D02*
X115443000Y-112623600D01*
X115443000Y-112623600D02*
X112877600Y-110058200D01*
%TO.N,/USB_DP*%
X122631200Y-105613200D02*
X122631200Y-110769400D01*
X122631200Y-110769400D02*
X126657100Y-114795300D01*
%TO.N,/USB_DM*%
X122738014Y-103576834D02*
X121691400Y-104623448D01*
X121691400Y-104623448D02*
X121691400Y-114757200D01*
%TO.N,/GPIO6*%
X113827199Y-101831600D02*
X113969800Y-101688999D01*
X111582888Y-101831600D02*
X113827199Y-101831600D01*
X110242399Y-93732399D02*
X110242399Y-100491111D01*
X104140000Y-87630000D02*
X110242399Y-93732399D01*
X110242399Y-100491111D02*
X111582888Y-101831600D01*
X100126800Y-80010000D02*
X101600000Y-80010000D01*
X101600000Y-80010000D02*
X104140000Y-82550000D01*
X104140000Y-82550000D02*
X104140000Y-87630000D01*
%TO.N,/GPIO7*%
X115274998Y-102342999D02*
X115417600Y-102485601D01*
X111610317Y-102342999D02*
X115274998Y-102342999D01*
X100126800Y-82550000D02*
X100330000Y-82550000D01*
X103758990Y-85978990D02*
X103758990Y-88518990D01*
X100330000Y-82550000D02*
X103758990Y-85978990D01*
X103758990Y-88518990D02*
X109220000Y-93980000D01*
X109220000Y-100330000D02*
X111421658Y-102531658D01*
X109220000Y-93980000D02*
X109220000Y-100330000D01*
X111421658Y-102531658D02*
X111610317Y-102342999D01*
%TO.N,/GPIO8*%
X100126800Y-85090000D02*
X100330000Y-85090000D01*
X103377980Y-88676809D02*
X108838990Y-94137819D01*
X100330000Y-85090000D02*
X103377980Y-88137980D01*
X103377980Y-88137980D02*
X103377980Y-88676809D01*
X108838990Y-100487819D02*
X109062181Y-100711010D01*
X108838990Y-94137819D02*
X108838990Y-100487819D01*
X114495257Y-102912666D02*
X114579590Y-102996999D01*
X109062181Y-100711010D02*
X111263838Y-102912666D01*
X111263838Y-102912666D02*
X114495257Y-102912666D01*
%TO.N,/GPIO9*%
X100126800Y-87630000D02*
X101670751Y-87630000D01*
X108457980Y-94417229D02*
X108457980Y-100645638D01*
X101670751Y-87630000D02*
X108457980Y-94417229D01*
X111520542Y-103708200D02*
X113461800Y-103708200D01*
X108457980Y-100645638D02*
X111520542Y-103708200D01*
%TO.N,/GPIO10*%
X100126800Y-90170000D02*
X103276370Y-90170000D01*
X108076970Y-94970600D02*
X108076970Y-101091970D01*
X103276370Y-90170000D02*
X108076970Y-94970600D01*
X108076970Y-101091970D02*
X111347200Y-104362200D01*
X111347200Y-104362200D02*
X114300000Y-104362200D01*
%TO.N,/GPIO11*%
X110952628Y-105156000D02*
X114909600Y-105156000D01*
X100126800Y-92710000D02*
X105257600Y-92710000D01*
X105257600Y-92710000D02*
X107442000Y-94894400D01*
X107442000Y-94894400D02*
X107442000Y-101752400D01*
X107442000Y-101752400D02*
X110899114Y-105209514D01*
X110899114Y-105209514D02*
X110952628Y-105156000D01*
%TO.N,/GPIO13*%
X110732136Y-105915320D02*
X115448357Y-105915320D01*
X100126800Y-95309984D02*
X110732136Y-105915320D01*
X100126800Y-95250000D02*
X100126800Y-95309984D01*
%TO.N,/GPIO14*%
X110379284Y-106807000D02*
X115874800Y-106807000D01*
X101362284Y-97790000D02*
X110379284Y-106807000D01*
X100126800Y-97790000D02*
X101362284Y-97790000D01*
%TO.N,/GPIO21*%
X129136322Y-104140000D02*
X125603000Y-104140000D01*
X131238123Y-102038199D02*
X129136322Y-104140000D01*
X135437257Y-102038199D02*
X131238123Y-102038199D01*
X137043856Y-100431600D02*
X135437257Y-102038199D01*
X139522200Y-100431600D02*
X137043856Y-100431600D01*
%TO.N,/GPIO33*%
X136365054Y-100571574D02*
X134150374Y-100571574D01*
X139146628Y-97790000D02*
X136365054Y-100571574D01*
X123875524Y-100571574D02*
X134150374Y-100571574D01*
X139522200Y-97790000D02*
X139146628Y-97790000D01*
%TO.N,/GPIO34*%
X124142521Y-99917712D02*
X123869402Y-99644593D01*
X134187741Y-99917712D02*
X124142521Y-99917712D01*
X135071267Y-99917712D02*
X134187741Y-99917712D01*
X138418199Y-96570780D02*
X135071267Y-99917712D01*
X138418199Y-96354001D02*
X138418199Y-96570780D01*
X139522200Y-95250000D02*
X138418199Y-96354001D01*
%TO.N,/GPIO35*%
X126848110Y-99263711D02*
X127432821Y-98679000D01*
X127432821Y-98679000D02*
X134030372Y-98679000D01*
X139522200Y-92710000D02*
X137521028Y-92710000D01*
X137128211Y-97321940D02*
X135771151Y-98679000D01*
X135771151Y-98679000D02*
X134030372Y-98679000D01*
X137128211Y-93102817D02*
X137128211Y-97321940D01*
X137521028Y-92710000D02*
X137128211Y-93102817D01*
%TO.N,/GPIO36*%
X134081424Y-98191224D02*
X126995701Y-98191224D01*
X139522200Y-90170000D02*
X136747201Y-92944999D01*
X135720098Y-98191224D02*
X134081424Y-98191224D01*
X136747201Y-97164121D02*
X135720098Y-98191224D01*
X136747201Y-92944999D02*
X136747201Y-97164121D01*
%TO.N,/GPIO37*%
X128530400Y-96711238D02*
X127832638Y-97409000D01*
X128530400Y-96180678D02*
X128530400Y-96711238D01*
X127832638Y-97409000D02*
X127457200Y-97409000D01*
X137081078Y-87630000D02*
X128530400Y-96180678D01*
X139522200Y-87630000D02*
X137081078Y-87630000D01*
%TO.N,/GPIO38*%
X139496800Y-85090000D02*
X131288912Y-85090000D01*
X131288912Y-91940901D02*
X129413000Y-93816813D01*
X131288912Y-85090000D02*
X131288912Y-91940901D01*
X129372987Y-93816813D02*
X126847600Y-96342200D01*
X129413000Y-93816813D02*
X129372987Y-93816813D01*
%TO.N,/GPIO39*%
X139522200Y-82550000D02*
X133290084Y-82550000D01*
X133290084Y-82550000D02*
X129689043Y-86151041D01*
X126238281Y-93708093D02*
X126238281Y-95137623D01*
X129689043Y-90257331D02*
X126238281Y-93708093D01*
X129689043Y-86151041D02*
X129689043Y-90257331D01*
%TO.N,/GPIO40*%
X129133600Y-89433400D02*
X129132274Y-89433400D01*
X129132274Y-89433400D02*
X125425681Y-93139993D01*
X125425681Y-93139993D02*
X125425681Y-95583730D01*
X139522200Y-80518000D02*
X139522200Y-80663646D01*
X139522200Y-80010000D02*
X135291256Y-80010000D01*
X129308033Y-89258967D02*
X129260600Y-89306400D01*
X135291256Y-80010000D02*
X129308033Y-85993223D01*
X129308033Y-85993223D02*
X129308033Y-89258967D01*
X129260600Y-89306400D02*
X129133600Y-89433400D01*
%TO.N,/GPIO41*%
X123037600Y-97730811D02*
X123037600Y-98399600D01*
X123037600Y-94989246D02*
X123037600Y-98399600D01*
X139522200Y-77470000D02*
X137292428Y-77470000D01*
X137292428Y-77470000D02*
X128927023Y-85835405D01*
X128927023Y-85835405D02*
X128927023Y-89099823D01*
X128927023Y-89099823D02*
X123037600Y-94989246D01*
%TO.N,/GPIO42*%
X121869200Y-98360383D02*
X121869200Y-98393202D01*
X121869200Y-98393202D02*
X121869200Y-95618818D01*
X128515359Y-85708241D02*
X128515359Y-88972659D01*
X128515359Y-88972659D02*
X128403609Y-89084409D01*
X139369800Y-74853800D02*
X128515359Y-85708241D01*
X139522200Y-74853800D02*
X139369800Y-74853800D01*
X121869200Y-95618818D02*
X128403609Y-89084409D01*
%TO.N,/GPIO45*%
X100126800Y-74955400D02*
X105181400Y-74955400D01*
X120370600Y-90144600D02*
X120281700Y-90055700D01*
X105181400Y-74955400D02*
X120281700Y-90055700D01*
X120446800Y-90220800D02*
X120281700Y-90055700D01*
X120523001Y-90220800D02*
X120446800Y-90220800D01*
%TO.N,/GPIO46*%
X114655600Y-93675200D02*
X105455552Y-84475152D01*
X100126800Y-77470000D02*
X103530400Y-77470000D01*
X105455552Y-79395152D02*
X105455552Y-84475152D01*
X103530400Y-77470000D02*
X105455552Y-79395152D01*
%TO.N,/DAC1*%
X117712807Y-107569000D02*
X121777072Y-103504735D01*
X110156112Y-107569000D02*
X117712807Y-107569000D01*
X110137122Y-107569000D02*
X110156112Y-107569000D01*
X102898122Y-100330000D02*
X110137122Y-107569000D01*
X100126800Y-100330000D02*
X102898122Y-100330000D01*
%TO.N,/SPICS0*%
X124479001Y-102523237D02*
X123944605Y-101988841D01*
X124333000Y-107340400D02*
X124479001Y-107194399D01*
X124479001Y-107194399D02*
X124479001Y-102523237D01*
%TO.N,/SPICS1*%
X123825000Y-103200200D02*
X122682000Y-102057200D01*
X121011999Y-91535201D02*
X123215400Y-89331800D01*
X122682000Y-102057200D02*
X121011999Y-100387199D01*
X121011999Y-100387199D02*
X121011999Y-91535201D01*
%TO.N,/GPIO4*%
X120630989Y-91377382D02*
X121177001Y-90831370D01*
X121177001Y-81578401D02*
X113360200Y-73761600D01*
X120630989Y-100349011D02*
X120630989Y-91377382D01*
X119435102Y-101544898D02*
X120630989Y-100349011D01*
X121177001Y-90831370D02*
X121177001Y-81578401D01*
X118700642Y-101544898D02*
X119435102Y-101544898D01*
%TO.N,/UART_TX*%
X122687248Y-93832848D02*
X128134349Y-88385747D01*
X128134349Y-88385747D02*
X128134349Y-84817000D01*
%TO.N,/SPIQ*%
X136093200Y-96850200D02*
X129540000Y-96850200D01*
X129540000Y-96850200D02*
X129184400Y-96494600D01*
%TO.N,/SPIWP*%
X133172200Y-113004600D02*
X131114800Y-110947200D01*
X131114800Y-110947200D02*
X131114800Y-104444800D01*
%TO.N,/SPIHD*%
X135057200Y-102692200D02*
X134442200Y-102692200D01*
X134442200Y-102692200D02*
X131953000Y-105181400D01*
%TO.N,/UART_RX*%
X127480349Y-82876447D02*
X127480349Y-88114851D01*
X127480349Y-88114851D02*
X123888500Y-91706700D01*
X124000549Y-91594651D02*
X123888500Y-91706700D01*
X123888500Y-91706700D02*
X121666000Y-93929200D01*
%TD*%
M02*
