%TF.GenerationSoftware,KiCad,Pcbnew,(5.1.6)-1*%
%TF.CreationDate,2022-06-15T11:31:04-05:00*%
%TF.ProjectId,ESP32-S2_Dev,45535033-322d-4533-925f-4465762e6b69,01*%
%TF.SameCoordinates,Original*%
%TF.FileFunction,Paste,Bot*%
%TF.FilePolarity,Positive*%
%FSLAX46Y46*%
G04 Gerber Fmt 4.6, Leading zero omitted, Abs format (unit mm)*
G04 Created by KiCad (PCBNEW (5.1.6)-1) date 2022-06-15 11:31:04*
%MOMM*%
%LPD*%
G01*
G04 APERTURE LIST*
G04 APERTURE END LIST*
%TO.C,C30*%
G36*
G01*
X120898700Y-106998000D02*
X120553700Y-106998000D01*
G75*
G02*
X120406200Y-106850500I0J147500D01*
G01*
X120406200Y-106555500D01*
G75*
G02*
X120553700Y-106408000I147500J0D01*
G01*
X120898700Y-106408000D01*
G75*
G02*
X121046200Y-106555500I0J-147500D01*
G01*
X121046200Y-106850500D01*
G75*
G02*
X120898700Y-106998000I-147500J0D01*
G01*
G37*
G36*
G01*
X120898700Y-107968000D02*
X120553700Y-107968000D01*
G75*
G02*
X120406200Y-107820500I0J147500D01*
G01*
X120406200Y-107525500D01*
G75*
G02*
X120553700Y-107378000I147500J0D01*
G01*
X120898700Y-107378000D01*
G75*
G02*
X121046200Y-107525500I0J-147500D01*
G01*
X121046200Y-107820500D01*
G75*
G02*
X120898700Y-107968000I-147500J0D01*
G01*
G37*
%TD*%
%TO.C,L1*%
G36*
G01*
X109606300Y-100141400D02*
X109951300Y-100141400D01*
G75*
G02*
X110098800Y-100288900I0J-147500D01*
G01*
X110098800Y-100583900D01*
G75*
G02*
X109951300Y-100731400I-147500J0D01*
G01*
X109606300Y-100731400D01*
G75*
G02*
X109458800Y-100583900I0J147500D01*
G01*
X109458800Y-100288900D01*
G75*
G02*
X109606300Y-100141400I147500J0D01*
G01*
G37*
G36*
G01*
X109606300Y-99171400D02*
X109951300Y-99171400D01*
G75*
G02*
X110098800Y-99318900I0J-147500D01*
G01*
X110098800Y-99613900D01*
G75*
G02*
X109951300Y-99761400I-147500J0D01*
G01*
X109606300Y-99761400D01*
G75*
G02*
X109458800Y-99613900I0J147500D01*
G01*
X109458800Y-99318900D01*
G75*
G02*
X109606300Y-99171400I147500J0D01*
G01*
G37*
%TD*%
%TO.C,C32*%
G36*
G01*
X110698500Y-100139000D02*
X111043500Y-100139000D01*
G75*
G02*
X111191000Y-100286500I0J-147500D01*
G01*
X111191000Y-100581500D01*
G75*
G02*
X111043500Y-100729000I-147500J0D01*
G01*
X110698500Y-100729000D01*
G75*
G02*
X110551000Y-100581500I0J147500D01*
G01*
X110551000Y-100286500D01*
G75*
G02*
X110698500Y-100139000I147500J0D01*
G01*
G37*
G36*
G01*
X110698500Y-99169000D02*
X111043500Y-99169000D01*
G75*
G02*
X111191000Y-99316500I0J-147500D01*
G01*
X111191000Y-99611500D01*
G75*
G02*
X111043500Y-99759000I-147500J0D01*
G01*
X110698500Y-99759000D01*
G75*
G02*
X110551000Y-99611500I0J147500D01*
G01*
X110551000Y-99316500D01*
G75*
G02*
X110698500Y-99169000I147500J0D01*
G01*
G37*
%TD*%
%TO.C,C28*%
G36*
G01*
X109183800Y-102483700D02*
X109183800Y-102138700D01*
G75*
G02*
X109331300Y-101991200I147500J0D01*
G01*
X109626300Y-101991200D01*
G75*
G02*
X109773800Y-102138700I0J-147500D01*
G01*
X109773800Y-102483700D01*
G75*
G02*
X109626300Y-102631200I-147500J0D01*
G01*
X109331300Y-102631200D01*
G75*
G02*
X109183800Y-102483700I0J147500D01*
G01*
G37*
G36*
G01*
X108213800Y-102483700D02*
X108213800Y-102138700D01*
G75*
G02*
X108361300Y-101991200I147500J0D01*
G01*
X108656300Y-101991200D01*
G75*
G02*
X108803800Y-102138700I0J-147500D01*
G01*
X108803800Y-102483700D01*
G75*
G02*
X108656300Y-102631200I-147500J0D01*
G01*
X108361300Y-102631200D01*
G75*
G02*
X108213800Y-102483700I0J147500D01*
G01*
G37*
%TD*%
%TO.C,C27*%
G36*
G01*
X109181400Y-103626700D02*
X109181400Y-103281700D01*
G75*
G02*
X109328900Y-103134200I147500J0D01*
G01*
X109623900Y-103134200D01*
G75*
G02*
X109771400Y-103281700I0J-147500D01*
G01*
X109771400Y-103626700D01*
G75*
G02*
X109623900Y-103774200I-147500J0D01*
G01*
X109328900Y-103774200D01*
G75*
G02*
X109181400Y-103626700I0J147500D01*
G01*
G37*
G36*
G01*
X108211400Y-103626700D02*
X108211400Y-103281700D01*
G75*
G02*
X108358900Y-103134200I147500J0D01*
G01*
X108653900Y-103134200D01*
G75*
G02*
X108801400Y-103281700I0J-147500D01*
G01*
X108801400Y-103626700D01*
G75*
G02*
X108653900Y-103774200I-147500J0D01*
G01*
X108358900Y-103774200D01*
G75*
G02*
X108211400Y-103626700I0J147500D01*
G01*
G37*
%TD*%
%TO.C,C26*%
G36*
G01*
X109179000Y-104769700D02*
X109179000Y-104424700D01*
G75*
G02*
X109326500Y-104277200I147500J0D01*
G01*
X109621500Y-104277200D01*
G75*
G02*
X109769000Y-104424700I0J-147500D01*
G01*
X109769000Y-104769700D01*
G75*
G02*
X109621500Y-104917200I-147500J0D01*
G01*
X109326500Y-104917200D01*
G75*
G02*
X109179000Y-104769700I0J147500D01*
G01*
G37*
G36*
G01*
X108209000Y-104769700D02*
X108209000Y-104424700D01*
G75*
G02*
X108356500Y-104277200I147500J0D01*
G01*
X108651500Y-104277200D01*
G75*
G02*
X108799000Y-104424700I0J-147500D01*
G01*
X108799000Y-104769700D01*
G75*
G02*
X108651500Y-104917200I-147500J0D01*
G01*
X108356500Y-104917200D01*
G75*
G02*
X108209000Y-104769700I0J147500D01*
G01*
G37*
%TD*%
%TO.C,C24*%
G36*
G01*
X109156000Y-107004900D02*
X109156000Y-106659900D01*
G75*
G02*
X109303500Y-106512400I147500J0D01*
G01*
X109598500Y-106512400D01*
G75*
G02*
X109746000Y-106659900I0J-147500D01*
G01*
X109746000Y-107004900D01*
G75*
G02*
X109598500Y-107152400I-147500J0D01*
G01*
X109303500Y-107152400D01*
G75*
G02*
X109156000Y-107004900I0J147500D01*
G01*
G37*
G36*
G01*
X108186000Y-107004900D02*
X108186000Y-106659900D01*
G75*
G02*
X108333500Y-106512400I147500J0D01*
G01*
X108628500Y-106512400D01*
G75*
G02*
X108776000Y-106659900I0J-147500D01*
G01*
X108776000Y-107004900D01*
G75*
G02*
X108628500Y-107152400I-147500J0D01*
G01*
X108333500Y-107152400D01*
G75*
G02*
X108186000Y-107004900I0J147500D01*
G01*
G37*
%TD*%
%TO.C,C22*%
G36*
G01*
X109158400Y-105912700D02*
X109158400Y-105567700D01*
G75*
G02*
X109305900Y-105420200I147500J0D01*
G01*
X109600900Y-105420200D01*
G75*
G02*
X109748400Y-105567700I0J-147500D01*
G01*
X109748400Y-105912700D01*
G75*
G02*
X109600900Y-106060200I-147500J0D01*
G01*
X109305900Y-106060200D01*
G75*
G02*
X109158400Y-105912700I0J147500D01*
G01*
G37*
G36*
G01*
X108188400Y-105912700D02*
X108188400Y-105567700D01*
G75*
G02*
X108335900Y-105420200I147500J0D01*
G01*
X108630900Y-105420200D01*
G75*
G02*
X108778400Y-105567700I0J-147500D01*
G01*
X108778400Y-105912700D01*
G75*
G02*
X108630900Y-106060200I-147500J0D01*
G01*
X108335900Y-106060200D01*
G75*
G02*
X108188400Y-105912700I0J147500D01*
G01*
G37*
%TD*%
M02*
