%TF.GenerationSoftware,KiCad,Pcbnew,(5.1.6)-1*%
%TF.CreationDate,2022-06-17T09:40:27-05:00*%
%TF.ProjectId,ESP32-S2_Dev,45535033-322d-4533-925f-4465762e6b69,01*%
%TF.SameCoordinates,Original*%
%TF.FileFunction,Soldermask,Bot*%
%TF.FilePolarity,Negative*%
%FSLAX46Y46*%
G04 Gerber Fmt 4.6, Leading zero omitted, Abs format (unit mm)*
G04 Created by KiCad (PCBNEW (5.1.6)-1) date 2022-06-17 09:40:27*
%MOMM*%
%LPD*%
G01*
G04 APERTURE LIST*
%ADD10R,1.800000X1.800000*%
%ADD11O,1.300000X2.000000*%
%ADD12C,1.550000*%
G04 APERTURE END LIST*
%TO.C,C30*%
G36*
G01*
X120923700Y-107048000D02*
X120528700Y-107048000D01*
G75*
G02*
X120356200Y-106875500I0J172500D01*
G01*
X120356200Y-106530500D01*
G75*
G02*
X120528700Y-106358000I172500J0D01*
G01*
X120923700Y-106358000D01*
G75*
G02*
X121096200Y-106530500I0J-172500D01*
G01*
X121096200Y-106875500D01*
G75*
G02*
X120923700Y-107048000I-172500J0D01*
G01*
G37*
G36*
G01*
X120923700Y-108018000D02*
X120528700Y-108018000D01*
G75*
G02*
X120356200Y-107845500I0J172500D01*
G01*
X120356200Y-107500500D01*
G75*
G02*
X120528700Y-107328000I172500J0D01*
G01*
X120923700Y-107328000D01*
G75*
G02*
X121096200Y-107500500I0J-172500D01*
G01*
X121096200Y-107845500D01*
G75*
G02*
X120923700Y-108018000I-172500J0D01*
G01*
G37*
%TD*%
D10*
%TO.C,IO13*%
X100126800Y-95250000D03*
%TD*%
D11*
%TO.C,UART1*%
X126310000Y-71120000D03*
X133310000Y-71120000D03*
D12*
X127310000Y-73820000D03*
X132310000Y-73820000D03*
%TD*%
D11*
%TO.C,USB1*%
X125420000Y-133350000D03*
X118420000Y-133350000D03*
D12*
X124420000Y-130650000D03*
X119420000Y-130650000D03*
%TD*%
%TO.C,L1*%
G36*
G01*
X109581300Y-100091400D02*
X109976300Y-100091400D01*
G75*
G02*
X110148800Y-100263900I0J-172500D01*
G01*
X110148800Y-100608900D01*
G75*
G02*
X109976300Y-100781400I-172500J0D01*
G01*
X109581300Y-100781400D01*
G75*
G02*
X109408800Y-100608900I0J172500D01*
G01*
X109408800Y-100263900D01*
G75*
G02*
X109581300Y-100091400I172500J0D01*
G01*
G37*
G36*
G01*
X109581300Y-99121400D02*
X109976300Y-99121400D01*
G75*
G02*
X110148800Y-99293900I0J-172500D01*
G01*
X110148800Y-99638900D01*
G75*
G02*
X109976300Y-99811400I-172500J0D01*
G01*
X109581300Y-99811400D01*
G75*
G02*
X109408800Y-99638900I0J172500D01*
G01*
X109408800Y-99293900D01*
G75*
G02*
X109581300Y-99121400I172500J0D01*
G01*
G37*
%TD*%
D10*
%TO.C,DAC1*%
X100126800Y-100330000D03*
%TD*%
%TO.C,IO46*%
X100126800Y-77470000D03*
%TD*%
%TO.C,IO45*%
X100126800Y-74955400D03*
%TD*%
%TO.C,IO42*%
X139522200Y-74853800D03*
%TD*%
%TO.C,IO41*%
X139522200Y-77470000D03*
%TD*%
%TO.C,IO40*%
X139522200Y-80010000D03*
%TD*%
%TO.C,IO39*%
X139522200Y-82550000D03*
%TD*%
%TO.C,IO38*%
X139496800Y-85090000D03*
%TD*%
%TO.C,IO37*%
X139522200Y-87630000D03*
%TD*%
%TO.C,IO36*%
X139522200Y-90170000D03*
%TD*%
%TO.C,IO35*%
X139522200Y-92710000D03*
%TD*%
%TO.C,IO34*%
X139522200Y-95250000D03*
%TD*%
%TO.C,IO33*%
X139522200Y-97790000D03*
%TD*%
%TO.C,IO21*%
X139522200Y-100431600D03*
%TD*%
%TO.C,IO14*%
X100126800Y-97790000D03*
%TD*%
%TO.C,IO11*%
X100126800Y-92710000D03*
%TD*%
%TO.C,IO10*%
X100126800Y-90170000D03*
%TD*%
%TO.C,IO9*%
X100126800Y-87630000D03*
%TD*%
%TO.C,IO8*%
X100126800Y-85090000D03*
%TD*%
%TO.C,IO7*%
X100126800Y-82550000D03*
%TD*%
%TO.C,IO6*%
X100126800Y-80010000D03*
%TD*%
%TO.C,C32*%
G36*
G01*
X110673500Y-100089000D02*
X111068500Y-100089000D01*
G75*
G02*
X111241000Y-100261500I0J-172500D01*
G01*
X111241000Y-100606500D01*
G75*
G02*
X111068500Y-100779000I-172500J0D01*
G01*
X110673500Y-100779000D01*
G75*
G02*
X110501000Y-100606500I0J172500D01*
G01*
X110501000Y-100261500D01*
G75*
G02*
X110673500Y-100089000I172500J0D01*
G01*
G37*
G36*
G01*
X110673500Y-99119000D02*
X111068500Y-99119000D01*
G75*
G02*
X111241000Y-99291500I0J-172500D01*
G01*
X111241000Y-99636500D01*
G75*
G02*
X111068500Y-99809000I-172500J0D01*
G01*
X110673500Y-99809000D01*
G75*
G02*
X110501000Y-99636500I0J172500D01*
G01*
X110501000Y-99291500D01*
G75*
G02*
X110673500Y-99119000I172500J0D01*
G01*
G37*
%TD*%
%TO.C,C28*%
G36*
G01*
X109133800Y-102508700D02*
X109133800Y-102113700D01*
G75*
G02*
X109306300Y-101941200I172500J0D01*
G01*
X109651300Y-101941200D01*
G75*
G02*
X109823800Y-102113700I0J-172500D01*
G01*
X109823800Y-102508700D01*
G75*
G02*
X109651300Y-102681200I-172500J0D01*
G01*
X109306300Y-102681200D01*
G75*
G02*
X109133800Y-102508700I0J172500D01*
G01*
G37*
G36*
G01*
X108163800Y-102508700D02*
X108163800Y-102113700D01*
G75*
G02*
X108336300Y-101941200I172500J0D01*
G01*
X108681300Y-101941200D01*
G75*
G02*
X108853800Y-102113700I0J-172500D01*
G01*
X108853800Y-102508700D01*
G75*
G02*
X108681300Y-102681200I-172500J0D01*
G01*
X108336300Y-102681200D01*
G75*
G02*
X108163800Y-102508700I0J172500D01*
G01*
G37*
%TD*%
%TO.C,C27*%
G36*
G01*
X109131400Y-103651700D02*
X109131400Y-103256700D01*
G75*
G02*
X109303900Y-103084200I172500J0D01*
G01*
X109648900Y-103084200D01*
G75*
G02*
X109821400Y-103256700I0J-172500D01*
G01*
X109821400Y-103651700D01*
G75*
G02*
X109648900Y-103824200I-172500J0D01*
G01*
X109303900Y-103824200D01*
G75*
G02*
X109131400Y-103651700I0J172500D01*
G01*
G37*
G36*
G01*
X108161400Y-103651700D02*
X108161400Y-103256700D01*
G75*
G02*
X108333900Y-103084200I172500J0D01*
G01*
X108678900Y-103084200D01*
G75*
G02*
X108851400Y-103256700I0J-172500D01*
G01*
X108851400Y-103651700D01*
G75*
G02*
X108678900Y-103824200I-172500J0D01*
G01*
X108333900Y-103824200D01*
G75*
G02*
X108161400Y-103651700I0J172500D01*
G01*
G37*
%TD*%
%TO.C,C26*%
G36*
G01*
X109129000Y-104794700D02*
X109129000Y-104399700D01*
G75*
G02*
X109301500Y-104227200I172500J0D01*
G01*
X109646500Y-104227200D01*
G75*
G02*
X109819000Y-104399700I0J-172500D01*
G01*
X109819000Y-104794700D01*
G75*
G02*
X109646500Y-104967200I-172500J0D01*
G01*
X109301500Y-104967200D01*
G75*
G02*
X109129000Y-104794700I0J172500D01*
G01*
G37*
G36*
G01*
X108159000Y-104794700D02*
X108159000Y-104399700D01*
G75*
G02*
X108331500Y-104227200I172500J0D01*
G01*
X108676500Y-104227200D01*
G75*
G02*
X108849000Y-104399700I0J-172500D01*
G01*
X108849000Y-104794700D01*
G75*
G02*
X108676500Y-104967200I-172500J0D01*
G01*
X108331500Y-104967200D01*
G75*
G02*
X108159000Y-104794700I0J172500D01*
G01*
G37*
%TD*%
%TO.C,C24*%
G36*
G01*
X109106000Y-107029900D02*
X109106000Y-106634900D01*
G75*
G02*
X109278500Y-106462400I172500J0D01*
G01*
X109623500Y-106462400D01*
G75*
G02*
X109796000Y-106634900I0J-172500D01*
G01*
X109796000Y-107029900D01*
G75*
G02*
X109623500Y-107202400I-172500J0D01*
G01*
X109278500Y-107202400D01*
G75*
G02*
X109106000Y-107029900I0J172500D01*
G01*
G37*
G36*
G01*
X108136000Y-107029900D02*
X108136000Y-106634900D01*
G75*
G02*
X108308500Y-106462400I172500J0D01*
G01*
X108653500Y-106462400D01*
G75*
G02*
X108826000Y-106634900I0J-172500D01*
G01*
X108826000Y-107029900D01*
G75*
G02*
X108653500Y-107202400I-172500J0D01*
G01*
X108308500Y-107202400D01*
G75*
G02*
X108136000Y-107029900I0J172500D01*
G01*
G37*
%TD*%
%TO.C,C22*%
G36*
G01*
X109108400Y-105937700D02*
X109108400Y-105542700D01*
G75*
G02*
X109280900Y-105370200I172500J0D01*
G01*
X109625900Y-105370200D01*
G75*
G02*
X109798400Y-105542700I0J-172500D01*
G01*
X109798400Y-105937700D01*
G75*
G02*
X109625900Y-106110200I-172500J0D01*
G01*
X109280900Y-106110200D01*
G75*
G02*
X109108400Y-105937700I0J172500D01*
G01*
G37*
G36*
G01*
X108138400Y-105937700D02*
X108138400Y-105542700D01*
G75*
G02*
X108310900Y-105370200I172500J0D01*
G01*
X108655900Y-105370200D01*
G75*
G02*
X108828400Y-105542700I0J-172500D01*
G01*
X108828400Y-105937700D01*
G75*
G02*
X108655900Y-106110200I-172500J0D01*
G01*
X108310900Y-106110200D01*
G75*
G02*
X108138400Y-105937700I0J172500D01*
G01*
G37*
%TD*%
M02*
